# Aspose.3D Wavefront OBJ Exporter
# Copyright 2004-2021 Aspose Pty Ltd.
# File created: 11/23/2021 16:46:14

mtllib material.lib

#
# object Cylinder001
#

v 2.9677195213771608 2.9508353704762112 -41.29056179131624304
v 1.68651059937668176 3.5943240365810212 -41.49832265303446376
v 0.35163645627663164 3.95200259211913088 -41.49832240948031624
v -1.02506818108938979 3.83155726719971488 -41.49832222870760032
v -2.27755117805629048 3.24751384672151568 -41.49832213252056336
v -3.25474684991192832 2.27031817486587784 -41.49832213252057048
v -3.83879010180273456 1.01783534648637008 -41.49832222870760032
v -3.95923525813475584 -0.35886912229225664 -41.49832240948031624
v -3.6015578827084056 -1.69374174810576152 -41.49832265303415824
v -2.8088967079668432 -2.82577946230068384 -41.49831784006524768
v -1.67685899377250712 -3.61844063704165728 -41.49831811702476616
v -0.34198535643464112 -3.97611969834195024 -41.49831836057903448
v 1.03471810081962623 -3.85567420483514128 -41.49831854135148032
v 2.287201392814465 -3.27163183802815284 -41.49831863753809816
v 3.26439698037640456 -2.29443759916536472 -41.4983186375387092
v 3.84844078017624288 -1.04195422287682859 -41.49831854135190664
v 3.96888720091371824 0.33474881290895376 -41.49831836057961
v 3.80240582453053472 1.75877885812841584 -41.29056202480171576
v 3.01860185987241358 3.00169957038369794 43.28797391448762256
v 1.67339919777398192 3.68323300489527304 43.18118551271841456
v 0.37003083475440944 4.16214899392947756 43.17505931423310984
v -1.22415650466161984 4.17981357148302024 43.2583419706253096
v -2.39854432445360824 3.42031255060925336 43.40732883482746728
v -3.12551118478420342 2.08927408626199984 43.59514157041280672
v -4.04255194281187791 1.07242414916258433 43.79913630989112512
v -4.49672467293705584 -0.70460670466075296 44.00359630153778312
v -3.79274415404341696 -1.78290788369552896 44.19753530519916752
v -2.78530835144522016 -2.8022108901352416 44.3695550302102504
v -1.76600602372333696 -3.80964601401560992 44.50365666440117704
v -0.48008408779895184 -4.30600709737546516 44.5789204361288256
v 0.9047637416290896 -3.8748932211523224 44.57424350740880928
v 2.40821131691564008 -3.44445043848657216 44.47658713379615848
v 3.63536888317772712 -2.61360537746911528 44.28876665356973776
v 3.92329593445141536 -1.2254904208339674 44.0334567217201851
v 4.44353291332944344 0.61760604855599336 43.75037581942915216
v 3.67101149554951792 1.62736499593319192 43.48730687191994096
v 2.81854747063463408 2.80166336760164288 -41.49831784006539696
v 1.77566638077665936 3.78551965058144544 -41.29056665402851676
v 0.37002312716717608 4.16216074761418752 -41.29056644870522776
v -1.07966864075801894 4.03532975367689062 -41.29056629630859732
v -2.39855344964480464 3.42032294020592072 -41.29056621522022396
v -3.4275559433963352 2.39132044645439024 -41.29056621522022396
v -4.04256258827991033 1.07243580615499923 -41.29056629630859732
v -4.16939341362981252 -0.37725579318280112 -41.29056644870522776
v -3.79275349670882816 -1.78289752950573728 -41.29056665402821124
v -2.95806871084141136 -2.97495151304321056 -41.29056179131608672
v -1.76601489589192256 -3.80963646749743216 -41.29056202480109052
v -0.36037197945722712 -4.18627790170496184 -41.29056223012438664
v 1.08931860835620853 -4.05944673918027199 -41.29056238252085364
v 2.4082035858303872 -3.44444110582105976 -41.29056246360939044
v 3.43720607958191768 -2.4154399607686816 -41.29056246360954672
v 4.05221323022767699 -1.09655481470710824 -41.29056238252116628
v 4.17904523568933684 0.35313526734414324 -41.29056223012484848
v 3.61121016266215552 1.6696231245963968 -41.49831811702550512
v -4.16937813245574062 -0.37726938848294368 37.20994090602880532
v -4.04254917024303317 1.07242306246768315 37.13463130500777254
v -3.42754617898481936 2.39131211503570816 37.24878238707364632
v -2.39854265717548464 3.42031560377816568 37.39229892760099008
v -1.07965787259075441 4.03531965985918894 37.5471984436802728
v 0.37003089451554064 4.16215298026580526 37.84019755886239984
v 1.77567311324765072 3.78551359246001344 37.63748434084409664
v 2.96772458324229232 2.95082895991191312 37.77002194915628768
v 3.80241325897948992 1.758773446728176 37.87731389096362016
v 4.17904795729922452 0.3531305226855146 37.9433537247036128
v 4.05221730126973867 -1.09656090879791356 37.94971648734603776
v 3.43720945734482888 -2.41544527728663816 37.41954978028125824
v 2.4082074530637456 -3.44444724898425304 37.27813132325000824
v 1.0893258133935948 -4.05945495574203807 37.34933654349806888
v -0.36036380760018184 -4.1862864107368072 36.96128280185142496
v -1.7660040255616512 -3.80964632630335392 36.97061375668596384
v -2.95805629068155616 -2.97496258450392848 37.25309995208472456
v -3.79273978850904752 -1.78290988900638144 36.72654989260068704
v -3.4971643211185128 -1.5429047847069128 42.19786336276142436
v -3.6657539295763932 -0.23073866645676056 42.00014014467603828
v -3.73249044177405056 1.33061511960561952 41.89464106465769072
v -2.8683075579099864 2.13407960295138644 41.74134363334637504
v -2.33668627760321 3.38562033926025128 41.598689297337458
v -0.946316343451624 3.67285420663592 41.44197377718721496
v 0.53717322738476448 3.96343827458967728 41.37434668663672712
v 1.64152922618392336 3.55003029243277448 41.352923171943047
v 2.69843596856904264 2.8833615575848128 41.35592895482847096
v 3.2164618810737906 1.69333145673169664 41.43389354077129384
v 3.80851350679452688 0.3921371884539404 41.51199543448139192
v 3.37267793994738784 -0.72474158901239248 41.6879978584650388
v 3.22520980413330704 -2.18447785637127544 41.86464107887074704
v 1.95782711334630304 -2.68427408572021608 42.02018163360708058
v 0.79029801885086752 -3.17465104163198664 42.1696110329056495
v -0.42658887910795864 -3.35643563418937864 42.24531000469087872
v -1.73341883905166944 -3.1705253869776362 42.30895458583771072
v -2.55787796291553168 -2.30060161468810164 42.25355011794860616
v 2.24606259364360028 2.24773730326190524 43.2142663360613284
v 1.19922641067479852 2.43773648537393232 43.13689678860622224
v 0.26258384682323488 2.64947618272370992 43.14056665967204652
v -0.8080363755778048 3.06938429888190001 43.2128324563843762
v -1.80885917766788576 2.60365516064957344 43.33191973726667356
v -2.17067872889048096 1.39836991619052856 43.4749326405857488
v -2.5961689754918176 0.7401696885802344 43.62452215235124696
v -2.49711433939648056 -0.513259311308472 43.7712810297451256
v -2.74898726174973264 -1.29153224241315456 43.91099807115341488
v -1.87326778369996032 -1.90923950347244896 44.03869107537671823
v -1.11151389240414566 -2.6848718462207204 44.14365610822720498
v -0.1466350394700875 -2.57650058937517736 44.2087576330906984
v 0.84883719245057776 -2.67516054615085072 44.2146321408331886
v 1.82032836486317424 -2.6259867143843412 44.14700508145509162
v 2.25860710407711452 -1.64905503396420808 44.00444227729822443
v 2.458859317971168 -0.66730983955084792 43.80356040932021248
v 3.16796796416004778 0.27014171734204064 43.5777990220516216
v 2.43931956745283608 1.244996155834853 43.3688453608772164
v -3.27136626598946912 -1.76071752932968912 39.47204849232045376
v -3.36705309904094464 -0.36231544152892784 39.47256746327107632
v -3.51500438657446776 1.13170436065654734 39.45481405135573992
v -2.71498618041467488 1.98824384292639776 39.48939047388275016
v -2.13388599734821582 3.1754790895190208 39.5194274699804424
v -0.69806293591110168 3.40744247989182368 39.5979185422305164
v 0.75731057410135344 3.73973530448906464 39.68240632788808856
v 1.88576581198020144 3.35266133935540188 39.73282119235811648
v 2.90391532883930208 2.6457248262503192 39.77784205075310816
v 3.48201870195767696 1.50542632671906776 39.80413274634391024
v 3.98648242458680624 0.11050489358863302 39.80940443915143584
v 3.65937803706968976 -0.93463883279244272 39.81959722752539216
v 3.42676291728670088 -2.37929750471287168 39.78791984180141136
v 2.20601822519546076 -2.93776887269228752 39.78727904895620784
v 1.06643327035926738 -3.46023224482864664 39.7483997255187944
v -0.17244333942221068 -3.56875329271376176 39.69319355691024496
v -1.50473658844563296 -3.39695834457234104 39.60344916231359488
v -2.36494382486000456 -2.55139966682641624 39.56036616790382256
v 0.00032117117706498277 0.00471595334578722 44.31511167328875444
v 1.46472482766913888 1.49634591754978888 43.80330137369089984
v 1.01339351998049664 1.56414107237669064 43.71439609902282088
v 0.00702885775326045 1.791826692562724 43.71913409519217456
v -0.75853538371639936 2.0965172529081837 43.78742492893724144
v -1.0462096643011467 1.96174229121914224 43.81610384059456464
v -1.327490238303648 1.02270920902394735 43.91934473161683168
v -1.65744468836264328 0.5131619520466408 44.03996543846638189
v -1.5682254001049056 -0.61580432605351024 44.17443337674185954
v -1.67263443167974656 -0.93639366244409312 44.23990118631004976
v -1.27170974742989528 -1.2200956541053838 44.29283384669727752
v -0.76127650912435392 -1.74375996827025232 44.33838884231293776
v -0.14600753497992258 -1.67039563069264576 44.40154490781394256
v 0.86513333598233536 -1.77030907708851616 44.409143656771036
v 1.20720440097819016 -1.75976982937337568 44.35032098674187752
v 1.37854371079625616 -1.37148416447925744 44.33197994728148216
v 1.59896350318710568 -0.29067113849185232 44.11388617433046022
v 2.03056078825580854 0.28119898055216728 43.98395760162301824
v 1.57823969945116008 0.88678270069443776 43.8557686365820416
v -2.95806377248144512 -2.97495577705360768 -13.05774446930101362
v -3.79274872693566672 -1.7829019621041144 -13.0577442358160063
v -4.1693886438566512 -0.37726022578117832 -13.05774403049302634
v -4.04255798709414371 1.07243120496922728 -13.05774387809639592
v -3.42755243802862888 2.39131744684886272 -13.05774379700770993
v -2.39854956495546288 3.42032031992202864 -13.05774379700770993
v -1.07966521968400997 4.03532666977766574 -13.05774387809608683
v 0.37002519954203096 4.16215901241411324 -13.05774403049240462
v 1.77566845315151408 3.7855179153813712 -13.05774423581569366
v 2.967721087989248 2.95083312951454416 -13.05774446930054467
v 3.802408234079592 1.75877746010371888 -13.0577447027860174
v 4.17904612795184694 0.3531337007320534 -13.05774490810899735
v 4.05221412249018709 -1.09655638131919986 -13.05774506050531514
v 3.43720697184442872 -2.4154415273807732 -13.05774514159369204
v 2.40820506814877608 -3.44444343107642496 -13.05774514159369559
v 1.08932101790526481 -4.05944948590412213 -13.05774506050531514
v -0.36036889555859376 -4.18628132277838728 -13.05774490810899735
v -1.7660114748185016 -3.80963955139606992 -13.05774470278570831
# 163 vertices

vn 0.39232547704028208 0.84134337748560512 -0.37178237033783624
vn 0.42261837757686352 0.90630774938025376 3.1557611098494356E-08
vn 0.7071066892332316 0.70710687313986344 4.3605297214750835E-09
vn 0.7071066892332316 0.70710687313986344 4.3605297214750835E-09
vn 0.65642197445036544 0.65642099940869144 -0.37178182601940424
vn 0.39232547704028208 0.84134337748560512 -0.37178237033783624
vn 0.08090867220032338 0.92478745726165296 -0.37178205662804512
vn 0.08715542588883396 0.99619467037422128 9.32533927356703E-08
vn 0.42261837757686352 0.90630774938025376 3.1557611098494356E-08
vn 0.42261837757686352 0.90630774938025376 3.1557611098494356E-08
vn 0.39232547704028208 0.84134337748560512 -0.37178237033783624
vn 0.08090867220032338 0.92478745726165296 -0.37178205662804512
vn -0.240266961457818 0.8966883640936496 -0.37178175464404656
vn -0.25881953987369256 0.96592573100436096 1.4113236984516456E-07
vn 0.08715542588883396 0.99619467037422128 9.32533927356703E-08
vn 0.08715542588883396 0.99619467037422128 9.32533927356703E-08
vn 0.08090867220032338 0.92478745726165296 -0.37178205662804512
vn -0.240266961457818 0.8966883640936496 -0.37178175464404656
vn -0.53246260120405144 0.760435136607144 -0.37178212410931008
vn -0.57357662997214232 0.81915190202293104 1.5502898557913543E-07
vn -0.25881953987369256 0.96592573100436096 1.4113236984516456E-07
vn -0.25881953987369256 0.96592573100436096 1.4113236984516456E-07
vn -0.240266961457818 0.8966883640936496 -0.37178175464404656
vn -0.53246260120405144 0.760435136607144 -0.37178212410931008
vn -0.76043508392357296 0.53246273818129888 -0.37178203470233328
vn -0.81915233402812368 0.57357611367324336 1.946948934825835E-07
vn -0.57357662997214232 0.81915190202293104 1.5502898557913543E-07
vn -0.57357662997214232 0.81915190202293104 1.5502898557913543E-07
vn -0.53246260120405144 0.760435136607144 -0.37178212410931008
vn -0.76043508392357296 0.53246273818129888 -0.37178203470233328
vn -0.89668838516707728 0.24026694038439732 -0.37178178444636904
vn -0.96592606817914032 0.25881819117453152 2.1570239830724926E-07
vn -0.81915233402812368 0.57357611367324336 1.946948934825835E-07
vn -0.81915233402812368 0.57357611367324336 1.946948934825835E-07
vn -0.76043508392357296 0.53246273818129888 -0.37178203470233328
vn -0.89668838516707728 0.24026694038439732 -0.37178178444636904
vn -0.92478754155532576 -0.08090833502555927 -0.37178184801174008
vn -0.99619458608051552 -0.08715584735732773 1.678936681756E-07
vn -0.96592606817914032 0.25881819117453152 2.1570239830724926E-07
vn -0.96592606817914032 0.25881819117453152 2.1570239830724926E-07
vn -0.89668838516707728 0.24026694038439732 -0.37178178444636904
vn -0.92478754155532576 -0.08090833502555927 -0.37178184801174008
vn -0.92478754155532576 -0.08090833502555927 -0.37178184801174008
vn -0.8413435039261576 -0.39232518201233544 -0.37178242994243272
vn -0.90630785474736768 -0.42261801932865824 9.31388559536028E-08
vn -0.90630785474736768 -0.42261801932865824 9.31388559536028E-08
vn -0.99619458608051552 -0.08715584735732773 1.678936681756E-07
vn -0.92478754155532576 -0.08090833502555927 -0.37178184801174008
vn -0.65642120475212584 -0.65642176910693104 -0.3717818260193572
vn -0.70710664368073208 -0.70710683439866592 1.6900325680547444E-08
vn -0.90630785474736768 -0.42261801932865824 9.31388559536028E-08
vn -0.90630785474736768 -0.42261801932865824 9.31388559536028E-08
vn -0.8413435039261576 -0.39232518201233544 -0.37178242994243272
vn -0.65642120475212584 -0.65642176910693104 -0.3717818260193572
vn -0.39232524659928168 -0.84134352363290848 -0.37178220557278528
vn -0.42261844079713864 -0.90630768615997856 -5.231912192001911E-08
vn -0.70710664368073208 -0.70710683439866592 1.6900325680547444E-08
vn -0.70710664368073208 -0.70710683439866592 1.6900325680547444E-08
vn -0.65642120475212584 -0.65642176910693104 -0.3717818260193572
vn -0.39232524659928168 -0.84134352363290848 -0.37178220557278528
vn -0.08090884215431526 -0.92478745589505488 -0.37178192323606544
vn -0.08715588950416786 -0.99619462822737232 -9.547665022441838E-08
vn -0.42261844079713864 -0.90630768615997856 -5.231912192001911E-08
vn -0.42261844079713864 -0.90630768615997856 -5.231912192001911E-08
vn -0.39232524659928168 -0.84134352363290848 -0.37178220557278528
vn -0.08090884215431526 -0.92478745589505488 -0.37178192323606544
vn 0.24026662291648716 -0.89668853131450048 -0.37178174838290584
vn 0.25881932913945448 -0.96592577315121392 -1.020714780674504E-07
vn -0.08715588950416786 -0.99619462822737232 -9.547665022441838E-08
vn -0.08715588950416786 -0.99619462822737232 -9.547665022441838E-08
vn -0.08090884215431526 -0.92478745589505488 -0.37178192323606544
vn 0.24026662291648716 -0.89668853131450048 -0.37178174838290584
vn 0.5324621256853872 -0.7604356093925712 -0.37178203456875424
vn 0.57357661943543816 -0.81915199685334832 -8.520290637903655E-08
vn 0.25881932913945448 -0.96592577315121392 -1.020714780674504E-07
vn 0.25881932913945448 -0.96592577315121392 -1.020714780674504E-07
vn 0.24026662291648716 -0.89668853131450048 -0.37178174838290584
vn 0.5324621256853872 -0.7604356093925712 -0.37178203456875424
vn 0.76043488235944816 -0.53246302130593184 -0.37178191535948408
vn 0.81915197577992576 -0.57357664050886424 -7.033045106441192E-08
vn 0.57357661943543816 -0.81915199685334832 -8.520290637903655E-08
vn 0.57357661943543816 -0.81915199685334832 -8.520290637903655E-08
vn 0.5324621256853872 -0.7604356093925712 -0.37178203456875424
vn 0.76043488235944816 -0.53246302130593184 -0.37178191535948408
vn 0.89668829950684416 -0.24026744478004324 -0.37178165897600656
vn 0.96592562563724976 -0.25881956094712712 -5.24084370812137E-08
vn 0.81915197577992576 -0.57357664050886424 -7.033045106441192E-08
vn 0.81915197577992576 -0.57357664050886424 -7.033045106441192E-08
vn 0.76043488235944816 -0.53246302130593184 -0.37178191535948408
vn 0.89668829950684416 -0.24026744478004324 -0.37178165897600656
vn 0.92478766662931136 0.08090778848308866 -0.37178180402692144
vn 0.99619483896161952 0.08715449865816227 -5.5651772162505886E-08
vn 0.96592562563724976 -0.25881956094712712 -5.24084370812137E-08
vn 0.96592562563724976 -0.25881956094712712 -5.24084370812137E-08
vn 0.89668829950684416 -0.24026744478004324 -0.37178165897600656
vn 0.92478766662931136 0.08090778848308866 -0.37178180402692144
vn 0.8413440083216904 0.39232442473571168 -0.3717819969566788
vn 0.9063080865550408 0.42261753463989416 -3.949182685374533E-08
vn 0.99619483896161952 0.08715449865816227 -5.5651772162505886E-08
vn 0.99619483896161952 0.08715449865816227 -5.5651772162505886E-08
vn 0.92478766662931136 0.08090778848308866 -0.37178180402692144
vn 0.8413440083216904 0.39232442473571168 -0.3717819969566788
vn 0.65642197445036544 0.65642099940869144 -0.37178182601940424
vn 0.7071066892332316 0.70710687313986344 4.3605297214750835E-09
vn 0.9063080865550408 0.42261753463989416 -3.949182685374533E-08
vn 0.9063080865550408 0.42261753463989416 -3.949182685374533E-08
vn 0.8413440083216904 0.39232442473571168 -0.3717819969566788
vn 0.65642197445036544 0.65642099940869144 -0.37178182601940424
vn 0.41246530764096936 0.03608585723725288 -0.91025827690700816
vn 0.39993300545654752 -0.1071618610306534 -0.91025811315179312
vn 0.3391623391357818 -0.23748439472897788 -0.91025824037361904
vn 0.3391623391357818 -0.23748439472897788 -0.91025824037361904
vn 0.23748382574650252 -0.33916244450288228 -0.9102584191875
vn 0.10716158707613138 -0.39993298438311616 -0.91025817275640384
vn 0.10716158707613138 -0.39993298438311616 -0.91025817275640384
vn -0.03608629977917588 -0.4124652865675312 -0.91025839611624448
vn -0.17498120743668954 -0.37524842868394248 -0.91025837582776064
vn 0.3391623391357818 -0.23748439472897788 -0.91025824037361904
vn 0.10716158707613138 -0.39993298438311616 -0.91025817275640384
vn -0.17498120743668954 -0.37524842868394248 -0.91025837582776064
vn -0.17498120743668954 -0.37524842868394248 -0.91025837582776064
vn -0.292773147572857 -0.29277512613141916 -0.91025632619881792
vn -0.37524710005176632 -0.17498177742559246 -0.91025874691799632
vn -0.37524710005176632 -0.17498177742559246 -0.91025874691799632
vn -0.41246513804707216 -0.03608585824375576 -0.9102583690013912
vn -0.3999326567385304 0.1071615755329094 -0.9102584135473704
vn -0.17498120743668954 -0.37524842868394248 -0.91025837582776064
vn -0.37524710005176632 -0.17498177742559246 -0.91025874691799632
vn -0.3999326567385304 0.1071615755329094 -0.9102584135473704
vn -0.3999326567385304 0.1071615755329094 -0.9102584135473704
vn -0.33916218534695964 0.23748412503632264 -0.9102584651394544
vn -0.2374840986945284 0.3391622116887264 -0.9102583459301648
vn -0.2374840986945284 0.3391622116887264 -0.9102583459301648
vn -0.1071618494873971 0.3999329306930184 -0.91025817512872816
vn 0.03608627971221356 0.4124648008723116 -0.91025860742005776
vn -0.3999326567385304 0.1071615755329094 -0.9102584135473704
vn -0.2374840986945284 0.3391622116887264 -0.9102583459301648
vn 0.03608627971221356 0.4124648008723116 -0.91025860742005776
vn -0.17498120743668954 -0.37524842868394248 -0.91025837582776064
vn -0.3999326567385304 0.1071615755329094 -0.9102584135473704
vn 0.03608627971221356 0.4124648008723116 -0.91025860742005776
vn 0.3391623391357818 -0.23748439472897788 -0.91025824037361904
vn -0.17498120743668954 -0.37524842868394248 -0.91025837582776064
vn 0.03608627971221356 0.4124648008723116 -0.91025860742005776
vn 0.03608627971221356 0.4124648008723116 -0.91025860742005776
vn 0.17498061838707326 0.37524370723064672 -0.9102603562436624
vn 0.29277216884182588 0.2927703307442046 -0.91025823354743456
vn 0.3391623391357818 -0.23748439472897788 -0.91025824037361904
vn 0.03608627971221356 0.4124648008723116 -0.91025860742005776
vn 0.29277216884182588 0.2927703307442046 -0.91025823354743456
vn 0.41246530764096936 0.03608585723725288 -0.91025827690700816
vn 0.3391623391357818 -0.23748439472897788 -0.91025824037361904
vn 0.29277216884182588 0.2927703307442046 -0.91025823354743456
vn 0.37524858673463832 0.1749811758265396 -0.91025825661849296
vn 0.41246530764096936 0.03608585723725288 -0.91025827690700816
vn 0.29277216884182588 0.2927703307442046 -0.91025823354743456
vn 0.17430290491665922 0.40906553378263344 0.89570304475685056
vn 0.0602261808035634 0.41754471979768512 0.90665827337600304
vn 0.01123655813673461 0.17124003480566688 0.9851652568132168
vn 0.65642197445036544 0.65642099940869144 -0.37178182601940424
vn 0.29277216884182588 0.2927703307442046 -0.91025823354743456
vn 0.17498061838707326 0.37524370723064672 -0.9102603562436624
vn 0.17498061838707326 0.37524370723064672 -0.9102603562436624
vn 0.39232547704028208 0.84134337748560512 -0.37178237033783624
vn 0.65642197445036544 0.65642099940869144 -0.37178182601940424
vn 0.39232547704028208 0.84134337748560512 -0.37178237033783624
vn 0.17498061838707326 0.37524370723064672 -0.9102603562436624
vn 0.03608627971221356 0.4124648008723116 -0.91025860742005776
vn 0.03608627971221356 0.4124648008723116 -0.91025860742005776
vn 0.08090867220032338 0.92478745726165296 -0.37178205662804512
vn 0.39232547704028208 0.84134337748560512 -0.37178237033783624
vn 0.08090867220032338 0.92478745726165296 -0.37178205662804512
vn 0.03608627971221356 0.4124648008723116 -0.91025860742005776
vn -0.1071618494873971 0.3999329306930184 -0.91025817512872816
vn -0.1071618494873971 0.3999329306930184 -0.91025817512872816
vn -0.240266961457818 0.8966883640936496 -0.37178175464404656
vn 0.08090867220032338 0.92478745726165296 -0.37178205662804512
vn -0.240266961457818 0.8966883640936496 -0.37178175464404656
vn -0.1071618494873971 0.3999329306930184 -0.91025817512872816
vn -0.2374840986945284 0.3391622116887264 -0.9102583459301648
vn -0.2374840986945284 0.3391622116887264 -0.9102583459301648
vn -0.53246260120405144 0.760435136607144 -0.37178212410931008
vn -0.240266961457818 0.8966883640936496 -0.37178175464404656
vn -0.53246260120405144 0.760435136607144 -0.37178212410931008
vn -0.2374840986945284 0.3391622116887264 -0.9102583459301648
vn -0.33916218534695964 0.23748412503632264 -0.9102584651394544
vn -0.33916218534695964 0.23748412503632264 -0.9102584651394544
vn -0.76043508392357296 0.53246273818129888 -0.37178203470233328
vn -0.53246260120405144 0.760435136607144 -0.37178212410931008
vn -0.76043508392357296 0.53246273818129888 -0.37178203470233328
vn -0.33916218534695964 0.23748412503632264 -0.9102584651394544
vn -0.3999326567385304 0.1071615755329094 -0.9102584135473704
vn -0.3999326567385304 0.1071615755329094 -0.9102584135473704
vn -0.89668838516707728 0.24026694038439732 -0.37178178444636904
vn -0.76043508392357296 0.53246273818129888 -0.37178203470233328
vn -0.89668838516707728 0.24026694038439732 -0.37178178444636904
vn -0.3999326567385304 0.1071615755329094 -0.9102584135473704
vn -0.41246513804707216 -0.03608585824375576 -0.9102583690013912
vn -0.41246513804707216 -0.03608585824375576 -0.9102583690013912
vn -0.92478754155532576 -0.08090833502555927 -0.37178184801174008
vn -0.89668838516707728 0.24026694038439732 -0.37178178444636904
vn -0.92478754155532576 -0.08090833502555927 -0.37178184801174008
vn -0.41246513804707216 -0.03608585824375576 -0.9102583690013912
vn -0.37524710005176632 -0.17498177742559246 -0.91025874691799632
vn -0.37524710005176632 -0.17498177742559246 -0.91025874691799632
vn -0.8413435039261576 -0.39232518201233544 -0.37178242994243272
vn -0.92478754155532576 -0.08090833502555927 -0.37178184801174008
vn -0.8413435039261576 -0.39232518201233544 -0.37178242994243272
vn -0.37524710005176632 -0.17498177742559246 -0.91025874691799632
vn -0.292773147572857 -0.29277512613141916 -0.91025632619881792
vn -0.292773147572857 -0.29277512613141916 -0.91025632619881792
vn -0.65642120475212584 -0.65642176910693104 -0.3717818260193572
vn -0.8413435039261576 -0.39232518201233544 -0.37178242994243272
vn -0.65642120475212584 -0.65642176910693104 -0.3717818260193572
vn -0.292773147572857 -0.29277512613141916 -0.91025632619881792
vn -0.17498120743668954 -0.37524842868394248 -0.91025837582776064
vn -0.17498120743668954 -0.37524842868394248 -0.91025837582776064
vn -0.39232524659928168 -0.84134352363290848 -0.37178220557278528
vn -0.65642120475212584 -0.65642176910693104 -0.3717818260193572
vn -0.39232524659928168 -0.84134352363290848 -0.37178220557278528
vn -0.17498120743668954 -0.37524842868394248 -0.91025837582776064
vn -0.03608629977917588 -0.4124652865675312 -0.91025839611624448
vn -0.03608629977917588 -0.4124652865675312 -0.91025839611624448
vn -0.08090884215431526 -0.92478745589505488 -0.37178192323606544
vn -0.39232524659928168 -0.84134352363290848 -0.37178220557278528
vn -0.08090884215431526 -0.92478745589505488 -0.37178192323606544
vn -0.03608629977917588 -0.4124652865675312 -0.91025839611624448
vn 0.10716158707613138 -0.39993298438311616 -0.91025817275640384
vn 0.10716158707613138 -0.39993298438311616 -0.91025817275640384
vn 0.24026662291648716 -0.89668853131450048 -0.37178174838290584
vn -0.08090884215431526 -0.92478745589505488 -0.37178192323606544
vn 0.24026662291648716 -0.89668853131450048 -0.37178174838290584
vn 0.10716158707613138 -0.39993298438311616 -0.91025817275640384
vn 0.23748382574650252 -0.33916244450288228 -0.9102584191875
vn 0.23748382574650252 -0.33916244450288228 -0.9102584191875
vn 0.5324621256853872 -0.7604356093925712 -0.37178203456875424
vn 0.24026662291648716 -0.89668853131450048 -0.37178174838290584
vn 0.5324621256853872 -0.7604356093925712 -0.37178203456875424
vn 0.23748382574650252 -0.33916244450288228 -0.9102584191875
vn 0.3391623391357818 -0.23748439472897788 -0.91025824037361904
vn 0.3391623391357818 -0.23748439472897788 -0.91025824037361904
vn 0.76043488235944816 -0.53246302130593184 -0.37178191535948408
vn 0.5324621256853872 -0.7604356093925712 -0.37178203456875424
vn 0.76043488235944816 -0.53246302130593184 -0.37178191535948408
vn 0.3391623391357818 -0.23748439472897788 -0.91025824037361904
vn 0.39993300545654752 -0.1071618610306534 -0.91025811315179312
vn 0.39993300545654752 -0.1071618610306534 -0.91025811315179312
vn 0.89668829950684416 -0.24026744478004324 -0.37178165897600656
vn 0.76043488235944816 -0.53246302130593184 -0.37178191535948408
vn 0.89668829950684416 -0.24026744478004324 -0.37178165897600656
vn 0.39993300545654752 -0.1071618610306534 -0.91025811315179312
vn 0.41246530764096936 0.03608585723725288 -0.91025827690700816
vn 0.41246530764096936 0.03608585723725288 -0.91025827690700816
vn 0.92478766662931136 0.08090778848308866 -0.37178180402692144
vn 0.89668829950684416 -0.24026744478004324 -0.37178165897600656
vn 0.92478766662931136 0.08090778848308866 -0.37178180402692144
vn 0.41246530764096936 0.03608585723725288 -0.91025827690700816
vn 0.37524858673463832 0.1749811758265396 -0.91025825661849296
vn 0.37524858673463832 0.1749811758265396 -0.91025825661849296
vn 0.8413440083216904 0.39232442473571168 -0.3717819969566788
vn 0.92478766662931136 0.08090778848308866 -0.37178180402692144
vn 0.8413440083216904 0.39232442473571168 -0.3717819969566788
vn 0.37524858673463832 0.1749811758265396 -0.91025825661849296
vn 0.29277216884182588 0.2927703307442046 -0.91025823354743456
vn 0.29277216884182588 0.2927703307442046 -0.91025823354743456
vn 0.65642197445036544 0.65642099940869144 -0.37178182601940424
vn 0.8413440083216904 0.39232442473571168 -0.3717819969566788
vn 0.45703341404548224 0.88779674190352368 0.05419706300307851
vn 0.75763010515136496 0.64618650404366848 0.09186739680795114
vn 0.69887144332842232 0.71227045672519872 0.06518831258399987
vn 0.69887144332842232 0.71227045672519872 0.06518831258399987
vn 0.4205355939377792 0.90444727387265872 0.07158889235806606
vn 0.45703341404548224 0.88779674190352368 0.05419706300307851
vn 0.07999544101937206 0.99541123870483488 0.0525100242669607
vn 0.45703341404548224 0.88779674190352368 0.05419706300307851
vn 0.4205355939377792 0.90444727387265872 0.07158889235806606
vn 0.4205355939377792 0.90444727387265872 0.07158889235806606
vn 0.05130849299362295 0.9896552763652992 0.13397758088186242
vn 0.07999544101937206 0.99541123870483488 0.0525100242669607
vn -0.18566764910166324 0.9800425147031096 0.07102332282391405
vn 0.07999544101937206 0.99541123870483488 0.0525100242669607
vn 0.05130849299362295 0.9896552763652992 0.13397758088186242
vn 0.05130849299362295 0.9896552763652992 0.13397758088186242
vn -0.25289165545997892 0.95931304459604224 0.1255562360833876
vn -0.18566764910166324 0.9800425147031096 0.07102332282391405
vn -0.6205335719349988 0.78288153598830992 0.04510685577896299
vn -0.18566764910166324 0.9800425147031096 0.07102332282391405
vn -0.25289165545997892 0.95931304459604224 0.1255562360833876
vn -0.25289165545997892 0.95931304459604224 0.1255562360833876
vn -0.60115773570013744 0.79086253423558176 0.11465486529236298
vn -0.6205335719349988 0.78288153598830992 0.04510685577896299
vn -0.81008535667753392 0.57968832381385224 0.08788156873695376
vn -0.6205335719349988 0.78288153598830992 0.04510685577896299
vn -0.60115773570013744 0.79086253423558176 0.11465486529236298
vn -0.60115773570013744 0.79086253423558176 0.11465486529236298
vn -0.80578965949689456 0.57524072939117944 0.14071654791950724
vn -0.81008535667753392 0.57968832381385224 0.08788156873695376
vn -0.94992462652634864 0.29670191681140288 0.09803638812587438
vn -0.81008535667753392 0.57968832381385224 0.08788156873695376
vn -0.80578965949689456 0.57524072939117944 0.14071654791950724
vn -0.80578965949689456 0.57524072939117944 0.14071654791950724
vn -0.96392412117238816 0.237482473231468 0.12021770012662912
vn -0.94992462652634864 0.29670191681140288 0.09803638812587438
vn -0.9932130644824328 -0.06129223442194864 0.09884864397004538
vn -0.94992462652634864 0.29670191681140288 0.09803638812587438
vn -0.96392412117238816 0.237482473231468 0.12021770012662912
vn -0.96392412117238816 0.237482473231468 0.12021770012662912
vn -0.9847079082098288 -0.07837098691233568 0.15559057901767748
vn -0.9932130644824328 -0.06129223442194864 0.09884864397004538
vn -0.86913912874051504 -0.48632147392730264 0.08993729143739349
vn -0.9932130644824328 -0.06129223442194864 0.09884864397004538
vn -0.9847079082098288 -0.07837098691233568 0.15559057901767748
vn -0.9847079082098288 -0.07837098691233568 0.15559057901767748
vn -0.89960552677612752 -0.42854240077008424 0.08403045150391274
vn -0.86913912874051504 -0.48632147392730264 0.08993729143739349
vn -0.6943796955684052 -0.7078200762240536 0.12972132706778084
vn -0.86913912874051504 -0.48632147392730264 0.08993729143739349
vn -0.89960552677612752 -0.42854240077008424 0.08403045150391274
vn -0.89960552677612752 -0.42854240077008424 0.08403045150391274
vn -0.72623155181377632 -0.66987142546049064 0.15446668022462306
vn -0.6943796955684052 -0.7078200762240536 0.12972132706778084
vn -0.41218714331388864 -0.90085282491510832 0.1362565490913159
vn -0.6943796955684052 -0.7078200762240536 0.12972132706778084
vn -0.72623155181377632 -0.66987142546049064 0.15446668022462306
vn -0.72623155181377632 -0.66987142546049064 0.15446668022462306
vn -0.40724726356926632 -0.90845630119192192 0.09411008842445174
vn -0.41218714331388864 -0.90085282491510832 0.1362565490913159
vn -0.03155221012703757 -0.98920408412594256 0.14310712510795618
vn -0.41218714331388864 -0.90085282491510832 0.1362565490913159
vn -0.40724726356926632 -0.90845630119192192 0.09411008842445174
vn -0.40724726356926632 -0.90845630119192192 0.09411008842445174
vn -0.09790054189869158 -0.98946749772660416 0.10662755529894948
vn -0.03155221012703757 -0.98920408412594256 0.14310712510795618
vn 0.25272053232580192 -0.9506206716299328 0.18014616812546356
vn -0.03155221012703757 -0.98920408412594256 0.14310712510795618
vn -0.09790054189869158 -0.98946749772660416 0.10662755529894948
vn -0.09790054189869158 -0.98946749772660416 0.10662755529894948
vn 0.23663046117317688 -0.96308981079047152 0.12831206209729012
vn 0.25272053232580192 -0.9506206716299328 0.18014616812546356
vn 0.40784936319481856 -0.89457377170632768 0.1827468563741576
vn 0.25272053232580192 -0.9506206716299328 0.18014616812546356
vn 0.23663046117317688 -0.96308981079047152 0.12831206209729012
vn 0.23663046117317688 -0.96308981079047152 0.12831206209729012
vn 0.55067372467085328 -0.8316198542505912 0.07188116480938564
vn 0.40784936319481856 -0.89457377170632768 0.1827468563741576
vn 0.80640634977084528 -0.58051917721179888 0.11272171553290856
vn 0.40784936319481856 -0.89457377170632768 0.1827468563741576
vn 0.55067372467085328 -0.8316198542505912 0.07188116480938564
vn 0.55067372467085328 -0.8316198542505912 0.07188116480938564
vn 0.82653331477749744 -0.56212839024543616 0.02922830751720091
vn 0.80640634977084528 -0.58051917721179888 0.11272171553290856
vn 0.95700633760107472 -0.24599869699745012 0.15369927435296494
vn 0.80640634977084528 -0.58051917721179888 0.11272171553290856
vn 0.82653331477749744 -0.56212839024543616 0.02922830751720091
vn 0.82653331477749744 -0.56212839024543616 0.02922830751720091
vn 0.94898793595562384 -0.29808212279701908 0.1028053143438816
vn 0.95700633760107472 -0.24599869699745012 0.15369927435296494
vn 0.98991729284317632 0.01444176999664026 0.14090866533673516
vn 0.95700633760107472 -0.24599869699745012 0.15369927435296494
vn 0.94898793595562384 -0.29808212279701908 0.1028053143438816
vn 0.94898793595562384 -0.29808212279701908 0.1028053143438816
vn 0.99217340537364512 0.1039926202909055 0.06911914994401448
vn 0.98991729284317632 0.01444176999664026 0.14090866533673516
vn 0.91029245392693904 0.39281746391180008 0.13062164186464106
vn 0.98991729284317632 0.01444176999664026 0.14090866533673516
vn 0.99217340537364512 0.1039926202909055 0.06911914994401448
vn 0.99217340537364512 0.1039926202909055 0.06911914994401448
vn 0.90576020837975408 0.41519712963571128 0.08491084288670799
vn 0.91029245392693904 0.39281746391180008 0.13062164186464106
vn 0.75763010515136496 0.64618650404366848 0.09186739680795114
vn 0.91029245392693904 0.39281746391180008 0.13062164186464106
vn 0.90576020837975408 0.41519712963571128 0.08491084288670799
vn 0.90576020837975408 0.41519712963571128 0.08491084288670799
vn 0.69887144332842232 0.71227045672519872 0.06518831258399987
vn 0.75763010515136496 0.64618650404366848 0.09186739680795114
vn 0.29052930353760144 0.68956581861449352 0.6633941990880744
vn 0.55846128376776024 0.58427650373914616 0.58884799777836352
vn 0.73914631530296064 0.67036551323765304 -0.06536567258463927
vn 0.73914631530296064 0.67036551323765304 -0.06536567258463927
vn 0.43536836113327472 0.89813997119394672 -0.06163578737181349
vn 0.29052930353760144 0.68956581861449352 0.6633941990880744
vn 0.14600293083903626 0.75909406602404528 0.63439692169230376
vn 0.29052930353760144 0.68956581861449352 0.6633941990880744
vn 0.43536836113327472 0.89813997119394672 -0.06163578737181349
vn 0.43536836113327472 0.89813997119394672 -0.06163578737181349
vn 0.09482980356470028 0.98632503194681648 -0.13479699355012534
vn 0.14600293083903626 0.75909406602404528 0.63439692169230376
vn -0.24184359016459268 0.80070426865752848 0.54807335227785816
vn 0.14600293083903626 0.75909406602404528 0.63439692169230376
vn 0.09482980356470028 0.98632503194681648 -0.13479699355012534
vn 0.09482980356470028 0.98632503194681648 -0.13479699355012534
vn -0.23156155085965956 0.95450391455611424 -0.18788717434426068
vn -0.24184359016459268 0.80070426865752848 0.54807335227785816
vn -0.47718922174358304 0.60506499390860632 0.63732785533387416
vn -0.24184359016459268 0.80070426865752848 0.54807335227785816
vn -0.23156155085965956 0.95450391455611424 -0.18788717434426068
vn -0.23156155085965956 0.95450391455611424 -0.18788717434426068
vn -0.62463061415464752 0.77571690867571168 -0.08999922385480816
vn -0.47718922174358304 0.60506499390860632 0.63732785533387416
vn -0.4885806644156544 0.4801357365994744 0.72853177024783024
vn -0.47718922174358304 0.60506499390860632 0.63732785533387416
vn -0.62463061415464752 0.77571690867571168 -0.08999922385480816
vn -0.62463061415464752 0.77571690867571168 -0.08999922385480816
vn -0.8317084601656432 0.5469651313427408 -0.09534223886342562
vn -0.4885806644156544 0.4801357365994744 0.72853177024783024
vn -0.64366162314409344 0.41622441593736184 0.64222806981328272
vn -0.4885806644156544 0.4801357365994744 0.72853177024783024
vn -0.8317084601656432 0.5469651313427408 -0.09534223886342562
vn -0.8317084601656432 0.5469651313427408 -0.09534223886342562
vn -0.89804908935588384 0.42034102970576496 -0.12969644080696308
vn -0.64366162314409344 0.41622441593736184 0.64222806981328272
vn -0.8360810724219336 -0.18229459923975712 0.51743318221698616
vn -0.64366162314409344 0.41622441593736184 0.64222806981328272
vn -0.89804908935588384 0.42034102970576496 -0.12969644080696308
vn -0.89804908935588384 0.42034102970576496 -0.12969644080696308
vn -0.96657431238659312 -0.12670650861629574 -0.2228890285924218
vn -0.8360810724219336 -0.18229459923975712 0.51743318221698616
vn -0.6617925509441164 -0.32772972540180444 0.67425797257829648
vn -0.8360810724219336 -0.18229459923975712 0.51743318221698616
vn -0.96657431238659312 -0.12670650861629574 -0.2228890285924218
vn -0.96657431238659312 -0.12670650861629574 -0.2228890285924218
vn -0.8744189519311728 -0.4699370519720856 -0.12062639553712918
vn -0.6617925509441164 -0.32772972540180444 0.67425797257829648
vn -0.53672241869316408 -0.44834746457606592 0.7147822481876008
vn -0.6617925509441164 -0.32772972540180444 0.67425797257829648
vn -0.8744189519311728 -0.4699370519720856 -0.12062639553712918
vn -0.8744189519311728 -0.4699370519720856 -0.12062639553712918
vn -0.6631600562394824 -0.74040215457793952 -0.1096507548863626
vn -0.53672241869316408 -0.44834746457606592 0.7147822481876008
vn -0.45341784459431608 -0.61029106161938928 0.64958218913076152
vn -0.53672241869316408 -0.44834746457606592 0.7147822481876008
vn -0.6631600562394824 -0.74040215457793952 -0.1096507548863626
vn -0.6631600562394824 -0.74040215457793952 -0.1096507548863626
vn -0.49152256901092392 -0.86006507545353056 -0.13672439529356226
vn -0.45341784459431608 -0.61029106161938928 0.64958218913076152
vn 0.00088797564191489 -0.80730790478559264 0.59012987839817944
vn -0.45341784459431608 -0.61029106161938928 0.64958218913076152
vn -0.49152256901092392 -0.86006507545353056 -0.13672439529356226
vn -0.49152256901092392 -0.86006507545353056 -0.13672439529356226
vn 0.00283216863325563 -0.991145673363884 -0.13274894184677308
vn 0.00088797564191489 -0.80730790478559264 0.59012987839817944
vn 0.20893025006451892 -0.66794251562423624 0.71428360373992376
vn 0.00088797564191489 -0.80730790478559264 0.59012987839817944
vn 0.00283216863325563 -0.991145673363884 -0.13274894184677308
vn 0.00283216863325563 -0.991145673363884 -0.13274894184677308
vn 0.24962629053073704 -0.9643191672744576 -0.08817861803069538
vn 0.20893025006451892 -0.66794251562423624 0.71428360373992376
vn 0.35722370929701596 -0.65854010618506952 0.66235643844354512
vn 0.20893025006451892 -0.66794251562423624 0.71428360373992376
vn 0.24962629053073704 -0.9643191672744576 -0.08817861803069538
vn 0.24962629053073704 -0.9643191672744576 -0.08817861803069538
vn 0.38729901435666832 -0.91853390879041104 -0.07933984839202107
vn 0.35722370929701596 -0.65854010618506952 0.66235643844354512
vn 0.6872720042767604 -0.43087323186755592 0.5848124527262376
vn 0.35722370929701596 -0.65854010618506952 0.66235643844354512
vn 0.38729901435666832 -0.91853390879041104 -0.07933984839202107
vn 0.38729901435666832 -0.91853390879041104 -0.07933984839202107
vn 0.78549108256246896 -0.61580555238094136 -0.06154032176077268
vn 0.6872720042767604 -0.43087323186755592 0.5848124527262376
vn 0.7522613046637896 -0.0229743229798991 0.6584642232444724
vn 0.6872720042767604 -0.43087323186755592 0.5848124527262376
vn 0.78549108256246896 -0.61580555238094136 -0.06154032176077268
vn 0.78549108256246896 -0.61580555238094136 -0.06154032176077268
vn 0.97120807464327792 -0.233953399835797 -0.04495279591113345
vn 0.7522613046637896 -0.0229743229798991 0.6584642232444724
vn 0.80715950124432512 0.21142184703809852 0.55117528728090296
vn 0.7522613046637896 -0.0229743229798991 0.6584642232444724
vn 0.97120807464327792 -0.233953399835797 -0.04495279591113345
vn 0.97120807464327792 -0.233953399835797 -0.04495279591113345
vn 0.99763595955902432 0.03803197399080693 -0.05723613007055688
vn 0.80715950124432512 0.21142184703809852 0.55117528728090296
vn 0.58810458648966304 0.48208397621410704 0.6494058844498544
vn 0.80715950124432512 0.21142184703809852 0.55117528728090296
vn 0.99763595955902432 0.03803197399080693 -0.05723613007055688
vn 0.99763595955902432 0.03803197399080693 -0.05723613007055688
vn 0.91051279801913312 0.41055437468355152 -0.0491077693585602
vn 0.58810458648966304 0.48208397621410704 0.6494058844498544
vn 0.55846128376776024 0.58427650373914616 0.58884799777836352
vn 0.58810458648966304 0.48208397621410704 0.6494058844498544
vn 0.91051279801913312 0.41055437468355152 -0.0491077693585602
vn 0.91051279801913312 0.41055437468355152 -0.0491077693585602
vn 0.73914631530296064 0.67036551323765304 -0.06536567258463927
vn 0.55846128376776024 0.58427650373914616 0.58884799777836352
vn 0.55846128376776024 0.58427650373914616 0.58884799777836352
vn 0.29052930353760144 0.68956581861449352 0.6633941990880744
vn 0.02278052461317492 0.27143469728324752 0.96218714002326624
vn 0.02278052461317492 0.27143469728324752 0.96218714002326624
vn -0.00459414043161177 0.16255670382394006 0.98668857354313472
vn 0.55846128376776024 0.58427650373914616 0.58884799777836352
vn 0.29052930353760144 0.68956581861449352 0.6633941990880744
vn 0.14600293083903626 0.75909406602404528 0.63439692169230376
vn 0.11339330863365498 0.26506103011573388 0.95754088718531568
vn 0.11339330863365498 0.26506103011573388 0.95754088718531568
vn 0.02278052461317492 0.27143469728324752 0.96218714002326624
vn 0.29052930353760144 0.68956581861449352 0.6633941990880744
vn 0.14600293083903626 0.75909406602404528 0.63439692169230376
vn -0.24184359016459268 0.80070426865752848 0.54807335227785816
vn 0.07763595640492657 0.19004156554688424 0.97870172365038864
vn 0.07763595640492657 0.19004156554688424 0.97870172365038864
vn 0.11339330863365498 0.26506103011573388 0.95754088718531568
vn 0.14600293083903626 0.75909406602404528 0.63439692169230376
vn -0.24184359016459268 0.80070426865752848 0.54807335227785816
vn -0.47718922174358304 0.60506499390860632 0.63732785533387416
vn 0.01010754434464226 0.16202896205505118 0.98673422894656752
vn 0.01010754434464226 0.16202896205505118 0.98673422894656752
vn 0.07763595640492657 0.19004156554688424 0.97870172365038864
vn -0.24184359016459268 0.80070426865752848 0.54807335227785816
vn -0.47718922174358304 0.60506499390860632 0.63732785533387416
vn -0.4885806644156544 0.4801357365994744 0.72853177024783024
vn -0.10056030336609706 0.2080622994976664 0.9729325530825864
vn -0.10056030336609706 0.2080622994976664 0.9729325530825864
vn 0.01010754434464226 0.16202896205505118 0.98673422894656752
vn -0.47718922174358304 0.60506499390860632 0.63732785533387416
vn -0.4885806644156544 0.4801357365994744 0.72853177024783024
vn -0.64366162314409344 0.41622441593736184 0.64222806981328272
vn -0.04601872913311045 0.16642265531056188 0.98498007122286816
vn -0.04601872913311045 0.16642265531056188 0.98498007122286816
vn -0.10056030336609706 0.2080622994976664 0.9729325530825864
vn -0.4885806644156544 0.4801357365994744 0.72853177024783024
vn -0.64366162314409344 0.41622441593736184 0.64222806981328272
vn -0.8360810724219336 -0.18229459923975712 0.51743318221698616
vn -0.16493415932131802 0.15699951393677148 0.97372887267025184
vn -0.16493415932131802 0.15699951393677148 0.97372887267025184
vn -0.04601872913311045 0.16642265531056188 0.98498007122286816
vn -0.64366162314409344 0.41622441593736184 0.64222806981328272
vn -0.8360810724219336 -0.18229459923975712 0.51743318221698616
vn -0.6617925509441164 -0.32772972540180444 0.67425797257829648
vn -0.0212014274224114 0.20555414517942684 0.97841605176136112
vn -0.0212014274224114 0.20555414517942684 0.97841605176136112
vn -0.16493415932131802 0.15699951393677148 0.97372887267025184
vn -0.8360810724219336 -0.18229459923975712 0.51743318221698616
vn -0.6617925509441164 -0.32772972540180444 0.67425797257829648
vn -0.53672241869316408 -0.44834746457606592 0.7147822481876008
vn -0.07995489227107558 0.0560704918567284 0.9952202596012696
vn -0.07995489227107558 0.0560704918567284 0.9952202596012696
vn -0.0212014274224114 0.20555414517942684 0.97841605176136112
vn -0.6617925509441164 -0.32772972540180444 0.67425797257829648
vn -0.53672241869316408 -0.44834746457606592 0.7147822481876008
vn -0.45341784459431608 -0.61029106161938928 0.64958218913076152
vn -0.05893297101456714 0.14487671715555652 0.9876930948447184
vn -0.05893297101456714 0.14487671715555652 0.9876930948447184
vn -0.07995489227107558 0.0560704918567284 0.9952202596012696
vn -0.53672241869316408 -0.44834746457606592 0.7147822481876008
vn -0.45341784459431608 -0.61029106161938928 0.64958218913076152
vn 0.00088797564191489 -0.80730790478559264 0.59012987839817944
vn -0.02222807148617663 -0.00054180293450454 0.99975270282714864
vn -0.02222807148617663 -0.00054180293450454 0.99975270282714864
vn -0.05893297101456714 0.14487671715555652 0.9876930948447184
vn -0.45341784459431608 -0.61029106161938928 0.64958218913076152
vn 0.00088797564191489 -0.80730790478559264 0.59012987839817944
vn 0.20893025006451892 -0.66794251562423624 0.71428360373992376
vn 0.02412358687809371 0.04519905959551065 0.99868661408033088
vn 0.02412358687809371 0.04519905959551065 0.99868661408033088
vn -0.02222807148617663 -0.00054180293450454 0.99975270282714864
vn 0.00088797564191489 -0.80730790478559264 0.59012987839817944
vn 0.20893025006451892 -0.66794251562423624 0.71428360373992376
vn 0.35722370929701596 -0.65854010618506952 0.66235643844354512
vn -0.00346192321635113 0.15820780752019162 0.98739977553315776
vn -0.00346192321635113 0.15820780752019162 0.98739977553315776
vn 0.02412358687809371 0.04519905959551065 0.99868661408033088
vn 0.20893025006451892 -0.66794251562423624 0.71428360373992376
vn 0.35722370929701596 -0.65854010618506952 0.66235643844354512
vn 0.6872720042767604 -0.43087323186755592 0.5848124527262376
vn 0.13608343356893222 0.14682123898768248 0.97975760822021792
vn 0.13608343356893222 0.14682123898768248 0.97975760822021792
vn -0.00346192321635113 0.15820780752019162 0.98739977553315776
vn 0.35722370929701596 -0.65854010618506952 0.66235643844354512
vn 0.6872720042767604 -0.43087323186755592 0.5848124527262376
vn 0.7522613046637896 -0.0229743229798991 0.6584642232444724
vn 0.18190944294036212 0.12678777327919164 0.97510712703838816
vn 0.18190944294036212 0.12678777327919164 0.97510712703838816
vn 0.13608343356893222 0.14682123898768248 0.97975760822021792
vn 0.6872720042767604 -0.43087323186755592 0.5848124527262376
vn 0.7522613046637896 -0.0229743229798991 0.6584642232444724
vn 0.80715950124432512 0.21142184703809852 0.55117528728090296
vn 0.00281482721577941 0.18752046709996336 0.98225673180785856
vn 0.00281482721577941 0.18752046709996336 0.98225673180785856
vn 0.18190944294036212 0.12678777327919164 0.97510712703838816
vn 0.7522613046637896 -0.0229743229798991 0.6584642232444724
vn 0.80715950124432512 0.21142184703809852 0.55117528728090296
vn 0.58810458648966304 0.48208397621410704 0.6494058844498544
vn 0.16049524368165576 0.2361465560182452 0.95837152875763888
vn 0.16049524368165576 0.2361465560182452 0.95837152875763888
vn 0.00281482721577941 0.18752046709996336 0.98225673180785856
vn 0.80715950124432512 0.21142184703809852 0.55117528728090296
vn 0.58810458648966304 0.48208397621410704 0.6494058844498544
vn 0.55846128376776024 0.58427650373914616 0.58884799777836352
vn -0.00459414043161177 0.16255670382394006 0.98668857354313472
vn -0.00459414043161177 0.16255670382394006 0.98668857354313472
vn 0.16049524368165576 0.2361465560182452 0.95837152875763888
vn 0.58810458648966304 0.48208397621410704 0.6494058844498544
vn 0.45703341404548224 0.88779674190352368 0.05419706300307851
vn 0.43536836113327472 0.89813997119394672 -0.06163578737181349
vn 0.73914631530296064 0.67036551323765304 -0.06536567258463927
vn 0.73914631530296064 0.67036551323765304 -0.06536567258463927
vn 0.75763010515136496 0.64618650404366848 0.09186739680795114
vn 0.45703341404548224 0.88779674190352368 0.05419706300307851
vn 0.07999544101937206 0.99541123870483488 0.0525100242669607
vn 0.09482980356470028 0.98632503194681648 -0.13479699355012534
vn 0.43536836113327472 0.89813997119394672 -0.06163578737181349
vn 0.43536836113327472 0.89813997119394672 -0.06163578737181349
vn 0.45703341404548224 0.88779674190352368 0.05419706300307851
vn 0.07999544101937206 0.99541123870483488 0.0525100242669607
vn -0.18566764910166324 0.9800425147031096 0.07102332282391405
vn -0.23156155085965956 0.95450391455611424 -0.18788717434426068
vn 0.09482980356470028 0.98632503194681648 -0.13479699355012534
vn 0.09482980356470028 0.98632503194681648 -0.13479699355012534
vn 0.07999544101937206 0.99541123870483488 0.0525100242669607
vn -0.18566764910166324 0.9800425147031096 0.07102332282391405
vn -0.6205335719349988 0.78288153598830992 0.04510685577896299
vn -0.62463061415464752 0.77571690867571168 -0.08999922385480816
vn -0.23156155085965956 0.95450391455611424 -0.18788717434426068
vn -0.23156155085965956 0.95450391455611424 -0.18788717434426068
vn -0.18566764910166324 0.9800425147031096 0.07102332282391405
vn -0.6205335719349988 0.78288153598830992 0.04510685577896299
vn -0.81008535667753392 0.57968832381385224 0.08788156873695376
vn -0.8317084601656432 0.5469651313427408 -0.09534223886342562
vn -0.62463061415464752 0.77571690867571168 -0.08999922385480816
vn -0.62463061415464752 0.77571690867571168 -0.08999922385480816
vn -0.6205335719349988 0.78288153598830992 0.04510685577896299
vn -0.81008535667753392 0.57968832381385224 0.08788156873695376
vn -0.94992462652634864 0.29670191681140288 0.09803638812587438
vn -0.89804908935588384 0.42034102970576496 -0.12969644080696308
vn -0.8317084601656432 0.5469651313427408 -0.09534223886342562
vn -0.8317084601656432 0.5469651313427408 -0.09534223886342562
vn -0.81008535667753392 0.57968832381385224 0.08788156873695376
vn -0.94992462652634864 0.29670191681140288 0.09803638812587438
vn -0.9932130644824328 -0.06129223442194864 0.09884864397004538
vn -0.96657431238659312 -0.12670650861629574 -0.2228890285924218
vn -0.89804908935588384 0.42034102970576496 -0.12969644080696308
vn -0.89804908935588384 0.42034102970576496 -0.12969644080696308
vn -0.94992462652634864 0.29670191681140288 0.09803638812587438
vn -0.9932130644824328 -0.06129223442194864 0.09884864397004538
vn -0.86913912874051504 -0.48632147392730264 0.08993729143739349
vn -0.8744189519311728 -0.4699370519720856 -0.12062639553712918
vn -0.96657431238659312 -0.12670650861629574 -0.2228890285924218
vn -0.96657431238659312 -0.12670650861629574 -0.2228890285924218
vn -0.9932130644824328 -0.06129223442194864 0.09884864397004538
vn -0.86913912874051504 -0.48632147392730264 0.08993729143739349
vn -0.6943796955684052 -0.7078200762240536 0.12972132706778084
vn -0.6631600562394824 -0.74040215457793952 -0.1096507548863626
vn -0.8744189519311728 -0.4699370519720856 -0.12062639553712918
vn -0.8744189519311728 -0.4699370519720856 -0.12062639553712918
vn -0.86913912874051504 -0.48632147392730264 0.08993729143739349
vn -0.6943796955684052 -0.7078200762240536 0.12972132706778084
vn -0.41218714331388864 -0.90085282491510832 0.1362565490913159
vn -0.49152256901092392 -0.86006507545353056 -0.13672439529356226
vn -0.6631600562394824 -0.74040215457793952 -0.1096507548863626
vn -0.6631600562394824 -0.74040215457793952 -0.1096507548863626
vn -0.6943796955684052 -0.7078200762240536 0.12972132706778084
vn -0.41218714331388864 -0.90085282491510832 0.1362565490913159
vn -0.03155221012703757 -0.98920408412594256 0.14310712510795618
vn 0.00283216863325563 -0.991145673363884 -0.13274894184677308
vn -0.49152256901092392 -0.86006507545353056 -0.13672439529356226
vn -0.49152256901092392 -0.86006507545353056 -0.13672439529356226
vn -0.41218714331388864 -0.90085282491510832 0.1362565490913159
vn -0.03155221012703757 -0.98920408412594256 0.14310712510795618
vn 0.25272053232580192 -0.9506206716299328 0.18014616812546356
vn 0.24962629053073704 -0.9643191672744576 -0.08817861803069538
vn 0.00283216863325563 -0.991145673363884 -0.13274894184677308
vn 0.00283216863325563 -0.991145673363884 -0.13274894184677308
vn -0.03155221012703757 -0.98920408412594256 0.14310712510795618
vn 0.25272053232580192 -0.9506206716299328 0.18014616812546356
vn 0.40784936319481856 -0.89457377170632768 0.1827468563741576
vn 0.38729901435666832 -0.91853390879041104 -0.07933984839202107
vn 0.24962629053073704 -0.9643191672744576 -0.08817861803069538
vn 0.24962629053073704 -0.9643191672744576 -0.08817861803069538
vn 0.25272053232580192 -0.9506206716299328 0.18014616812546356
vn 0.40784936319481856 -0.89457377170632768 0.1827468563741576
vn 0.80640634977084528 -0.58051917721179888 0.11272171553290856
vn 0.78549108256246896 -0.61580555238094136 -0.06154032176077268
vn 0.38729901435666832 -0.91853390879041104 -0.07933984839202107
vn 0.38729901435666832 -0.91853390879041104 -0.07933984839202107
vn 0.40784936319481856 -0.89457377170632768 0.1827468563741576
vn 0.80640634977084528 -0.58051917721179888 0.11272171553290856
vn 0.95700633760107472 -0.24599869699745012 0.15369927435296494
vn 0.97120807464327792 -0.233953399835797 -0.04495279591113345
vn 0.78549108256246896 -0.61580555238094136 -0.06154032176077268
vn 0.78549108256246896 -0.61580555238094136 -0.06154032176077268
vn 0.80640634977084528 -0.58051917721179888 0.11272171553290856
vn 0.95700633760107472 -0.24599869699745012 0.15369927435296494
vn 0.98991729284317632 0.01444176999664026 0.14090866533673516
vn 0.99763595955902432 0.03803197399080693 -0.05723613007055688
vn 0.97120807464327792 -0.233953399835797 -0.04495279591113345
vn 0.97120807464327792 -0.233953399835797 -0.04495279591113345
vn 0.95700633760107472 -0.24599869699745012 0.15369927435296494
vn 0.98991729284317632 0.01444176999664026 0.14090866533673516
vn 0.91029245392693904 0.39281746391180008 0.13062164186464106
vn 0.91051279801913312 0.41055437468355152 -0.0491077693585602
vn 0.99763595955902432 0.03803197399080693 -0.05723613007055688
vn 0.99763595955902432 0.03803197399080693 -0.05723613007055688
vn 0.98991729284317632 0.01444176999664026 0.14090866533673516
vn 0.91029245392693904 0.39281746391180008 0.13062164186464106
vn 0.75763010515136496 0.64618650404366848 0.09186739680795114
vn 0.73914631530296064 0.67036551323765304 -0.06536567258463927
vn 0.91051279801913312 0.41055437468355152 -0.0491077693585602
vn 0.91051279801913312 0.41055437468355152 -0.0491077693585602
vn 0.91029245392693904 0.39281746391180008 0.13062164186464106
vn 0.75763010515136496 0.64618650404366848 0.09186739680795114
vn -0.25914139075235452 0.198275862412317 0.94526850486305184
vn -0.2503973979114882 0.08710165660228802 0.96421698643622848
vn 0.01123655813673461 0.17124003480566688 0.9851652568132168
vn 0.08974598451357234 -0.05934518082561527 0.99419514607433472
vn 0.15561943337280116 -0.06045674900634199 0.985965286634788
vn 0.01123655813673461 0.17124003480566688 0.9851652568132168
vn 0.0602261808035634 0.41754471979768512 0.90665827337600304
vn -0.1954408931123534 0.30678642894702524 0.93149596278024992
vn 0.01123655813673461 0.17124003480566688 0.9851652568132168
vn -0.05236651239005473 -0.06318432008520106 0.99662703151058208
vn 0.08974598451357234 -0.05934518082561527 0.99419514607433472
vn 0.01123655813673461 0.17124003480566688 0.9851652568132168
vn 0.01123655813673461 0.17124003480566688 0.9851652568132168
vn 0.00882135225624247 0.47843634032947472 0.87807791874765904
vn 0.17430290491665922 0.40906553378263344 0.89570304475685056
vn -0.13152871009690332 -0.08084980745852255 0.98800981628603312
vn -0.05236651239005473 -0.06318432008520106 0.99662703151058208
vn 0.01123655813673461 0.17124003480566688 0.9851652568132168
vn 0.01123655813673461 0.17124003480566688 0.9851652568132168
vn 0.15775268180391384 0.38927438388576944 0.90751281067606048
vn 0.00882135225624247 0.47843634032947472 0.87807791874765904
vn 0.01123655813673461 0.17124003480566688 0.9851652568132168
vn 0.23927323885493736 0.0962519426549226 0.96616975805594592
vn 0.26866510747212004 0.19922602392914432 0.94240551387012848
vn 0.01123655813673461 0.17124003480566688 0.9851652568132168
vn 0.26070502817902604 0.24266683758525532 0.9344226101122176
vn 0.15775268180391384 0.38927438388576944 0.90751281067606048
vn 0.26866510747212004 0.19922602392914432 0.94240551387012848
vn 0.26070502817902604 0.24266683758525532 0.9344226101122176
vn 0.01123655813673461 0.17124003480566688 0.9851652568132168
vn 0.01123655813673461 0.17124003480566688 0.9851652568132168
vn -0.22540746740869664 0.25711185995020548 0.93972599104649488
vn -0.24741431615731312 0.22010789720853304 0.9435775818595336
vn -0.24741431615731312 0.22010789720853304 0.9435775818595336
vn -0.25914139075235452 0.198275862412317 0.94526850486305184
vn 0.01123655813673461 0.17124003480566688 0.9851652568132168
vn -0.2503973979114882 0.08710165660228802 0.96421698643622848
vn -0.14993209991547792 -0.04254693062949909 0.98778040454098608
vn 0.01123655813673461 0.17124003480566688 0.9851652568132168
vn -0.14993209991547792 -0.04254693062949909 0.98778040454098608
vn -0.13152871009690332 -0.08084980745852255 0.98800981628603312
vn 0.01123655813673461 0.17124003480566688 0.9851652568132168
vn 0.01123655813673461 0.17124003480566688 0.9851652568132168
vn 0.15561943337280116 -0.06045674900634199 0.985965286634788
vn 0.2120625127791436 0.0566850122892375 0.9756107151323912
vn 0.2120625127791436 0.0566850122892375 0.9756107151323912
vn 0.23927323885493736 0.0962519426549226 0.96616975805594592
vn 0.01123655813673461 0.17124003480566688 0.9851652568132168
vn 0.01123655813673461 0.17124003480566688 0.9851652568132168
vn -0.1954408931123534 0.30678642894702524 0.93149596278024992
vn -0.22540746740869664 0.25711185995020548 0.93972599104649488
vn -0.00459414043161177 0.16255670382394006 0.98668857354313472
vn 0.02278052461317492 0.27143469728324752 0.96218714002326624
vn 0.00882135225624247 0.47843634032947472 0.87807791874765904
vn 0.00882135225624247 0.47843634032947472 0.87807791874765904
vn 0.15775268180391384 0.38927438388576944 0.90751281067606048
vn -0.00459414043161177 0.16255670382394006 0.98668857354313472
vn 0.02278052461317492 0.27143469728324752 0.96218714002326624
vn 0.11339330863365498 0.26506103011573388 0.95754088718531568
vn 0.17430290491665922 0.40906553378263344 0.89570304475685056
vn 0.17430290491665922 0.40906553378263344 0.89570304475685056
vn 0.00882135225624247 0.47843634032947472 0.87807791874765904
vn 0.02278052461317492 0.27143469728324752 0.96218714002326624
vn 0.11339330863365498 0.26506103011573388 0.95754088718531568
vn 0.07763595640492657 0.19004156554688424 0.97870172365038864
vn 0.0602261808035634 0.41754471979768512 0.90665827337600304
vn 0.0602261808035634 0.41754471979768512 0.90665827337600304
vn 0.17430290491665922 0.40906553378263344 0.89570304475685056
vn 0.11339330863365498 0.26506103011573388 0.95754088718531568
vn 0.07763595640492657 0.19004156554688424 0.97870172365038864
vn 0.01010754434464226 0.16202896205505118 0.98673422894656752
vn -0.1954408931123534 0.30678642894702524 0.93149596278024992
vn -0.1954408931123534 0.30678642894702524 0.93149596278024992
vn 0.0602261808035634 0.41754471979768512 0.90665827337600304
vn 0.07763595640492657 0.19004156554688424 0.97870172365038864
vn 0.01010754434464226 0.16202896205505118 0.98673422894656752
vn -0.10056030336609706 0.2080622994976664 0.9729325530825864
vn -0.22540746740869664 0.25711185995020548 0.93972599104649488
vn -0.22540746740869664 0.25711185995020548 0.93972599104649488
vn -0.1954408931123534 0.30678642894702524 0.93149596278024992
vn 0.01010754434464226 0.16202896205505118 0.98673422894656752
vn -0.10056030336609706 0.2080622994976664 0.9729325530825864
vn -0.04601872913311045 0.16642265531056188 0.98498007122286816
vn -0.24741431615731312 0.22010789720853304 0.9435775818595336
vn -0.24741431615731312 0.22010789720853304 0.9435775818595336
vn -0.22540746740869664 0.25711185995020548 0.93972599104649488
vn -0.10056030336609706 0.2080622994976664 0.9729325530825864
vn -0.04601872913311045 0.16642265531056188 0.98498007122286816
vn -0.16493415932131802 0.15699951393677148 0.97372887267025184
vn -0.25914139075235452 0.198275862412317 0.94526850486305184
vn -0.25914139075235452 0.198275862412317 0.94526850486305184
vn -0.24741431615731312 0.22010789720853304 0.9435775818595336
vn -0.04601872913311045 0.16642265531056188 0.98498007122286816
vn -0.16493415932131802 0.15699951393677148 0.97372887267025184
vn -0.0212014274224114 0.20555414517942684 0.97841605176136112
vn -0.2503973979114882 0.08710165660228802 0.96421698643622848
vn -0.2503973979114882 0.08710165660228802 0.96421698643622848
vn -0.25914139075235452 0.198275862412317 0.94526850486305184
vn -0.16493415932131802 0.15699951393677148 0.97372887267025184
vn -0.0212014274224114 0.20555414517942684 0.97841605176136112
vn -0.07995489227107558 0.0560704918567284 0.9952202596012696
vn -0.14993209991547792 -0.04254693062949909 0.98778040454098608
vn -0.14993209991547792 -0.04254693062949909 0.98778040454098608
vn -0.2503973979114882 0.08710165660228802 0.96421698643622848
vn -0.0212014274224114 0.20555414517942684 0.97841605176136112
vn -0.07995489227107558 0.0560704918567284 0.9952202596012696
vn -0.05893297101456714 0.14487671715555652 0.9876930948447184
vn -0.13152871009690332 -0.08084980745852255 0.98800981628603312
vn -0.13152871009690332 -0.08084980745852255 0.98800981628603312
vn -0.14993209991547792 -0.04254693062949909 0.98778040454098608
vn -0.07995489227107558 0.0560704918567284 0.9952202596012696
vn -0.05893297101456714 0.14487671715555652 0.9876930948447184
vn -0.02222807148617663 -0.00054180293450454 0.99975270282714864
vn -0.05236651239005473 -0.06318432008520106 0.99662703151058208
vn -0.05236651239005473 -0.06318432008520106 0.99662703151058208
vn -0.13152871009690332 -0.08084980745852255 0.98800981628603312
vn -0.05893297101456714 0.14487671715555652 0.9876930948447184
vn -0.02222807148617663 -0.00054180293450454 0.99975270282714864
vn 0.02412358687809371 0.04519905959551065 0.99868661408033088
vn 0.08974598451357234 -0.05934518082561527 0.99419514607433472
vn 0.08974598451357234 -0.05934518082561527 0.99419514607433472
vn -0.05236651239005473 -0.06318432008520106 0.99662703151058208
vn -0.02222807148617663 -0.00054180293450454 0.99975270282714864
vn 0.02412358687809371 0.04519905959551065 0.99868661408033088
vn -0.00346192321635113 0.15820780752019162 0.98739977553315776
vn 0.15561943337280116 -0.06045674900634199 0.985965286634788
vn 0.15561943337280116 -0.06045674900634199 0.985965286634788
vn 0.08974598451357234 -0.05934518082561527 0.99419514607433472
vn 0.02412358687809371 0.04519905959551065 0.99868661408033088
vn -0.00346192321635113 0.15820780752019162 0.98739977553315776
vn 0.13608343356893222 0.14682123898768248 0.97975760822021792
vn 0.2120625127791436 0.0566850122892375 0.9756107151323912
vn 0.2120625127791436 0.0566850122892375 0.9756107151323912
vn 0.15561943337280116 -0.06045674900634199 0.985965286634788
vn -0.00346192321635113 0.15820780752019162 0.98739977553315776
vn 0.13608343356893222 0.14682123898768248 0.97975760822021792
vn 0.18190944294036212 0.12678777327919164 0.97510712703838816
vn 0.23927323885493736 0.0962519426549226 0.96616975805594592
vn 0.23927323885493736 0.0962519426549226 0.96616975805594592
vn 0.2120625127791436 0.0566850122892375 0.9756107151323912
vn 0.13608343356893222 0.14682123898768248 0.97975760822021792
vn 0.18190944294036212 0.12678777327919164 0.97510712703838816
vn 0.00281482721577941 0.18752046709996336 0.98225673180785856
vn 0.26866510747212004 0.19922602392914432 0.94240551387012848
vn 0.26866510747212004 0.19922602392914432 0.94240551387012848
vn 0.23927323885493736 0.0962519426549226 0.96616975805594592
vn 0.18190944294036212 0.12678777327919164 0.97510712703838816
vn 0.00281482721577941 0.18752046709996336 0.98225673180785856
vn 0.16049524368165576 0.2361465560182452 0.95837152875763888
vn 0.26070502817902604 0.24266683758525532 0.9344226101122176
vn 0.26070502817902604 0.24266683758525532 0.9344226101122176
vn 0.26866510747212004 0.19922602392914432 0.94240551387012848
vn 0.00281482721577941 0.18752046709996336 0.98225673180785856
vn 0.16049524368165576 0.2361465560182452 0.95837152875763888
vn -0.00459414043161177 0.16255670382394006 0.98668857354313472
vn 0.15775268180391384 0.38927438388576944 0.90751281067606048
vn 0.15775268180391384 0.38927438388576944 0.90751281067606048
vn 0.26070502817902604 0.24266683758525532 0.9344226101122176
vn 0.16049524368165576 0.2361465560182452 0.95837152875763888
vn 0.4205355939377792 0.90444727387265872 0.07158889235806606
vn 0.69887144332842232 0.71227045672519872 0.06518831258399987
vn 0.7071066892332316 0.70710687313986344 4.3605297214750835E-09
vn 0.7071066892332316 0.70710687313986344 4.3605297214750835E-09
vn 0.42261837757686352 0.90630774938025376 3.1557611098494356E-08
vn 0.4205355939377792 0.90444727387265872 0.07158889235806606
vn 0.08715542588883396 0.99619467037422128 9.32533927356703E-08
vn 0.05130849299362295 0.9896552763652992 0.13397758088186242
vn 0.4205355939377792 0.90444727387265872 0.07158889235806606
vn 0.4205355939377792 0.90444727387265872 0.07158889235806606
vn 0.42261837757686352 0.90630774938025376 3.1557611098494356E-08
vn 0.08715542588883396 0.99619467037422128 9.32533927356703E-08
vn -0.25289165545997892 0.95931304459604224 0.1255562360833876
vn 0.05130849299362295 0.9896552763652992 0.13397758088186242
vn 0.08715542588883396 0.99619467037422128 9.32533927356703E-08
vn 0.08715542588883396 0.99619467037422128 9.32533927356703E-08
vn -0.25881953987369256 0.96592573100436096 1.4113236984516456E-07
vn -0.25289165545997892 0.95931304459604224 0.1255562360833876
vn -0.60115773570013744 0.79086253423558176 0.11465486529236298
vn -0.25289165545997892 0.95931304459604224 0.1255562360833876
vn -0.25881953987369256 0.96592573100436096 1.4113236984516456E-07
vn -0.25881953987369256 0.96592573100436096 1.4113236984516456E-07
vn -0.57357662997214232 0.81915190202293104 1.5502898557913543E-07
vn -0.60115773570013744 0.79086253423558176 0.11465486529236298
vn -0.80578965949689456 0.57524072939117944 0.14071654791950724
vn -0.60115773570013744 0.79086253423558176 0.11465486529236298
vn -0.57357662997214232 0.81915190202293104 1.5502898557913543E-07
vn -0.57357662997214232 0.81915190202293104 1.5502898557913543E-07
vn -0.81915233402812368 0.57357611367324336 1.946948934825835E-07
vn -0.80578965949689456 0.57524072939117944 0.14071654791950724
vn -0.96392412117238816 0.237482473231468 0.12021770012662912
vn -0.80578965949689456 0.57524072939117944 0.14071654791950724
vn -0.81915233402812368 0.57357611367324336 1.946948934825835E-07
vn -0.81915233402812368 0.57357611367324336 1.946948934825835E-07
vn -0.96592606817914032 0.25881819117453152 2.1570239830724926E-07
vn -0.96392412117238816 0.237482473231468 0.12021770012662912
vn -0.9847079082098288 -0.07837098691233568 0.15559057901767748
vn -0.96392412117238816 0.237482473231468 0.12021770012662912
vn -0.96592606817914032 0.25881819117453152 2.1570239830724926E-07
vn -0.96592606817914032 0.25881819117453152 2.1570239830724926E-07
vn -0.99619458608051552 -0.08715584735732773 1.678936681756E-07
vn -0.9847079082098288 -0.07837098691233568 0.15559057901767748
vn -0.89960552677612752 -0.42854240077008424 0.08403045150391274
vn -0.9847079082098288 -0.07837098691233568 0.15559057901767748
vn -0.99619458608051552 -0.08715584735732773 1.678936681756E-07
vn -0.99619458608051552 -0.08715584735732773 1.678936681756E-07
vn -0.90630785474736768 -0.42261801932865824 9.31388559536028E-08
vn -0.89960552677612752 -0.42854240077008424 0.08403045150391274
vn -0.70710664368073208 -0.70710683439866592 1.6900325680547444E-08
vn -0.72623155181377632 -0.66987142546049064 0.15446668022462306
vn -0.89960552677612752 -0.42854240077008424 0.08403045150391274
vn -0.89960552677612752 -0.42854240077008424 0.08403045150391274
vn -0.90630785474736768 -0.42261801932865824 9.31388559536028E-08
vn -0.70710664368073208 -0.70710683439866592 1.6900325680547444E-08
vn -0.40724726356926632 -0.90845630119192192 0.09411008842445174
vn -0.72623155181377632 -0.66987142546049064 0.15446668022462306
vn -0.70710664368073208 -0.70710683439866592 1.6900325680547444E-08
vn -0.70710664368073208 -0.70710683439866592 1.6900325680547444E-08
vn -0.42261844079713864 -0.90630768615997856 -5.231912192001911E-08
vn -0.40724726356926632 -0.90845630119192192 0.09411008842445174
vn -0.09790054189869158 -0.98946749772660416 0.10662755529894948
vn -0.40724726356926632 -0.90845630119192192 0.09411008842445174
vn -0.42261844079713864 -0.90630768615997856 -5.231912192001911E-08
vn -0.42261844079713864 -0.90630768615997856 -5.231912192001911E-08
vn -0.08715588950416786 -0.99619462822737232 -9.547665022441838E-08
vn -0.09790054189869158 -0.98946749772660416 0.10662755529894948
vn 0.25881932913945448 -0.96592577315121392 -1.020714780674504E-07
vn 0.23663046117317688 -0.96308981079047152 0.12831206209729012
vn -0.09790054189869158 -0.98946749772660416 0.10662755529894948
vn -0.09790054189869158 -0.98946749772660416 0.10662755529894948
vn -0.08715588950416786 -0.99619462822737232 -9.547665022441838E-08
vn 0.25881932913945448 -0.96592577315121392 -1.020714780674504E-07
vn 0.55067372467085328 -0.8316198542505912 0.07188116480938564
vn 0.23663046117317688 -0.96308981079047152 0.12831206209729012
vn 0.25881932913945448 -0.96592577315121392 -1.020714780674504E-07
vn 0.25881932913945448 -0.96592577315121392 -1.020714780674504E-07
vn 0.57357661943543816 -0.81915199685334832 -8.520290637903655E-08
vn 0.55067372467085328 -0.8316198542505912 0.07188116480938564
vn 0.82653331477749744 -0.56212839024543616 0.02922830751720091
vn 0.55067372467085328 -0.8316198542505912 0.07188116480938564
vn 0.57357661943543816 -0.81915199685334832 -8.520290637903655E-08
vn 0.57357661943543816 -0.81915199685334832 -8.520290637903655E-08
vn 0.81915197577992576 -0.57357664050886424 -7.033045106441192E-08
vn 0.82653331477749744 -0.56212839024543616 0.02922830751720091
vn 0.96592562563724976 -0.25881956094712712 -5.24084370812137E-08
vn 0.94898793595562384 -0.29808212279701908 0.1028053143438816
vn 0.82653331477749744 -0.56212839024543616 0.02922830751720091
vn 0.82653331477749744 -0.56212839024543616 0.02922830751720091
vn 0.81915197577992576 -0.57357664050886424 -7.033045106441192E-08
vn 0.96592562563724976 -0.25881956094712712 -5.24084370812137E-08
vn 0.99217340537364512 0.1039926202909055 0.06911914994401448
vn 0.94898793595562384 -0.29808212279701908 0.1028053143438816
vn 0.96592562563724976 -0.25881956094712712 -5.24084370812137E-08
vn 0.96592562563724976 -0.25881956094712712 -5.24084370812137E-08
vn 0.99619483896161952 0.08715449865816227 -5.5651772162505886E-08
vn 0.99217340537364512 0.1039926202909055 0.06911914994401448
vn 0.90576020837975408 0.41519712963571128 0.08491084288670799
vn 0.99217340537364512 0.1039926202909055 0.06911914994401448
vn 0.99619483896161952 0.08715449865816227 -5.5651772162505886E-08
vn 0.99619483896161952 0.08715449865816227 -5.5651772162505886E-08
vn 0.9063080865550408 0.42261753463989416 -3.949182685374533E-08
vn 0.90576020837975408 0.41519712963571128 0.08491084288670799
vn 0.69887144332842232 0.71227045672519872 0.06518831258399987
vn 0.90576020837975408 0.41519712963571128 0.08491084288670799
vn 0.9063080865550408 0.42261753463989416 -3.949182685374533E-08
vn 0.9063080865550408 0.42261753463989416 -3.949182685374533E-08
vn 0.7071066892332316 0.70710687313986344 4.3605297214750835E-09
vn 0.69887144332842232 0.71227045672519872 0.06518831258399987
# 966 vertex normals

vt 0.15348680317401886 0.99799996614456176 0
vt 0.1366870105266571 0.99798625707626336 0
vt 0.13581688702106476 0.08693007379770279 0
vt 0.152512788772583 0.08530470728874207 0
vt 0.11988677084445954 0.99797201156616208 0
vt 0.11917410790920258 0.08470262587070465 0
vt 0.10308918356895446 0.99795806407928464 0
vt 0.1025826781988144 0.08824547380208969 0
vt 0.0862920954823494 0.99794363975524896 0
vt 0.08597519248723984 0.08994682133197784 0
vt 0.06949321180582047 0.99792921543121344 0
vt 0.069459468126297 0.09193804860115052 0
vt 0.0526958741247654 0.99791383743286128 0
vt 0.05296726897358894 0.09329192340373992 0
vt 0.03589670732617378 0.997897744178772 0
vt 0.03649332374334335 0.09252075850963592 0
vt 0.01909939385950565 0.99788123369216912 0
vt 0.01978415623307228 0.0976983904838562 0
vt 0.37644854187965392 0.06848331540822983 0
vt 0.37089735269546512 0.07594256103038788 0
vt 0.36418071389198304 0.0511595606803894 0
vt 0.41400325298309328 0.06097721680998802 0
vt 0.40590918064117432 0.07660906761884689 0
vt 0.39315119385719296 0.06805101037025452 0
vt 0.40149781107902528 0.05899880826473236 0
vt 0.39656838774681088 0.08976529538631439 0
vt 0.38581255078315736 0.076046422123909 0
vt 0.38122665882110592 0.10030791908502578 0
vt 0.37802147865295408 0.08679074794054031 0
vt 0.36480495333671568 0.1007808893918991 0
vt 0.36513921618461608 0.08895208686590195 0
vt 0.34872213006019592 0.09305782616138458 0
vt 0.35337182879447936 0.08015729486942291 0
vt 0.33293280005455016 0.08928538113832474 0
vt 0.34488359093666076 0.07650119811296463 0
vt 0.31669515371322632 0.075177863240242 0
vt 0.00230105780065059 0.9978668093681336 0
vt 0.33731529116630556 0.06395819783210754 0
vt 0.3488750457763672 0.2045171409845352 0
vt 0.33507469296455384 0.19654941558837892 0
vt 0.32483160495758056 0.18434222042560576 0
vt 0.31938165426254272 0.16936805844306946 0
vt 0.31938162446022032 0.15343283116817474 0
vt 0.32483181357383728 0.13845862448215484 0
vt 0.33507490158081056 0.12625162303447724 0
vt 0.34887516498565672 0.11828403174877166 0
vt 0.36456847190856936 0.11551706492900848 0
vt 0.38026151061058048 0.1182841807603836 0
vt 0.39406174421310424 0.12625174224376678 0
vt 0.4043046832084656 0.13845878839492798 0
vt 0.40975490212440488 0.15343300998210906 0
vt 0.40975493192672728 0.1693682223558426 0
vt 0.4043046236038208 0.18434239923954012 0
vt 0.39406174421310424 0.19654950499534608 0
vt 0.38026151061058048 0.2045172154903412 0
vt 0.36456847190856936 0.20728439092636108 0
vt 0.36474081873893736 0.21069414913654328 0
vt 0.38126575946807864 0.20778025686740876 0
vt 0.38158965110778808 0.2076623886823654 0
vt 0.39612150192260744 0.19927226006984712 0
vt 0.3963854908943176 0.19905073940753936 0
vt 0.4071713089942932 0.1861964911222458 0
vt 0.40734368562698368 0.185898095369339 0
vt 0.413083016872406 0.17013004422187806 0
vt 0.41314280033111576 0.1697906106710434 0
vt 0.41314280033111576 0.15301060676574708 0
vt 0.4130829870700836 0.1526712030172348 0
vt 0.4073437452316284 0.1369030773639679 0
vt 0.4071714282035828 0.1366046816110611 0
vt 0.3963854610919952 0.1237504929304123 0
vt 0.39612144231796264 0.12352894991636276 0
vt 0.38158962130546568 0.11513897776603698 0
vt 0.38126578927040104 0.11502108722925186 0
vt 0.36474072933197024 0.1121073141694069 0
vt 0.36439624428749088 0.11210725456476212 0
vt 0.3478708863258362 0.11502090841531754 0
vt 0.34754699468612672 0.11513879895210266 0
vt 0.3330150842666626 0.12352881580591202 0
vt 0.33275118470191956 0.12375028431415558 0
vt 0.32196497917175292 0.13660447299480438 0
vt 0.32179272174835204 0.13690297305583954 0
vt 0.31605353951454164 0.15267099440097808 0
vt 0.31599369645118712 0.15301039814949036 0
vt 0.31599372625350952 0.16979044675827026 0
vt 0.3160535991191864 0.17012982070446014 0
vt 0.32179251313209532 0.18589787185192108 0
vt 0.3219647705554962 0.18619634211063384 0
vt 0.33275088667869568 0.19905073940753936 0
vt 0.33301484584808348 0.19927223026752472 0
vt 0.34754687547683716 0.20766237378120424 0
vt 0.34787067770957948 0.20778025686740876 0
vt 0.36439615488052368 0.21069423854351044 0
vt 0.0031921099871397 0.09129885584115982 0
vt 0.28787070512771608 0.99753099679946896 0
vt 0.28472328186035156 0.09487910568714142 0
vt 0.27107241749763488 0.9975913763046264 0
vt 0.26829054951667784 0.09538468718528748 0
vt 0.25427579879760744 0.99765086174011232 0
vt 0.25193771719932556 0.09097906202077866 0
vt 0.23747922480106352 0.99770992994308464 0
vt 0.23553769290447236 0.09148569405078888 0
vt 0.22068209946155548 0.99776905775070192 0
vt 0.21903221309185028 0.08947848528623581 0
vt 0.20388345420360564 0.99782711267471312 0
vt 0.20242170989513396 0.0833362340927124 0
vt 0.187087282538414 0.99788486957550048 0
vt 0.18582710623741148 0.08330772072076797 0
vt 0.17028820514678956 0.99794256687164304 0
vt 0.1691872924566269 0.08410295099020004 0
vt 0.13916364312171936 0.06158014386892319 0
vt 0.1546771228313446 0.06117027625441551 0
vt 0.12404605746269226 0.06205048784613609 0
vt 0.10538291931152344 0.0627133697271347 0
vt 0.08706241101026535 0.06375928223133087 0
vt 0.07028091698884964 0.06395053863525391 0
vt 0.05538187175989151 0.06476081907749176 0
vt 0.0365082249045372 0.0644112229347229 0
vt 0.01928737573325634 0.06472589820623398 0
vt 0.00506045715883374 0.06333952397108078 0
vt 0.2821708917617798 0.06384365260601044 0
vt 0.265988290309906 0.06296686828136444 0
vt 0.25091582536697388 0.06241894513368607 0
vt 0.23576116561889648 0.06162109225988388 0
vt 0.21967168152332304 0.06170691549777985 0
vt 0.2020888328552246 0.06079119816422462 0
vt 0.18868915736675264 0.06107860803604126 0
vt 0.17049822211265564 0.06085836142301559 0
vt 0.13579259812831878 0.04153206199407577 0
vt 0.13550315797328948 0.02026414684951305 0
vt 0.15240103006362916 0.01842445135116577 0
vt 0.31599369645118712 0.05991281569004059 0
vt 0.32979539036750792 0.05796456336975098 0
vt 0.318600594997406 0.04316944628953933 0
vt 0.33376431465148924 0.04599402472376823 0
vt 0.32165461778640748 0.02654274553060531 0
vt 0.33586505055427552 0.03346061706542969 0
vt 0.33066985011100768 0.01305088680237531 0
vt 0.3457457721233368 0.02784109115600586 0
vt 0.34689795970916748 0.0077600423246622 0
vt 0.3546937108039856 0.02026668563485145 0
vt 0.36443141102790832 0.0020000000949949 0
vt 0.36454346776008608 0.01444795355200767 0
vt 0.3819677531719208 0.00202879984863102 0
vt 0.37540432810783384 0.02088396623730659 0
vt 0.39417979121208192 0.01366066001355648 0
vt 0.38402459025382992 0.02901431731879711 0
vt 0.41157335042953488 0.02811611257493496 0
vt 0.39706674218177792 0.0337333120405674 0
vt 0.15115857124328614 0.04145293682813644 0
vt 0.12155132740736008 0.04092060402035713 0
vt 0.12001989036798478 0.01990069448947906 0
vt 0.1034177616238594 0.04004350677132606 0
vt 0.10212921351194382 0.01795748434960842 0
vt 0.08661219477653503 0.03793304786086082 0
vt 0.08630207180976868 0.01717851683497429 0
vt 0.07055114954710007 0.03663409128785133 0
vt 0.06918633729219437 0.01501645985990762 0
vt 0.05652530863881111 0.03418834879994392 0
vt 0.05391606688499451 0.01158379204571247 0
vt 0.03757673874497413 0.03324874117970466 0
vt 0.03315931558609009 0.00749406311661005 0
vt 0.02144717797636985 0.03155300766229629 0
vt 0.01838312670588493 0.00801393669098615 0
vt 0.00734194833785295 0.03229844942688942 0
vt 0.0020000000949949 0.00814326480031013 0
vt 0.28522926568984984 0.03130826354026794 0
vt 0.28585544228553772 0.00501098437234759 0
vt 0.41115581989288328 0.04326296970248222 0
vt 0.3969745635986328 0.04798009246587753 0
vt 0.34565544128417968 0.05589202791452408 0
vt 0.3426416516304016 0.05342805758118629 0
vt 0.3607836961746216 0.02905829064548015 0
vt 0.36406850814819336 0.02695695869624614 0
vt 0.36748549342155456 0.07646793127059937 0
vt 0.35197997093200684 0.03653208166360855 0
vt 0.38431850075721744 0.05993382632732391 0
vt 0.34575086832046508 0.03991851955652237 0
vt 0.3877242803573608 0.05609146505594254 0
vt 0.3774549961090088 0.03823992609977722 0
vt 0.38522243499755856 0.0409889817237854 0
vt 0.38513317704200744 0.04963744059205055 0
vt 0.35867238044738768 0.06976491212844849 0
vt 0.35229453444480896 0.06696063280105591 0
vt 0.34447264671325684 0.04814586043357849 0
vt 0.36813160777091976 0.02951288782060146 0
vt 0.26897352933883668 0.03151363506913185 0
vt 0.27091598510742188 0.0020000000949949 0
vt 0.25342074036598204 0.03226000815629959 0
vt 0.2547932267189026 0.00272230571135878 0
vt 0.23734217882156372 0.03384273871779442 0
vt 0.23726375401020052 0.00301274145022034 0
vt 0.21959182620048524 0.03522524237632751 0
vt 0.22066867351531984 0.00497489795088768 0
vt 0.2008138746023178 0.03756199777126312 0
vt 0.20508077740669252 0.00894367974251508 0
vt 0.1853797286748886 0.03933650627732277 0
vt 0.1832198351621628 0.01132315583527088 0
vt 0.1672787368297577 0.04068290069699287 0
vt 0.169523224234581 0.01611531339585781 0
vt 0.30466735363006592 0.9974675178527832 0
vt 0.30124500393867492 0.09091852605342864 0
vt 0.29624047875404356 0.06334982067346573 0
vt 0.29899543523788452 0.0329715758562088 0
vt 0.3010622262954712 0.00912934821099042 0
vt 0.00262068235315382 0.67267686128616336 0
vt 0.30343973636627196 0.67228436470031736 0
vt 0.01934502087533474 0.67498165369033816 0
vt 0.03611071780323982 0.67313504219055176 0
vt 0.0527932271361351 0.67342197895050048 0
vt 0.06948111206293106 0.67294615507125856 0
vt 0.08617842197418213 0.6722411513328552 0
vt 0.10290750116109848 0.67164009809494016 0
vt 0.11963114142417908 0.6703782677650452 0
vt 0.13637489080429078 0.67118638753890992 0
vt 0.15313741564750672 0.67061209678649904 0
vt 0.1698933094739914 0.67014425992965696 0
vt 0.18663525581359864 0.66982197761535648 0
vt 0.20335912704467772 0.66979521512985232 0
vt 0.22009028494358064 0.6719611883163452 0
vt 0.23678278923034668 0.6726433038711548 0
vt 0.25343713164329528 0.67242366075515744 0
vt 0.27007454633712768 0.67396581172943112 0
vt 0.2867417335510254 0.6737457513809204 0
# 223 texture coords

g Cylinder001
usemtl Material #106
s 1
f 38/2/1 154/214/2 155/215/3
f 155/215/4 1/1/5 38/2/6
f 39/5/7 153/213/8 154/214/9
f 154/214/10 38/2/11 39/5/12
f 40/7/13 152/212/14 153/213/15
f 153/213/16 39/5/17 40/7/18
f 41/9/19 151/211/20 152/212/21
f 152/212/22 40/7/23 41/9/24
f 42/11/25 150/210/26 151/211/27
f 151/211/28 41/9/29 42/11/30
f 43/13/31 149/209/32 150/210/33
f 150/210/34 42/11/35 43/13/36
f 44/15/37 148/208/38 149/209/39
f 149/209/40 43/13/41 44/15/42
f 44/15/43 45/17/44 147/207/45
f 147/207/46 148/208/47 44/15/48
f 46/37/49 146/205/50 147/207/51
f 147/207/52 45/17/53 46/37/54
f 47/94/55 163/223/56 146/206/57
f 146/206/58 46/200/59 47/94/60
f 48/96/61 162/222/62 163/223/63
f 163/223/64 47/94/65 48/96/66
f 49/98/67 161/221/68 162/222/69
f 162/222/70 48/96/71 49/98/72
f 50/100/73 160/220/74 161/221/75
f 161/221/76 49/98/77 50/100/78
f 51/102/79 159/219/80 160/220/81
f 160/220/82 50/100/83 51/102/84
f 52/104/85 158/218/86 159/219/87
f 159/219/88 51/102/89 52/104/90
f 53/106/91 157/217/92 158/218/93
f 158/218/94 52/104/95 53/106/96
f 18/108/97 156/216/98 157/217/99
f 157/217/100 53/106/101 18/108/102
f 1/1/103 155/215/104 156/216/105
f 156/216/106 18/108/107 1/1/108
f 17/40/109 16/41/110 15/42/111
f 15/42/112 14/43/113 13/44/114
f 13/44/115 12/45/116 11/46/117
f 15/42/118 13/44/119 11/46/120
f 11/46/121 10/47/122 9/48/123
f 9/48/124 8/49/125 7/50/126
f 11/46/127 9/48/128 7/50/129
f 7/50/130 6/51/131 5/52/132
f 5/52/133 4/53/134 3/54/135
f 7/50/136 5/52/137 3/54/138
f 11/46/139 7/50/140 3/54/141
f 15/42/142 11/46/143 3/54/144
f 3/54/145 2/55/146 37/56/147
f 15/42/148 3/54/149 37/56/150
f 17/40/151 15/42/152 37/56/153
f 54/39/154 17/40/155 37/56/156
f 130/19/157 131/20/158 127/21/159
f 1/57/160 37/56/161 2/55/162
f 2/55/163 38/58/164 1/57/165
f 38/59/166 2/55/167 3/54/168
f 3/54/169 39/60/170 38/59/171
f 39/61/172 3/54/173 4/53/174
f 4/53/175 40/62/176 39/61/177
f 40/63/178 4/53/179 5/52/180
f 5/52/181 41/64/182 40/63/183
f 41/65/184 5/52/185 6/51/186
f 6/51/187 42/66/188 41/65/189
f 42/67/190 6/51/191 7/50/192
f 7/50/193 43/68/194 42/67/195
f 43/69/196 7/50/197 8/49/198
f 8/49/199 44/70/200 43/69/201
f 44/71/202 8/49/203 9/48/204
f 9/48/205 45/72/206 44/71/207
f 45/73/208 9/48/209 10/47/210
f 10/47/211 46/74/212 45/73/213
f 46/75/214 10/47/215 11/46/216
f 11/46/217 47/76/218 46/75/219
f 47/77/220 11/46/221 12/45/222
f 12/45/223 48/78/224 47/77/225
f 48/79/226 12/45/227 13/44/228
f 13/44/229 49/80/230 48/79/231
f 49/81/232 13/44/233 14/43/234
f 14/43/235 50/82/236 49/81/237
f 50/83/238 14/43/239 15/42/240
f 15/42/241 51/84/242 50/83/243
f 51/85/244 15/42/245 16/41/246
f 16/41/247 52/86/248 51/85/249
f 52/87/250 16/41/251 17/40/252
f 17/40/253 53/88/254 52/87/255
f 53/89/256 17/40/257 54/39/258
f 54/39/259 18/90/260 53/89/261
f 18/91/262 54/39/263 37/56/264
f 37/56/265 1/92/266 18/91/267
f 116/110/268 117/111/269 62/4/270
f 62/4/271 61/3/272 116/110/273
f 115/112/274 116/110/275 61/3/276
f 61/3/277 60/6/278 115/112/279
f 114/113/280 115/112/281 60/6/282
f 60/6/283 59/8/284 114/113/285
f 113/114/286 114/113/287 59/8/288
f 59/8/289 58/10/290 113/114/291
f 112/115/292 113/114/293 58/10/294
f 58/10/295 57/12/296 112/115/297
f 111/116/298 112/115/299 57/12/300
f 57/12/301 56/14/302 111/116/303
f 110/117/304 111/116/305 56/14/306
f 56/14/307 55/16/308 110/117/309
f 109/118/310 110/117/311 55/16/312
f 55/16/313 72/18/314 109/118/315
f 126/119/316 109/118/317 72/18/318
f 72/18/319 71/93/320 126/119/321
f 125/120/322 126/202/323 71/201/324
f 71/201/325 70/95/326 125/120/327
f 124/121/328 125/120/329 70/95/330
f 70/95/331 69/97/332 124/121/333
f 123/122/334 124/121/335 69/97/336
f 69/97/337 68/99/338 123/122/339
f 122/123/340 123/122/341 68/99/342
f 68/99/343 67/101/344 122/123/345
f 121/124/346 122/123/347 67/101/348
f 67/101/349 66/103/350 121/124/351
f 120/125/352 121/124/353 66/103/354
f 66/103/355 65/105/356 120/125/357
f 119/126/358 120/125/359 65/105/360
f 65/105/361 64/107/362 119/126/363
f 118/127/364 119/126/365 64/107/366
f 64/107/367 63/109/368 118/127/369
f 117/111/370 118/127/371 63/109/372
f 63/109/373 62/4/374 117/111/375
f 20/129/376 19/130/377 81/149/378
f 81/149/379 80/128/380 20/129/381
f 21/151/382 20/129/383 80/128/384
f 80/128/385 79/150/386 21/151/387
f 22/153/388 21/151/389 79/150/390
f 79/150/391 78/152/392 22/153/393
f 23/155/394 22/153/395 78/152/396
f 78/152/397 77/154/398 23/155/399
f 24/157/400 23/155/401 77/154/402
f 77/154/403 76/156/404 24/157/405
f 25/159/406 24/157/407 76/156/408
f 76/156/409 75/158/410 25/159/411
f 26/161/412 25/159/413 75/158/414
f 75/158/415 74/160/416 26/161/417
f 27/163/418 26/161/419 74/160/420
f 74/160/421 73/162/422 27/163/423
f 28/165/424 27/163/425 73/162/426
f 73/162/427 90/164/428 28/165/429
f 29/167/430 28/204/431 90/203/432
f 90/203/433 89/166/434 29/167/435
f 30/187/436 29/167/437 89/166/438
f 89/166/439 88/186/440 30/187/441
f 31/189/442 30/187/443 88/186/444
f 88/186/445 87/188/446 31/189/447
f 32/191/448 31/189/449 87/188/450
f 87/188/451 86/190/452 32/191/453
f 33/193/454 32/191/455 86/190/456
f 86/190/457 85/192/458 33/193/459
f 34/195/460 33/193/461 85/192/462
f 85/192/463 84/194/464 34/195/465
f 35/197/466 34/195/467 84/194/468
f 84/194/469 83/196/470 35/197/471
f 36/199/472 35/197/473 83/196/474
f 83/196/475 82/198/476 36/199/477
f 19/130/478 36/199/479 82/198/480
f 82/198/481 81/149/482 19/130/483
f 19/22/484 20/23/485 92/24/486
f 92/24/487 91/25/488 19/22/489
f 20/23/490 21/26/491 93/27/492
f 93/27/493 92/24/494 20/23/495
f 21/26/496 22/28/497 94/29/498
f 94/29/499 93/27/500 21/26/501
f 22/28/502 23/30/503 95/31/504
f 95/31/505 94/29/506 22/28/507
f 23/30/508 24/32/509 96/33/510
f 96/33/511 95/31/512 23/30/513
f 24/32/514 25/34/515 97/35/516
f 97/35/517 96/33/518 24/32/519
f 25/34/520 26/36/521 98/38/522
f 98/38/523 97/35/524 25/34/525
f 26/36/526 27/131/527 99/132/528
f 99/132/529 98/38/530 26/36/531
f 27/131/532 28/133/533 100/134/534
f 100/134/535 99/132/536 27/131/537
f 28/133/538 29/135/539 101/136/540
f 101/136/541 100/134/542 28/133/543
f 29/135/544 30/137/545 102/138/546
f 102/138/547 101/136/548 29/135/549
f 30/137/550 31/139/551 103/140/552
f 103/140/553 102/138/554 30/137/555
f 31/139/556 32/141/557 104/142/558
f 104/142/559 103/140/560 31/139/561
f 32/141/562 33/143/563 105/144/564
f 105/144/565 104/142/566 32/141/567
f 33/143/568 34/145/569 106/146/570
f 106/146/571 105/144/572 33/143/573
f 34/145/574 35/147/575 107/148/576
f 107/148/577 106/146/578 34/145/579
f 35/147/580 36/168/581 108/169/582
f 108/169/583 107/148/584 35/147/585
f 36/168/586 19/22/587 91/25/588
f 91/25/589 108/169/590 36/168/591
f 116/110/592 80/128/593 81/149/594
f 81/149/595 117/111/596 116/110/597
f 115/112/598 79/150/599 80/128/600
f 80/128/601 116/110/602 115/112/603
f 114/113/604 78/152/605 79/150/606
f 79/150/607 115/112/608 114/113/609
f 113/114/610 77/154/611 78/152/612
f 78/152/613 114/113/614 113/114/615
f 112/115/616 76/156/617 77/154/618
f 77/154/619 113/114/620 112/115/621
f 111/116/622 75/158/623 76/156/624
f 76/156/625 112/115/626 111/116/627
f 110/117/628 74/160/629 75/158/630
f 75/158/631 111/116/632 110/117/633
f 109/118/634 73/162/635 74/160/636
f 74/160/637 110/117/638 109/118/639
f 126/119/640 90/164/641 73/162/642
f 73/162/643 109/118/644 126/119/645
f 125/120/646 89/166/647 90/203/648
f 90/203/649 126/202/650 125/120/651
f 124/121/652 88/186/653 89/166/654
f 89/166/655 125/120/656 124/121/657
f 123/122/658 87/188/659 88/186/660
f 88/186/661 124/121/662 123/122/663
f 122/123/664 86/190/665 87/188/666
f 87/188/667 123/122/668 122/123/669
f 121/124/670 85/192/671 86/190/672
f 86/190/673 122/123/674 121/124/675
f 120/125/676 84/194/677 85/192/678
f 85/192/679 121/124/680 120/125/681
f 119/126/682 83/196/683 84/194/684
f 84/194/685 120/125/686 119/126/687
f 118/127/688 82/198/689 83/196/690
f 83/196/691 119/126/692 118/127/693
f 117/111/694 81/149/695 82/198/696
f 82/198/697 118/127/698 117/111/699
f 135/170/700 136/171/701 127/21/702
f 140/172/703 141/173/704 127/21/705
f 131/20/706 132/174/707 127/21/708
f 139/175/709 140/172/710 127/21/711
f 127/21/712 129/176/713 130/19/714
f 138/177/715 139/175/716 127/21/717
f 127/21/718 128/178/719 129/176/720
f 127/21/721 143/179/722 144/180/723
f 127/21/724 145/181/725 128/178/726
f 144/180/727 145/181/728 127/21/729
f 127/21/730 133/182/731 134/183/732
f 134/183/733 135/170/734 127/21/735
f 136/171/736 137/184/737 127/21/738
f 137/184/739 138/177/740 127/21/741
f 127/21/742 141/173/743 142/185/744
f 142/185/745 143/179/746 127/21/747
f 127/21/748 132/174/749 133/182/750
f 91/25/751 92/24/752 129/176/753
f 129/176/754 128/178/755 91/25/756
f 92/24/757 93/27/758 130/19/759
f 130/19/760 129/176/761 92/24/762
f 93/27/763 94/29/764 131/20/765
f 131/20/766 130/19/767 93/27/768
f 94/29/769 95/31/770 132/174/771
f 132/174/772 131/20/773 94/29/774
f 95/31/775 96/33/776 133/182/777
f 133/182/778 132/174/779 95/31/780
f 96/33/781 97/35/782 134/183/783
f 134/183/784 133/182/785 96/33/786
f 97/35/787 98/38/788 135/170/789
f 135/170/790 134/183/791 97/35/792
f 98/38/793 99/132/794 136/171/795
f 136/171/796 135/170/797 98/38/798
f 99/132/799 100/134/800 137/184/801
f 137/184/802 136/171/803 99/132/804
f 100/134/805 101/136/806 138/177/807
f 138/177/808 137/184/809 100/134/810
f 101/136/811 102/138/812 139/175/813
f 139/175/814 138/177/815 101/136/816
f 102/138/817 103/140/818 140/172/819
f 140/172/820 139/175/821 102/138/822
f 103/140/823 104/142/824 141/173/825
f 141/173/826 140/172/827 103/140/828
f 104/142/829 105/144/830 142/185/831
f 142/185/832 141/173/833 104/142/834
f 105/144/835 106/146/836 143/179/837
f 143/179/838 142/185/839 105/144/840
f 106/146/841 107/148/842 144/180/843
f 144/180/844 143/179/845 106/146/846
f 107/148/847 108/169/848 145/181/849
f 145/181/850 144/180/851 107/148/852
f 108/169/853 91/25/854 128/178/855
f 128/178/856 145/181/857 108/169/858
f 61/3/859 62/4/860 155/215/861
f 155/215/862 154/214/863 61/3/864
f 153/213/865 60/6/866 61/3/867
f 61/3/868 154/214/869 153/213/870
f 59/8/871 60/6/872 153/213/873
f 153/213/874 152/212/875 59/8/876
f 58/10/877 59/8/878 152/212/879
f 152/212/880 151/211/881 58/10/882
f 57/12/883 58/10/884 151/211/885
f 151/211/886 150/210/887 57/12/888
f 56/14/889 57/12/890 150/210/891
f 150/210/892 149/209/893 56/14/894
f 55/16/895 56/14/896 149/209/897
f 149/209/898 148/208/899 55/16/900
f 72/18/901 55/16/902 148/208/903
f 148/208/904 147/207/905 72/18/906
f 146/205/907 71/93/908 72/18/909
f 72/18/910 147/207/911 146/205/912
f 70/95/913 71/201/914 146/206/915
f 146/206/916 163/223/917 70/95/918
f 69/97/919 70/95/920 163/223/921
f 163/223/922 162/222/923 69/97/924
f 161/221/925 68/99/926 69/97/927
f 69/97/928 162/222/929 161/221/930
f 67/101/931 68/99/932 161/221/933
f 161/221/934 160/220/935 67/101/936
f 66/103/937 67/101/938 160/220/939
f 160/220/940 159/219/941 66/103/942
f 158/218/943 65/105/944 66/103/945
f 66/103/946 159/219/947 158/218/948
f 64/107/949 65/105/950 158/218/951
f 158/218/952 157/217/953 64/107/954
f 63/109/955 64/107/956 157/217/957
f 157/217/958 156/216/959 63/109/960
f 62/4/961 63/109/962 156/216/963
f 156/216/964 155/215/965 62/4/966
#322 polygons

