# Blender v2.76 (sub 0) OBJ File: 'Projeto.blend'
# www.blender.org
mtllib HomeOBJ.mtl
o Roof_Cube.008
v -7.351243 3.117274 1.888015
v -7.351243 3.253853 1.888015
v -7.351243 3.117274 -5.749938
v -7.351243 3.253853 -5.749938
v 1.587531 3.117274 1.888015
v 1.587531 3.253853 1.888015
v 1.587531 3.117274 -5.749938
v 1.587531 3.253853 -5.749938
v -1.575006 3.253853 1.888015
v -1.575006 3.117274 1.888015
v -4.208693 3.253853 1.888015
v -4.208693 3.117274 1.888015
v -1.575006 3.253853 2.327487
v -1.575006 3.117274 2.327487
v -4.208693 3.253853 2.327487
v -4.208693 3.117274 2.327487
vt 0.000000 1.000000
vt 0.000000 0.539236
vt 0.022948 0.539236
vt 0.022948 1.000000
vt 0.977052 0.539236
vt 0.977052 0.000000
vt 1.000000 0.000000
vt 1.000000 0.539236
vt 0.045896 0.539236
vt 0.045896 1.000000
vt 0.091791 0.539236
vt 0.091791 0.728812
vt 0.068844 0.728812
vt 0.068844 0.539236
vt 0.515106 0.000000
vt 0.515106 0.539236
vt 0.515106 0.348455
vt 0.515106 0.189576
vt 0.026579 0.000000
vt 0.488526 0.000000
vt 0.488526 0.539236
vt 0.026580 0.539236
vt 0.026579 0.349660
vt 0.026579 0.190782
vt 0.045896 0.730018
vt 0.068844 0.730018
vt 0.160635 0.565748
vt 0.137687 0.565748
vt 0.137687 0.539236
vt 0.160635 0.539236
vt 0.114739 0.539236
vt 0.114739 0.698115
vt 0.091791 0.698115
vt 0.114739 0.565748
vt 0.000000 0.349660
vt 0.000000 0.190782
vt 0.488526 0.348455
vt 0.488526 0.189576
vn -1.000000 0.000000 0.000000
vn 0.000000 0.000000 -1.000000
vn 1.000000 0.000000 0.000000
vn 0.000000 0.000000 1.000000
vn 0.000000 -1.000000 -0.000000
vn 0.000000 1.000000 0.000000
usemtl RoofMaterial
s off
f 2/1/1 4/2/1 3/3/1 1/4/1
f 4/5/2 8/6/2 7/7/2 3/8/2
f 8/9/3 6/10/3 5/4/3 7/3/3
f 11/11/4 2/12/4 1/13/4 12/14/4
f 1/15/5 3/6/5 7/5/5 5/16/5 10/17/5 12/18/5
f 6/19/6 8/20/6 4/21/6 2/22/6 11/23/6 9/24/6
f 6/25/4 9/9/4 10/14/4 5/26/4
f 10/27/3 9/28/3 13/29/3 14/30/3
f 13/31/4 15/32/4 16/33/4 14/11/4
f 11/31/1 12/29/1 16/28/1 15/34/1
f 9/24/6 11/23/6 15/35/6 13/36/6
f 12/18/5 10/17/5 14/37/5 16/38/5
o Window_Cube.006
v -2.371012 0.520623 -5.564503
v -2.371012 2.351975 -5.564503
v -2.371012 0.520623 -5.725864
v -2.371012 2.351975 -5.725864
v 0.655529 0.520623 -5.564503
v 0.655529 2.351975 -5.564503
v 0.655529 0.520623 -5.725864
v 0.655529 2.351975 -5.725864
v -6.411057 0.520623 -5.564503
v -6.411057 2.351975 -5.564503
v -6.411057 0.520623 -5.725864
v -6.411057 2.351975 -5.725864
v -3.384515 0.520623 -5.564503
v -3.384515 2.351975 -5.564503
v -3.384515 0.520623 -5.725864
v -3.384515 2.351975 -5.725864
vn -1.000000 0.000000 0.000000
vn 0.000000 0.000000 -1.000000
vn 1.000000 0.000000 0.000000
vn 0.000000 0.000000 1.000000
vn 0.000000 -1.000000 0.000000
vn 0.000000 1.000000 0.000000
usemtl WindowMaterial
s off
f 18//7 20//7 19//7 17//7
f 20//8 24//8 23//8 19//8
f 24//9 22//9 21//9 23//9
f 22//10 18//10 17//10 21//10
f 17//11 19//11 23//11 21//11
f 22//12 24//12 20//12 18//12
f 26//7 28//7 27//7 25//7
f 28//8 32//8 31//8 27//8
f 32//9 30//9 29//9 31//9
f 30//10 26//10 25//10 29//10
f 25//11 27//11 31//11 29//11
f 30//12 32//12 28//12 26//12
o Door_Cylinder
v -2.130562 0.988689 2.296809
v -2.130562 0.988689 2.365754
v -2.106186 0.978593 2.296809
v -2.106186 0.978593 2.365754
v -2.096089 0.954217 2.296809
v -2.096089 0.954217 2.365754
v -2.106186 0.929841 2.296809
v -2.106186 0.929841 2.365754
v -2.130562 0.919744 2.296809
v -2.130562 0.919744 2.365754
v -2.154938 0.929841 2.296809
v -2.154938 0.929841 2.365754
v -2.165035 0.954217 2.296809
v -2.165035 0.954217 2.365754
v -2.154938 0.978593 2.296809
v -2.154938 0.978593 2.365754
v -2.130562 1.002830 2.374498
v -2.096188 0.988591 2.374498
v -2.081949 0.954217 2.374498
v -2.096188 0.919842 2.374498
v -2.130562 0.905604 2.374498
v -2.164937 0.919842 2.374498
v -2.179175 0.954217 2.374498
v -2.164937 0.988591 2.374498
v -2.130562 1.002830 2.401978
v -2.096188 0.988591 2.401978
v -2.081949 0.954217 2.401978
v -2.096188 0.919842 2.401978
v -2.130562 0.905604 2.401978
v -2.164937 0.919842 2.401978
v -2.179175 0.954217 2.401978
v -2.164937 0.988591 2.401978
v -2.130562 0.982846 2.410722
v -2.110318 0.974461 2.410722
v -2.101933 0.954217 2.410722
v -2.110318 0.933973 2.410722
v -2.130562 0.925588 2.410722
v -2.150806 0.933973 2.410722
v -2.159191 0.954217 2.410722
v -2.150806 0.974461 2.410722
v -2.130562 0.919744 2.237733
v -2.130562 0.919744 2.168788
v -2.106186 0.929841 2.237733
v -2.106186 0.929841 2.168788
v -2.096089 0.954217 2.237733
v -2.096089 0.954217 2.168788
v -2.106186 0.978593 2.237733
v -2.106186 0.978593 2.168788
v -2.130562 0.988690 2.237733
v -2.130562 0.988689 2.168788
v -2.154938 0.978593 2.237733
v -2.154938 0.978593 2.168788
v -2.165035 0.954217 2.237733
v -2.165035 0.954217 2.168788
v -2.154938 0.929841 2.237733
v -2.154938 0.929841 2.168788
v -2.130562 0.905604 2.160044
v -2.096188 0.919842 2.160044
v -2.081949 0.954217 2.160044
v -2.096188 0.988591 2.160044
v -2.130562 1.002830 2.160044
v -2.164937 0.988591 2.160044
v -2.179175 0.954217 2.160044
v -2.164937 0.919842 2.160044
v -2.130562 0.905604 2.132564
v -2.096188 0.919842 2.132564
v -2.081949 0.954217 2.132564
v -2.096188 0.988591 2.132564
v -2.130562 1.002830 2.132564
v -2.164937 0.988591 2.132564
v -2.179175 0.954217 2.132564
v -2.164937 0.919842 2.132564
v -2.130562 0.925588 2.123820
v -2.110318 0.933973 2.123820
v -2.101933 0.954217 2.123820
v -2.110318 0.974461 2.123820
v -2.130562 0.982846 2.123820
v -2.150806 0.974461 2.123820
v -2.159191 0.954217 2.123820
v -2.150806 0.933973 2.123820
v -3.755575 -0.099672 2.346771
v -3.755575 0.196516 2.346771
v -3.755575 -0.099672 2.176908
v -3.755575 0.196516 2.176908
v -2.008646 -0.099672 2.346771
v -2.008646 0.196516 2.346771
v -2.008646 -0.099672 2.176908
v -2.008646 0.196516 2.176908
v -3.755575 0.196516 2.308559
v -3.755575 0.196516 2.215119
v -2.008646 0.196516 2.308559
v -2.008646 0.196516 2.215119
v -3.755575 0.486868 2.308559
v -3.755575 0.486868 2.215119
v -2.008646 0.486868 2.308559
v -2.008646 0.486868 2.215119
v -3.755575 0.486868 2.346771
v -3.755575 0.783056 2.346771
v -3.755575 0.486868 2.176908
v -3.755575 0.783056 2.176908
v -2.008646 0.486868 2.346771
v -2.008646 0.783056 2.346771
v -2.008646 0.486868 2.176908
v -2.008646 0.783056 2.176908
v -3.755575 0.783056 2.308559
v -3.755575 0.783056 2.215119
v -2.008646 0.783056 2.308559
v -2.008646 0.783056 2.215119
v -3.755575 1.073408 2.308559
v -3.755575 1.073408 2.215119
v -2.008646 1.073408 2.308559
v -2.008646 1.073408 2.215119
v -3.755575 1.073408 2.346771
v -3.755575 1.369596 2.346771
v -3.755575 1.073408 2.176908
v -3.755575 1.369596 2.176908
v -2.008646 1.073408 2.346771
v -2.008646 1.369596 2.346771
v -2.008646 1.073408 2.176908
v -2.008646 1.369596 2.176908
v -3.755575 1.369596 2.308559
v -3.755575 1.369596 2.215119
v -2.008646 1.369596 2.308559
v -2.008646 1.369596 2.215119
v -3.755575 1.659948 2.308559
v -3.755575 1.659948 2.215119
v -2.008646 1.659948 2.308559
v -2.008646 1.659948 2.215119
v -3.755575 1.659948 2.346771
v -3.755575 1.956136 2.346771
v -3.755575 1.659948 2.176908
v -3.755575 1.956136 2.176908
v -2.008646 1.659948 2.346771
v -2.008646 1.956136 2.346771
v -2.008646 1.659948 2.176908
v -2.008646 1.956136 2.176908
v -3.755575 1.956136 2.308559
v -3.755575 1.956136 2.215119
v -2.008646 1.956136 2.308559
v -2.008646 1.956136 2.215119
v -3.755575 2.246489 2.308559
v -3.755575 2.246489 2.215119
v -2.008646 2.246489 2.308559
v -2.008646 2.246489 2.215119
vt 0.780775 0.881671
vt 0.780775 0.861937
vt 0.787766 0.861937
vt 0.787766 0.881671
vt 0.815493 0.861937
vt 0.815493 0.881671
vt 0.808937 0.881671
vt 0.808937 0.861937
vt 0.801629 0.881671
vt 0.801629 0.861937
vt 0.681234 0.875046
vt 0.681234 0.855312
vt 0.688224 0.855312
vt 0.688224 0.875046
vt 0.695215 0.855312
vt 0.695215 0.875046
vt 0.829356 0.861937
vt 0.829356 0.881671
vt 0.822800 0.881671
vt 0.822800 0.861937
vt 0.777531 0.852859
vt 0.782881 0.858198
vt 0.781330 0.861937
vt 0.773784 0.854407
vt 0.773784 0.881671
vt 0.773784 0.861937
vt 0.856418 0.872690
vt 0.851067 0.867351
vt 0.851067 0.859799
vt 0.856418 0.854459
vt 0.863985 0.854459
vt 0.869335 0.859799
vt 0.869335 0.867351
vt 0.863985 0.872690
vt 0.858948 0.882529
vt 0.858948 0.892368
vt 0.851067 0.892368
vt 0.851067 0.882529
vt 0.790448 0.839967
vt 0.782881 0.839967
vt 0.781330 0.836228
vt 0.792000 0.836228
vt 0.790448 0.858198
vt 0.795799 0.852859
vt 0.799545 0.854407
vt 0.792000 0.861937
vt 0.777531 0.845307
vt 0.773784 0.843758
vt 0.795799 0.845307
vt 0.799545 0.843758
vt 0.832852 0.861937
vt 0.825306 0.854407
vt 0.830601 0.852219
vt 0.835045 0.856653
vt 0.695215 0.884216
vt 0.703096 0.874990
vt 0.703096 0.884216
vt 0.891198 0.846067
vt 0.891198 0.855905
vt 0.883317 0.855905
vt 0.883317 0.846067
vt 0.891198 0.885923
vt 0.891198 0.895149
vt 0.883317 0.895149
vt 0.883317 0.885923
vt 0.695215 0.894500
vt 0.703096 0.894500
vt 0.891198 0.836228
vt 0.883317 0.836228
vt 0.891198 0.875639
vt 0.883317 0.875639
vt 0.858948 0.872690
vt 0.851067 0.872690
vt 0.830601 0.845947
vt 0.835045 0.841512
vt 0.841329 0.841512
vt 0.845772 0.845947
vt 0.845772 0.852219
vt 0.841329 0.856653
vt 0.825306 0.843758
vt 0.832852 0.836228
vt 0.843522 0.836228
vt 0.851067 0.843758
vt 0.851067 0.854407
vt 0.843522 0.861937
vt 0.876326 0.855961
vt 0.876326 0.875695
vt 0.869335 0.875695
vt 0.869335 0.855961
vt 0.795073 0.861937
vt 0.795074 0.881671
vt 0.883317 0.855962
vt 0.876326 0.836228
vt 0.869335 0.836228
vt 0.836663 0.861937
vt 0.836663 0.881671
vt 0.690331 0.851573
vt 0.697898 0.851573
vt 0.699449 0.855312
vt 0.688779 0.855312
vt 0.883317 0.875695
vt 0.843219 0.861937
vt 0.843219 0.881671
vt 0.869335 0.849120
vt 0.851067 0.849120
vt 0.851067 0.841568
vt 0.856418 0.836228
vt 0.863985 0.836228
vt 0.869335 0.841568
vt 0.883317 0.865800
vt 0.891198 0.855961
vt 0.891198 0.865800
vt 0.690331 0.833342
vt 0.684980 0.838682
vt 0.681234 0.837133
vt 0.688779 0.829603
vt 0.703248 0.846234
vt 0.703248 0.838682
vt 0.706995 0.837133
vt 0.706995 0.847782
vt 0.684980 0.846234
vt 0.681234 0.847782
vt 0.697898 0.833342
vt 0.699449 0.829603
vt 0.817761 0.836228
vt 0.820011 0.845947
vt 0.815568 0.841512
vt 0.689115 0.884272
vt 0.689115 0.894556
vt 0.681234 0.894556
vt 0.681234 0.884272
vt 0.703096 0.865151
vt 0.695215 0.865151
vt 0.858948 0.882975
vt 0.866830 0.872690
vt 0.866830 0.882975
vt 0.689115 0.875046
vt 0.703096 0.855312
vt 0.858948 0.892201
vt 0.866830 0.892201
vt 0.820011 0.852219
vt 0.815568 0.856653
vt 0.809284 0.856653
vt 0.804840 0.852219
vt 0.804840 0.845947
vt 0.809284 0.841512
vt 0.817761 0.861937
vt 0.807091 0.861937
vt 0.807091 0.836228
vt 0.822500 0.584057
vt 0.871215 0.584057
vt 0.871215 0.668114
vt 0.822500 0.668114
vt 0.679555 0.000000
vt 0.679555 0.500000
vt 0.594611 0.500000
vt 0.594611 0.000000
vt 0.822500 0.500000
vt 0.871215 0.500000
vt 0.339778 0.000000
vt 0.339778 0.500000
vt 0.254833 0.500000
vt 0.254833 0.000000
vt 0.929367 0.000000
vt 0.978082 0.000000
vt 0.978082 0.500000
vt 0.929367 0.500000
vt 0.729949 0.500000
vt 0.729949 1.000000
vt 0.718990 1.000000
vt 0.718990 0.500000
vt 0.171563 1.000000
vt 0.171563 0.500000
vt 0.254833 1.000000
vt 0.740908 0.500000
vt 0.740908 1.000000
vt 0.084944 0.500000
vt 0.621408 0.500000
vt 0.648206 0.500000
vt 0.648206 1.000000
vt 0.621408 1.000000
vt 0.846096 0.000000
vt 0.846096 0.500000
vt 0.762826 0.500000
vt 0.762826 0.000000
vt 0.681234 0.582401
vt 0.708031 0.582401
vt 0.708031 0.664802
vt 0.681234 0.664802
vt 0.681234 0.500000
vt 0.708031 0.500000
vt 0.773784 0.500000
vt 0.773784 0.584057
vt 0.000000 0.500000
vt 0.000000 0.000000
vt 0.084944 0.000000
vt 0.773784 0.668114
vt 0.169889 0.000000
vt 0.169889 0.500000
vt 0.470090 0.500000
vt 0.518805 0.500000
vt 0.518805 1.000000
vt 0.470090 1.000000
vt 0.989041 0.000000
vt 0.989041 0.500000
vt 0.338104 0.500000
vt 0.338104 1.000000
vt 0.708031 1.000000
vt 0.594611 1.000000
vt 0.166541 0.500000
vt 0.166541 1.000000
vt 0.083271 1.000000
vt 0.083271 0.500000
vt 0.898013 0.664802
vt 0.871215 0.664802
vt 0.871215 0.582401
vt 0.898013 0.582401
vt 0.708031 0.829603
vt 0.681234 0.829603
vt 0.681234 0.747202
vt 0.708031 0.747202
vt 0.822500 0.752171
vt 0.773784 0.752171
vt 0.509666 0.500000
vt 0.509666 0.000000
vt 0.871215 0.752171
vt 0.424722 0.000000
vt 0.424722 0.500000
vt 0.421375 0.500000
vt 0.421375 1.000000
vt 0.751867 0.500000
vt 0.751867 1.000000
vt 0.773784 1.000000
vt 0.762826 1.000000
vt 0.675004 0.500000
vt 0.675004 1.000000
vt 0.000000 1.000000
vt 0.898013 0.500000
vt 0.898013 0.829603
vt 0.871215 0.829603
vt 0.871215 0.747202
vt 0.898013 0.747202
vt 0.871215 0.836228
vt 0.822500 0.836228
vt 0.773784 0.836228
vt 0.567520 0.500000
vt 0.567521 1.000000
vt 1.000000 0.000000
vt 1.000000 0.500000
vt 0.594318 0.500000
vt 0.594318 1.000000
vn 0.382700 0.923900 0.000000
vn 0.923900 0.382700 0.000000
vn 0.923900 -0.382700 0.000000
vn 0.382700 -0.923900 0.000000
vn -0.382700 -0.923900 0.000000
vn -0.923900 -0.382700 0.000000
vn -0.513900 0.212900 -0.831000
vn -0.382700 0.923900 0.000000
vn -0.923900 0.382700 0.000000
vn 0.000000 0.000000 -1.000000
vn 0.513900 0.212900 -0.831000
vn -0.212900 -0.513900 -0.831000
vn -0.212900 0.513900 -0.831000
vn 0.212900 0.513900 -0.831000
vn 0.513900 -0.212900 -0.831000
vn -0.513900 -0.212900 -0.831000
vn 0.212900 -0.513900 -0.831000
vn 0.395400 -0.163800 0.903800
vn -0.000000 0.000000 1.000000
vn 0.163800 0.395400 0.903800
vn -0.163800 0.395400 0.903800
vn -0.395400 -0.163800 0.903800
vn 0.163800 -0.395400 0.903800
vn 0.395400 0.163800 0.903800
vn -0.395400 0.163800 0.903800
vn -0.163800 -0.395400 0.903800
vn -0.513900 -0.212900 0.831000
vn 0.513900 -0.212900 0.831000
vn -0.212900 0.513900 0.831000
vn -0.212900 -0.513900 0.831000
vn 0.212900 -0.513900 0.831000
vn 0.513900 0.212900 0.831000
vn -0.513900 0.212900 0.831000
vn 0.212900 0.513900 0.831000
vn 0.395400 0.163800 -0.903800
vn 0.163800 -0.395400 -0.903800
vn -0.163800 -0.395400 -0.903800
vn -0.395400 0.163800 -0.903800
vn 0.163800 0.395400 -0.903800
vn 0.395400 -0.163800 -0.903800
vn -0.395400 -0.163800 -0.903800
vn -0.163800 0.395400 -0.903800
vn -1.000000 0.000000 0.000000
vn 1.000000 0.000000 0.000000
vn 0.000000 -1.000000 0.000000
vn 0.000000 1.000000 0.000000
usemtl Latch
s off
f 33/39/13 34/40/13 36/41/13 35/42/13
f 35/43/14 36/44/14 38/45/14 37/46/14
f 37/46/15 38/45/15 40/47/15 39/48/15
f 39/49/16 40/50/16 42/51/16 41/52/16
f 41/52/17 42/51/17 44/53/17 43/54/17
f 43/55/18 44/56/18 46/57/18 45/58/18
f 48/59/19 46/60/19 55/61/19 56/62/19
f 47/63/20 48/64/20 34/40/20 33/39/20
f 45/58/21 46/57/21 48/44/21 47/43/21
f 33/65/22 35/66/22 37/67/22 39/68/22 41/69/22 43/70/22 45/71/22 47/72/22
f 49/73/20 56/74/20 64/75/20 57/76/20
f 38/77/23 36/78/23 50/79/23 51/80/23
f 44/81/24 42/82/24 53/83/24 54/84/24
f 34/85/25 48/59/25 56/62/25 49/86/25
f 36/78/26 34/85/26 49/86/26 50/79/26
f 40/87/27 38/77/27 51/80/27 52/88/27
f 46/60/28 44/81/28 54/84/28 55/61/28
f 42/82/29 40/87/29 52/88/29 53/83/29
f 60/89/30 59/90/30 67/91/30 68/92/30
f 55/93/18 54/54/18 62/94/18 63/95/18
f 53/96/16 52/97/16 60/98/16 61/99/16
f 51/100/14 50/101/14 58/102/14 59/103/14
f 56/104/21 55/93/21 63/95/21 64/105/21
f 54/106/17 53/96/17 61/99/17 62/107/17
f 52/108/15 51/100/15 59/103/15 60/109/15
f 50/110/13 49/73/13 57/76/13 58/111/13
f 66/112/31 65/113/31 72/114/31 71/115/31 70/116/31 69/117/31 68/92/31 67/91/31
f 58/118/32 57/119/32 65/113/32 66/112/32
f 57/119/33 64/120/33 72/114/33 65/113/33
f 63/121/34 62/122/34 70/116/34 71/115/34
f 61/123/35 60/89/35 68/92/35 69/117/35
f 59/90/36 58/118/36 66/112/36 67/91/36
f 64/120/37 63/121/37 71/115/37 72/114/37
f 62/122/38 61/123/38 69/117/38 70/116/38
f 73/124/16 74/125/16 76/126/16 75/127/16
f 75/42/15 76/41/15 78/128/15 77/129/15
f 77/129/14 78/128/14 80/48/14 79/47/14
f 79/107/13 80/130/13 82/124/13 81/131/13
f 81/131/20 82/124/20 84/127/20 83/132/20
f 83/56/21 84/55/21 86/133/21 85/134/21
f 88/135/39 86/136/39 95/137/39 96/138/39
f 87/130/17 88/139/17 74/125/17 73/124/17
f 85/134/18 86/133/18 88/140/18 87/141/18
f 73/142/31 75/69/31 77/68/31 79/143/31 81/144/31 83/145/31 85/146/31 87/147/31
f 89/148/17 96/130/17 104/149/17 97/150/17
f 78/151/40 76/152/40 90/153/40 91/154/40
f 84/155/41 82/156/41 93/157/41 94/158/41
f 74/159/42 88/135/42 96/138/42 89/160/42
f 76/152/43 74/159/43 89/160/43 90/153/43
f 80/161/44 78/151/44 91/154/44 92/162/44
f 86/136/45 84/155/45 94/158/45 95/137/45
f 82/156/46 80/161/46 92/162/46 93/157/46
f 100/163/47 99/118/47 107/164/47 108/165/47
f 95/166/21 94/167/21 102/168/21 103/169/21
f 93/170/13 92/94/13 100/54/13 101/171/13
f 91/172/15 90/110/15 98/173/15 99/174/15
f 96/175/18 95/166/18 103/169/18 104/49/18
f 94/176/20 93/170/20 101/171/20 102/53/20
f 92/177/14 91/172/14 99/174/14 100/178/14
f 90/109/16 89/148/16 97/150/16 98/108/16
f 106/179/22 105/180/22 112/181/22 111/182/22 110/183/22 109/184/22 108/165/22 107/164/22
f 98/90/48 97/185/48 105/180/48 106/179/48
f 97/185/49 104/186/49 112/181/49 105/180/49
f 103/83/50 102/88/50 110/183/50 111/182/50
f 101/187/51 100/163/51 108/165/51 109/184/51
f 99/118/52 98/90/52 106/179/52 107/164/52
f 104/186/53 103/83/53 111/182/53 112/181/53
f 102/88/54 101/187/54 109/184/54 110/183/54
usemtl DoorMaterial
f 114/188/55 116/189/55 115/190/55 113/191/55
f 116/192/22 120/193/22 119/194/22 115/195/22
f 120/189/56 118/188/56 117/196/56 119/197/56
f 118/198/31 114/199/31 113/200/31 117/201/31
f 113/202/57 115/203/57 119/204/57 117/205/57
f 114/206/58 118/207/58 123/208/58 121/209/58
f 121/210/31 123/211/31 127/200/31 125/212/31
f 120/207/58 116/206/58 122/213/58 124/214/58
f 118/215/58 120/215/58 124/215/58 123/215/58
f 116/215/31 114/215/31 121/215/31 122/215/31
f 127/216/58 128/217/58 126/218/58 125/219/58
f 124/220/22 122/221/22 126/222/22 128/223/22
f 123/224/56 124/225/56 128/226/56 127/227/56
f 122/225/55 121/224/55 125/228/55 126/229/55
f 130/230/55 132/196/55 131/188/55 129/231/55
f 132/232/22 136/233/22 135/234/22 131/215/22
f 136/191/56 134/235/56 133/231/56 135/188/56
f 134/236/31 130/237/31 129/215/31 133/234/31
f 129/238/57 131/239/57 135/240/57 133/241/57
f 130/204/58 134/203/58 139/242/58 137/243/58
f 137/212/31 139/200/31 143/244/31 141/245/31
f 136/246/58 132/229/58 138/209/58 140/208/58
f 134/233/58 136/233/58 140/233/58 139/233/58
f 132/233/31 130/233/31 137/233/31 138/233/31
f 143/194/58 144/216/58 142/219/58 141/247/58
f 140/248/22 138/249/22 142/250/22 144/251/22
f 139/252/56 140/253/56 144/254/56 143/255/56
f 138/256/55 137/257/55 141/258/55 142/259/55
f 146/260/55 148/261/55 147/235/55 145/191/55
f 148/195/22 152/194/22 151/262/22 147/263/22
f 152/191/56 150/190/56 149/264/56 151/260/56
f 150/265/31 146/266/31 145/199/31 149/198/31
f 145/267/57 147/238/57 151/241/57 149/268/57
f 146/269/58 150/270/58 155/214/58 153/213/58
f 153/245/31 155/244/31 159/267/31 157/268/31
f 152/230/58 148/271/58 154/272/58 156/222/58
f 150/233/58 152/233/58 156/233/58 155/233/58
f 148/215/31 146/215/31 153/215/31 154/215/31
f 159/217/58 160/273/58 158/274/58 157/218/58
f 156/251/22 154/250/22 158/275/22 160/232/22
f 155/197/56 156/276/56 160/255/56 159/254/56
f 154/277/55 153/278/55 157/279/55 158/280/55
f 162/260/55 164/264/55 163/281/55 161/282/55
f 164/263/22 168/262/22 167/266/22 163/265/22
f 168/282/56 166/283/56 165/261/56 167/260/56
f 166/201/31 162/200/31 161/237/31 165/236/31
f 161/239/57 163/284/57 167/285/57 165/240/57
f 162/243/58 166/242/58 171/286/58 169/287/58
f 169/221/31 171/220/31 175/202/31 173/205/31
f 168/222/58 164/272/58 170/270/58 172/269/58
f 166/215/58 168/215/58 172/215/58 171/215/58
f 164/215/31 162/215/31 169/215/31 170/215/31
f 175/284/58 176/288/58 174/289/58 173/285/58
f 172/223/22 170/222/22 174/193/22 176/192/22
f 171/253/56 172/252/56 176/280/56 175/279/56
f 170/259/55 169/258/55 173/227/55 174/226/55
o BaseDoor_Cube.004
v -1.888708 -0.123687 2.153226
v -3.888708 -0.123687 2.371869
v -3.888708 2.376313 2.153226
v -1.888708 2.376313 2.153226
v -3.888708 -0.123687 2.153226
v -1.888708 2.376313 2.371869
v -3.888708 2.376313 2.371869
v -1.888708 -0.123687 2.371869
v -3.756617 2.261543 2.153226
v -3.756617 -0.125472 2.153226
v -2.020799 -0.125472 2.153226
v -2.020799 2.261543 2.153226
v -3.756617 -0.125472 2.371869
v -2.020799 -0.125472 2.371869
v -2.020799 2.261543 2.371869
v -3.756617 2.261543 2.371869
vt 0.800000 0.511373
vt 0.900000 0.511373
vt 0.900000 0.999635
vt 0.800000 0.999635
vt 0.800000 0.000000
vt 0.900000 0.000000
vt 0.400000 0.511373
vt 0.400000 0.000000
vt 0.426418 0.023476
vt 0.426418 0.511738
vt 0.100000 0.511738
vt 0.200000 0.511738
vt 0.200000 0.920836
vt 0.100000 0.920836
vt 1.000000 0.000000
vt 1.000000 0.511373
vt 0.773582 0.511738
vt 0.773582 0.023476
vt 0.326418 0.614013
vt 0.300000 0.614013
vt 0.300000 0.511738
vt 0.326418 0.511738
vt 0.300000 0.866798
vt 0.200000 0.866798
vt 0.352836 0.511738
vt 0.352836 0.614013
vt 0.000000 0.511373
vt 0.000000 0.000000
vt 0.026418 0.023476
vt 0.026418 0.511738
vt 0.100000 1.000000
vt 0.000000 1.000000
vt 0.000000 0.511738
vt 0.373582 0.023476
vt 0.373582 0.511738
vn -1.000000 0.000000 0.000000
vn 0.000000 0.000000 1.000000
vn 0.000000 1.000000 0.000000
vn 1.000000 0.000000 0.000000
vn 0.013500 -0.999900 0.000000
vn 0.000000 -1.000000 0.000000
vn -0.013500 -0.999900 0.000000
vn 0.000000 0.000000 -1.000000
usemtl BaseDoor
s off
f 191/290/59 188/291/59 187/292/59 190/293/59
f 183/294/59 179/295/59 181/291/59 178/290/59
f 184/296/60 182/297/60 191/298/60 190/299/60
f 182/300/61 180/301/61 179/302/61 183/303/61
f 184/295/62 177/304/62 180/305/62 182/291/62
f 183/294/60 178/290/60 189/306/60 192/307/60
f 184/308/63 190/309/63 187/310/63 177/311/63
f 191/310/64 192/312/64 185/313/64 188/301/64
f 178/308/65 181/311/65 186/314/65 189/315/65
f 181/316/66 179/317/66 185/318/66 186/319/66
f 182/297/60 183/294/60 192/307/60 191/298/60
f 186/300/62 185/320/62 192/321/62 189/322/62
f 179/317/66 180/297/66 188/323/66 185/318/66
f 180/297/66 177/296/66 187/324/66 188/323/66
o Floor_Plane
v -7.270190 -0.113656 -5.716396
v -7.270190 -0.113656 1.704799
v 1.531161 -0.113656 -5.716396
v 1.531161 -0.113656 1.704800
v -1.708357 -0.113656 1.704800
v -4.140926 -0.113656 1.704800
v -1.708357 -0.113656 2.337693
v -4.140926 -0.113656 2.337693
vt 0.000000 1.000000
vt 0.000000 0.078580
vt 0.355543 0.078580
vt 0.631929 0.078580
vt 1.000000 0.078580
vt 1.000000 1.000000
vt 0.355543 0.000000
vt 0.631929 0.000000
vn 0.000000 1.000000 0.000000
usemtl FloorMaterial
s off
f 193/325/67 194/326/67 198/327/67 197/328/67 196/329/67 195/330/67
f 197/328/67 198/327/67 200/331/67 199/332/67
o BaseWindow_Cube.002
v -2.531961 0.428960 -5.802454
v -2.531961 2.428960 -5.802454
v 0.843045 0.428959 -5.802454
v 0.843045 2.428959 -5.802454
v -2.531961 0.428960 -5.495251
v -2.531961 2.428960 -5.495251
v 0.843045 0.428959 -5.495251
v 0.843045 2.428959 -5.495251
v -2.333514 0.543717 -5.802454
v -2.333514 2.314203 -5.802454
v 0.644597 2.314203 -5.802454
v 0.644597 0.543716 -5.802454
v 0.644597 2.314203 -5.495251
v 0.644597 0.543716 -5.495251
v -2.333514 2.314203 -5.495251
v -2.333514 0.543717 -5.495251
v -6.593384 0.428960 -5.802454
v -6.593384 2.428960 -5.802454
v -3.218378 0.428960 -5.802454
v -3.218378 2.428960 -5.802454
v -6.593384 0.428960 -5.495251
v -6.593384 2.428960 -5.495251
v -3.218378 0.428960 -5.495251
v -3.218378 2.428960 -5.495251
v -6.394936 0.543717 -5.802454
v -6.394936 2.314203 -5.802454
v -3.416825 2.314203 -5.802454
v -3.416825 0.543717 -5.802454
v -3.416825 2.314203 -5.495251
v -3.416825 0.543717 -5.495251
v -6.394936 2.314203 -5.495251
v -6.394936 0.543717 -5.495251
vt 0.722541 0.000000
vt 0.722542 0.346591
vt 0.701299 0.326704
vt 0.701299 0.019887
vt 0.778033 0.000000
vt 0.778033 0.346591
vt 0.361271 0.346591
vt 0.361271 0.000000
vt 0.382513 0.019887
vt 0.382513 0.326704
vt 0.833525 0.000000
vt 0.833525 0.346591
vt 0.889017 0.693182
vt 0.889017 0.346591
vt 0.944508 0.346591
vt 0.944508 0.693182
vt 0.778033 0.693182
vt 0.722542 0.693182
vt 0.361271 0.693182
vt 0.000000 0.693183
vt 0.021242 0.673296
vt 0.340028 0.673296
vt 0.000000 0.346591
vt 0.340028 0.366478
vt 0.021242 0.366478
vt 0.055492 0.999015
vt 0.055492 0.693183
vt 0.110983 0.693183
vt 0.110983 0.999015
vt 0.944508 0.920452
vt 0.944508 0.613635
vt 1.000000 0.613635
vt 1.000000 0.920452
vt 1.000000 0.306817
vt 0.944508 0.306817
vt 0.944508 0.000000
vt 1.000000 0.000000
vt 0.221967 0.999015
vt 0.221967 0.693183
vt 0.277459 0.693183
vt 0.277459 0.999015
vt 0.701299 0.673296
vt 0.701299 0.366478
vt 0.833525 0.693182
vt 0.382513 0.366478
vt 0.382513 0.673296
vt 0.889017 0.000000
vt 0.000000 0.000000
vt 0.340028 0.019887
vt 0.021242 0.019887
vt 0.021242 0.326704
vt 0.340028 0.326704
vt 0.166475 0.693183
vt 0.166475 0.999015
vt 0.000000 1.000000
vt 0.055492 1.000000
vn 0.000000 0.000000 -1.000000
vn 1.000000 0.000000 0.000000
vn -1.000000 0.000000 0.000000
vn -0.000000 -1.000000 0.000000
vn 0.000000 1.000000 0.000000
vn 0.000000 0.000000 1.000000
usemtl WindowMaterial.001
s off
f 201/333/68 202/334/68 210/335/68 209/336/68
f 204/333/69 208/337/69 207/338/69 203/334/69
f 204/339/68 203/340/68 212/341/68 211/342/68
f 206/337/70 202/343/70 201/344/70 205/338/70
f 201/345/71 203/346/71 207/347/71 205/348/71
f 206/338/72 208/349/72 204/350/72 202/334/72
f 205/351/73 207/352/73 214/353/73 216/354/73
f 208/355/73 206/339/73 215/356/73 213/357/73
f 207/352/73 208/355/73 213/357/73 214/353/73
f 203/340/68 201/333/68 209/336/68 212/341/68
f 202/334/68 204/339/68 211/342/68 210/335/68
f 206/339/73 205/351/73 216/354/73 215/356/73
f 212/358/72 209/359/72 216/360/72 214/361/72
f 209/362/69 210/363/69 215/364/69 216/365/69
f 212/366/70 214/367/70 213/368/70 211/369/70
f 210/370/71 211/371/71 213/372/71 215/373/71
f 217/334/68 218/350/68 226/374/68 225/375/68
f 220/344/69 224/346/69 223/345/69 219/376/69
f 220/351/68 219/339/68 228/377/68 227/378/68
f 222/343/70 218/379/70 217/346/70 221/344/70
f 217/349/71 219/338/71 223/344/71 221/376/71
f 222/346/72 224/379/72 220/368/72 218/347/72
f 221/380/73 223/340/73 230/381/73 232/382/73
f 224/339/73 222/355/73 231/383/73 229/384/73
f 223/340/73 224/339/73 229/384/73 230/381/73
f 219/339/68 217/334/68 225/375/68 228/377/68
f 218/350/68 220/351/68 227/378/68 226/374/68
f 222/355/73 221/380/73 232/382/73 231/383/73
f 228/361/72 225/360/72 232/385/72 230/386/72
f 225/387/69 226/352/69 231/359/69 232/388/69
f 228/364/70 230/363/70 229/367/70 227/366/70
f 226/386/71 227/385/71 229/371/71 231/370/71
o Home_Cube
v -6.962237 -0.118391 1.321500
v -7.339381 -0.118391 1.321500
v -7.339383 -0.118391 -5.521026
v -6.962239 -0.118391 -5.521026
v -6.962237 3.118391 1.321501
v -6.962239 3.118391 -5.521026
v -7.339381 3.118391 1.321500
v -7.339383 3.118391 -5.521026
v -7.339383 -0.118391 -5.766485
v -6.962239 -0.118391 -5.766485
v 1.171612 3.118392 -5.521027
v -6.593384 0.428960 -5.521026
v -6.593384 2.428960 -5.521026
v -3.218379 2.428960 -5.521027
v -3.218379 0.428960 -5.521027
v -2.532264 0.428960 -5.521027
v -2.532264 2.428960 -5.521027
v 0.842741 2.428960 -5.521027
v 0.842741 0.428960 -5.521027
v -7.339383 3.118391 -5.766485
v 1.171612 -0.118391 -5.766485
v 1.171612 -0.118391 -5.521027
v -6.962239 3.118391 -5.766485
v 1.171612 3.118392 -5.766485
v -6.593384 0.428960 -5.766485
v -6.593384 2.428960 -5.766485
v -3.218379 2.428960 -5.766485
v -3.218379 0.428960 -5.766485
v -2.532264 0.428960 -5.766485
v -2.532264 2.428960 -5.766485
v 0.842741 2.428960 -5.766485
v 0.842741 0.428960 -5.766485
v 1.587350 -0.118391 -5.766485
v 1.587350 -0.118391 -5.521027
v 1.171614 -0.118391 1.658633
v 1.171614 3.118392 1.658633
v 1.587350 3.118392 -5.521027
v 1.587350 3.118392 -5.766485
v 1.587352 -0.118391 1.658633
v 1.587352 3.118392 1.658633
v -1.555596 -0.118391 1.658633
v -1.555596 3.118392 1.658633
v 1.587353 -0.118391 1.901636
v 1.171615 -0.118391 1.901636
v 1.171615 3.118392 1.901636
v 1.587353 3.118392 1.901636
v -1.555595 3.118392 1.901636
v -1.555595 -0.118391 1.901636
v -1.826626 -0.118391 1.658632
v -1.826626 3.118392 1.658632
v -1.826626 3.118392 1.901636
v -1.826626 -0.118391 1.901636
v -1.555595 3.118392 2.186471
v -1.555595 -0.118391 2.186471
v -1.826625 3.118392 2.186471
v -1.826625 -0.118391 2.186471
v -1.555595 3.118392 2.341835
v -1.555595 -0.118391 2.341835
v -1.826625 3.118392 2.341835
v -1.826625 -0.118391 2.341835
v -1.888708 -0.118391 2.186471
v -1.888708 2.376313 2.186471
v -3.888708 2.376313 2.186471
v -3.888708 -0.118391 2.186471
v -3.981969 -0.118391 2.186471
v -3.981969 3.118392 2.186471
v -3.981969 3.118392 2.341836
v -1.888708 -0.118391 2.341835
v -3.888708 -0.118391 2.341836
v -3.981969 -0.118391 2.341836
v -3.981969 -0.118391 1.905335
v -3.981969 3.118392 1.905335
v -3.888708 2.376313 2.341836
v -1.888708 2.376313 2.341835
v -4.216684 3.118392 2.186471
v -4.216684 3.118392 2.341836
v -4.216684 -0.118391 2.341836
v -4.216684 -0.118391 2.186471
v -4.216684 3.118392 1.905335
v -4.216684 -0.118391 1.905335
v -3.981969 -0.118391 1.653792
v -3.981969 3.118392 1.653792
v -4.216684 3.118392 1.653792
v -4.216684 -0.118391 1.653792
v -6.980277 3.118392 1.905335
v -6.980277 -0.118391 1.905335
v -6.980277 3.118392 1.653792
v -6.980277 -0.118391 1.653792
v -7.351471 3.118392 1.905335
v -7.351471 -0.118391 1.905335
v -7.351471 3.118392 1.653792
v -7.351471 -0.118391 1.653792
v -6.980277 3.118392 1.653792
v -6.980277 -0.118391 1.653792
v -6.962237 -0.118391 1.321500
v -6.962237 3.118391 1.321501
v -7.339381 3.118391 1.321500
v -7.351471 3.118392 1.653792
v -7.351471 -0.118391 1.653792
v -7.339381 -0.118391 1.321500
vt 0.620673 0.056420
vt 0.634058 0.056420
vt 0.634058 0.434784
vt 0.620673 0.434784
vt 0.182971 0.448357
vt 0.365942 0.448357
vt 0.365942 0.826719
vt 0.182971 0.826719
vt 0.917931 0.284076
vt 0.917931 0.463057
vt 0.904546 0.463057
vt 0.904546 0.284076
vt 0.000000 0.448357
vt 0.000000 0.826720
vt 0.634058 0.448357
vt 0.620673 0.448357
vt 0.303429 0.391937
vt 0.303429 0.013573
vt 0.316814 0.013573
vt 0.316814 0.391937
vt 0.817029 0.282379
vt 0.817029 0.000000
vt 1.000000 0.000000
vt 0.969059 0.012805
vt 0.856001 0.012805
vt 0.856001 0.129974
vt 0.969059 0.129974
vt 0.969059 0.153793
vt 0.856001 0.153793
vt 0.856001 0.270962
vt 0.969059 0.270962
vt 0.182971 0.840293
vt 0.000000 0.840293
vt 0.331998 0.448357
vt 0.331998 0.434784
vt 0.548913 0.448357
vt 0.548913 0.461450
vt 0.365942 0.461450
vt 0.303429 0.000000
vt 0.316814 0.000000
vt 1.000000 0.282379
vt 0.014755 0.013573
vt 0.014755 0.000000
vt 0.935304 0.463057
vt 0.935304 0.573649
vt 0.921428 0.573649
vt 0.921428 0.463057
vt 0.921428 0.580226
vt 0.907553 0.580226
vt 0.907553 0.463057
vt 0.925348 0.752630
vt 0.925348 0.863222
vt 0.911472 0.863222
vt 0.911472 0.752630
vt 0.931806 0.284076
vt 0.931806 0.394668
vt 0.917931 0.394668
vt 0.879802 0.580226
vt 0.879802 0.463057
vt 0.893677 0.463057
vt 0.893677 0.580226
vt 0.925348 0.642038
vt 0.911472 0.642038
vt 0.365942 0.743829
vt 0.396883 0.474256
vt 0.396883 0.591424
vt 0.396883 0.615243
vt 0.396883 0.732412
vt 0.509941 0.732412
vt 0.548913 0.743829
vt 0.317243 0.448357
vt 0.317243 0.434784
vt 0.509941 0.615243
vt 0.509941 0.591424
vt 0.509941 0.474256
vt 0.817029 0.821019
vt 0.634058 0.821019
vt 0.634058 0.424014
vt 0.817029 0.424014
vt 0.865926 0.580226
vt 0.865926 0.463057
vt 0.000000 0.013573
vt 0.000000 0.000000
vt 0.548913 0.758262
vt 0.365942 0.758262
vt 0.317243 0.037778
vt 0.331998 0.037778
vt 0.634058 0.410441
vt 0.817029 0.410441
vt 0.014755 0.410579
vt 0.000000 0.410579
vt 0.745313 1.000000
vt 0.745313 0.821019
vt 0.842103 0.821019
vt 0.842103 1.000000
vt 0.634058 0.013437
vt 0.817029 0.013437
vt 0.317243 0.024341
vt 0.331998 0.024341
vt 0.014755 0.424016
vt 0.000000 0.424016
vt 0.111545 0.410579
vt 0.111545 0.424016
vt 0.428788 0.024341
vt 0.428788 0.037778
vt 0.851722 0.821019
vt 0.851722 1.000000
vt 0.634058 0.000000
vt 0.582318 0.937243
vt 0.582318 0.758262
vt 0.597072 0.758262
vt 0.597072 0.937243
vt 0.485528 0.937243
vt 0.485528 0.758262
vt 0.121164 0.410579
vt 0.121164 0.424016
vt 0.438407 0.024341
vt 0.438407 0.037778
vt 0.817029 0.463057
vt 0.817029 0.284076
vt 0.830766 0.284076
vt 0.830765 0.463057
vt 0.600524 0.806319
vt 0.600524 0.627338
vt 0.616625 0.627338
vt 0.616625 0.806319
vt 0.121164 0.439766
vt 0.111545 0.439766
vt 0.428788 0.008591
vt 0.438407 0.008591
vt 0.846867 0.284076
vt 0.846867 0.463057
vt 0.625408 0.627338
vt 0.625408 0.806319
vt 0.121164 0.448357
vt 0.111545 0.448357
vt 0.428788 0.000000
vt 0.438407 0.000000
vt 0.625408 0.448357
vt 0.623204 0.627338
vt 0.623204 0.489391
vt 0.552223 0.489391
vt 0.552223 0.627338
vt 0.548913 0.627338
vt 0.817029 0.642038
vt 0.826648 0.642038
vt 0.826648 0.821019
vt 0.197658 0.439766
vt 0.197658 0.448357
vt 0.440610 0.000000
vt 0.440610 0.008591
vt 0.548913 0.747553
vt 0.548913 0.744315
vt 0.557696 0.744315
vt 0.557696 0.747553
vt 0.847140 0.463057
vt 0.847140 0.642038
vt 0.831248 0.642038
vt 0.831248 0.463057
vt 0.903142 0.642038
vt 0.903142 0.821019
vt 0.899832 0.821019
vt 0.899832 0.683072
vt 0.828851 0.683072
vt 0.828851 0.821019
vt 0.205988 0.439766
vt 0.205988 0.448357
vt 0.548913 0.736167
vt 0.557696 0.736167
vt 0.197658 0.424220
vt 0.205988 0.424220
vt 0.573588 0.736167
vt 0.573588 0.744315
vt 0.911472 0.821019
vt 0.855649 0.284076
vt 0.855649 0.463057
vt 0.871542 0.284076
vt 0.871542 0.463057
vt 0.197658 0.410311
vt 0.205988 0.410311
vt 0.587808 0.736167
vt 0.587808 0.744315
vt 0.365942 0.937243
vt 0.374272 0.758262
vt 0.374272 0.937243
vt 0.634058 1.000000
vt 0.732139 0.821019
vt 0.732139 1.000000
vt 0.304069 0.410311
vt 0.304069 0.424220
vt 0.573588 0.640224
vt 0.587808 0.640224
vt 0.472354 0.758262
vt 0.472354 0.937243
vt 0.317243 0.410311
vt 0.317243 0.424220
vt 0.573588 0.627338
vt 0.587808 0.627338
vt 0.890327 0.463057
vt 0.890327 0.284076
vt 0.925348 0.917932
vt 0.925348 0.779985
vt 0.934130 0.779985
vt 0.934130 0.917932
vt 0.596590 0.627338
vt 0.596590 0.696771
vt 0.587808 0.696771
vt 0.934130 0.642038
vt 0.865926 0.642038
vt 0.614116 0.824703
vt 0.613905 0.806319
vt 0.627287 0.806618
vt 0.627287 0.824997
vt 0.600735 0.806613
vt 0.613905 0.824698
vt 0.600524 0.824997
vn 0.000000 -1.000000 0.000000
vn 1.000000 0.000000 -0.000000
vn -0.000000 -0.000000 1.000000
vn -1.000000 0.000000 0.000000
vn 0.000000 1.000000 0.000000
vn 0.000000 0.000000 -1.000000
vn 0.998500 -0.000000 0.054200
vn -0.999300 0.000000 -0.036400
usemtl HomeMAterial
s off
f 233/389/74 234/390/74 235/391/74 236/392/74
f 237/393/75 233/394/75 236/395/75 238/396/75
f 233/397/76 237/398/76 239/399/76 234/400/76
f 234/401/77 239/393/77 240/396/77 235/402/77
f 236/392/74 235/391/74 241/403/74 242/404/74
f 237/405/78 238/406/78 240/407/78 239/408/78
f 243/409/76 238/410/76 236/411/76 244/412/76 245/413/76 246/414/76 247/415/76 248/416/76 249/417/76 250/418/76 251/419/76
f 235/402/77 240/396/77 252/420/77 241/421/77
f 236/392/74 242/404/74 253/422/74 254/423/74
f 241/394/79 252/424/79 255/425/79 242/426/79
f 240/407/78 238/406/78 255/427/78 252/428/78
f 243/409/76 251/419/76 248/416/76 247/415/76 244/412/76 236/411/76 254/429/76
f 255/427/78 238/406/78 243/430/78 256/431/78
f 245/432/75 244/433/75 257/434/75 258/435/75
f 246/435/74 245/436/74 258/437/74 259/438/74
f 259/439/77 260/440/77 247/441/77 246/442/77
f 249/443/75 248/444/75 261/445/75 262/397/75
f 250/446/74 249/447/74 262/448/74 263/449/74
f 263/450/77 264/439/77 251/442/77 250/451/77
f 253/452/79 242/426/79 257/453/79 260/454/79 261/455/79 264/456/79 263/457/79 256/458/79
f 254/423/74 253/422/74 265/459/74 266/460/74
f 242/426/79 255/425/79 256/458/79 263/457/79 262/461/79 261/455/79 260/454/79 259/462/79 258/463/79 257/453/79
f 243/464/77 254/465/77 267/466/77 268/467/77
f 264/438/78 261/437/78 248/449/78 251/448/78
f 260/447/78 257/446/78 244/468/78 247/469/78
f 256/431/78 243/430/78 269/470/78 270/471/78
f 253/452/79 256/458/79 270/472/79 265/473/79
f 254/423/74 266/460/74 271/474/74 267/475/74
f 269/476/75 266/477/75 265/467/75 270/466/75
f 269/470/78 243/430/78 268/478/78 272/479/78
f 268/480/79 267/481/79 273/482/79 274/483/79
f 266/477/75 269/476/75 272/484/75 271/485/75
f 267/475/74 271/474/74 275/486/74 276/487/74
f 272/479/78 268/478/78 277/488/78 278/489/78
f 277/488/78 268/478/78 274/490/78 279/491/78
f 267/475/74 276/487/74 280/492/74 273/493/74
f 274/483/79 273/482/79 281/494/79 282/495/79
f 271/485/75 272/484/75 278/496/75 275/410/75
f 277/497/76 276/498/76 275/499/76 278/500/76
f 276/498/76 277/497/76 279/501/76 280/502/76
f 279/491/78 274/490/78 282/503/78 283/504/78
f 273/493/74 280/492/74 284/505/74 281/506/74
f 282/507/77 281/508/77 284/509/77 283/510/77
f 280/511/75 279/512/75 285/513/75 286/514/75
f 279/491/78 283/504/78 287/515/78 285/516/78
f 284/505/74 280/492/74 286/517/74 288/518/74
f 283/510/77 284/509/77 288/519/77 287/520/77
f 286/514/75 285/513/75 289/521/75 290/522/75
f 285/516/78 287/515/78 291/523/78 289/524/78
f 288/518/74 286/517/74 290/525/74 292/526/74
f 287/527/79 288/521/79 293/528/79 294/529/79 295/530/79 296/531/79 297/532/79 298/424/79
f 290/464/76 289/533/76 291/534/76 292/535/76
f 291/523/78 287/515/78 298/536/78 299/537/78
f 288/518/74 292/526/74 300/538/74 293/539/74
f 301/540/74 302/541/74 297/542/74 296/543/74
f 298/544/75 297/545/75 303/546/75 304/547/75
f 292/535/76 291/534/76 299/548/76 302/549/76 301/550/76 305/551/76 306/552/76 300/553/76
f 299/537/78 298/536/78 307/554/78 308/555/78
f 297/542/74 302/541/74 309/556/74 310/557/74
f 307/554/78 298/536/78 304/558/78 311/559/78
f 297/542/74 310/557/74 312/560/74 303/561/74
f 304/547/75 303/546/75 313/533/75 314/507/75
f 302/549/76 299/548/76 308/451/76 309/562/76
f 307/563/77 310/564/77 309/520/77 308/519/77
f 310/564/77 307/563/77 311/565/77 312/566/77
f 311/559/78 304/558/78 314/567/78 315/568/78
f 303/561/74 312/560/74 316/569/74 313/570/74
f 314/571/79 313/473/79 316/572/79 315/573/79
f 312/574/76 311/465/76 317/575/76 318/576/76
f 311/559/78 315/568/78 319/577/78 317/578/78
f 316/569/74 312/560/74 318/579/74 320/580/74
f 315/573/79 316/572/79 320/581/79 319/582/79
f 318/576/76 317/575/76 321/481/76 322/480/76
f 317/578/78 319/577/78 323/583/78 321/584/78
f 320/580/74 318/579/74 322/585/74 324/586/74
f 319/582/79 320/581/79 324/502/79 323/501/79
f 322/400/77 321/399/77 323/587/77 324/588/77
f 305/589/75 301/590/75 296/591/75 295/592/75
f 306/593/74 305/594/74 295/595/74 294/586/74
f 294/596/77 293/591/77 300/590/77 306/450/77
f 325/545/80 326/544/80 327/469/80 328/597/80
f 325/598/78 328/599/78 329/600/78 330/601/78
f 326/602/74 331/599/74 332/603/74 327/604/74
f 332/587/81 331/566/81 330/565/81 329/588/81
