# Aspose.3D Wavefront OBJ Exporter
# Copyright 2004-2021 Aspose Pty Ltd.
# File created: 11/26/2021 15:50:40

mtllib material.lib

#
# object Cylinder001
#

v 0.76803206700431296 2.70925627852768832 6.19484162852465568
v 0.66513528177453904 2.3252402198554698 6.19484156596049652
v 0.38401598446372984 2.04412089867630486 6.1948415201603444
v -8.391188334101056E-08 1.94122416118325168 6.1948415033963382
v -0.38401615674907672 2.04412094641302433 6.1948415201603524
v -0.66513538245480672 2.32524017211875032 6.1948415659604894
v -0.76803216768458064 2.70925616255806112 6.19484162852463704
v -0.66513547792824568 3.09327217012138878 6.19484169108878736
v -0.38401634769595464 3.374391467432194 6.19484173688893592
v -4.074077006378354E-07 3.47728839587212504 6.1948417536529732
v 0.38401562643833384 3.37439180158923024 6.19484173688899008
v 0.66513504309094176 3.09327279069874184 6.1948416910888886
v 0.76803211474103248 2.70925660718389992 4.17756424263297976
v 0.66513528177453904 2.32524052464332164 4.17756418006881702
v 0.3840160083320896 2.04412122733251644 4.17756413426866934
v -8.391188618634076E-08 1.94122444210274384 4.17756411750465428
v -0.38401618061743648 2.04412127506923591 4.17756413426867646
v -0.66513538245480672 2.3252404769066022 4.17756418006880902
v -0.76803221542130016 2.70925649121426112 4.17756424263296112
v -0.66513547792824568 3.09327252264595964 4.17756430519711586
v -0.38401637156431432 3.37439184382512504 4.17756435099726708
v -4.0740772340047704E-07 3.47728877226505608 4.17756436776130524
v 0.3840156503066936 3.37439217798216128 4.17756435099732216
v 0.6651350908276612 3.0932731432233127 4.1775643051972171
v 0.76803211474103248 2.70925693584011104 2.16028685674130382
v 0.66513528177453904 2.32524085329953324 2.16028679417714108
v 0.3840160083320896 2.04412155598872758 2.16028674837699252
v -8.391188618634076E-08 1.94122477075895488 2.16028673161297836
v -0.38401618061743648 2.04412160372544704 2.16028674837700052
v -0.66513538245480672 2.32524080556281376 2.1602867941771331
v -0.76803221542130016 2.70925681987047272 2.16028685674128518
v -0.66513547792824568 3.09327285130217122 2.16028691930543904
v -0.38401637156431432 3.37439217248133616 2.16028696510559116
v -4.0740772340047704E-07 3.4772891009212672 2.1602869818696293
v 0.3840156503066936 3.3743925066383724 2.16028696510564622
v 0.6651350908276612 3.09327347187952428 2.16028691930554028
v 0.76803211474103248 2.7092572644963848 0.14300908895587306
v 0.66513528177453904 2.32524118195580696 0.14300902639171032
v 0.3840160083320896 2.04412188464500133 0.14300898059156176
v -8.391188618634076E-08 1.94122509941522864 0.14300896382754758
v -0.38401618061743648 2.04412193238172079 0.14300898059156974
v -0.66513538245480672 2.32524113421908752 0.14300902639170232
v -0.76803221542130016 2.70925714852674648 0.1430090889558544
v -0.66513547792824568 3.09327317995844452 0.14300915152000826
v -0.38401637156431432 3.37439250113760992 0.14300919732016038
v -4.0740772340047704E-07 3.47728942957754096 0.14300921408419854
v 0.3840156503066936 3.37439283529464616 0.14300919732021544
v 0.6651350908276612 3.0932738005357976 0.14300915152010952
v 0.76803206700431296 2.70925759315253424 -1.874267915042048
v 0.66513528177453904 2.32524153448031568 -1.8742679776062064
v 0.38401598446372984 2.04412221330115073 -1.87426802340635936
v -8.391188334101056E-08 1.94122547580809728 -1.8742680401703664
v -0.38401615674907672 2.0441222610378702 -1.8742680234063504
v -0.66513538245480672 2.3252414867435962 -1.8742679776062152
v -0.76803216768458064 2.70925747718290696 -1.87426791504206752
v -0.66513547792824568 3.0932734847462342 -1.87426785247791632
v -0.38401634769595464 3.37439278205703984 -1.87426780667776864
v -4.074077006378354E-07 3.47728971049697048 -1.8742677899137296
v 0.38401562643833384 3.37439311621407608 -1.8742678066777136
v 0.66513504309094176 3.09327410532358726 -1.8742678524778152
v 0.76803206700431296 2.70925792180874536 -3.89154530093372224
v 0.66513528177453904 2.32524186313652724 -3.89154536349788048
v 0.38401598446372984 2.04412254195736187 -3.89154540929803344
v -8.391188334101056E-08 1.94122580446430864 -3.89154542606204064
v -0.38401615674907672 2.04412258969408134 -3.89154540929802464
v -0.66513538245480672 2.3252418153998078 -3.89154536349788944
v -0.76803216768458064 2.70925780583911816 -3.89154530093374176
v -0.66513547792824568 3.09327381340244578 -3.89154523836959056
v -0.38401634769595464 3.37439311071325096 -3.89154519256944288
v -4.074077006378354E-07 3.477290039153182 -3.89154517580540384
v 0.38401562643833384 3.37439344487028728 -3.89154519256938784
v 0.66513504309094176 3.09327443397979884 -3.89154523836948928
v 0.76803211474103248 2.70925797212872736 -5.04273500365588045
v 0.66513532951125856 2.32524190747898228 -5.04273506622003875
v 0.38401603220044936 2.04412258629981735 -5.04273511202019175
v -3.3591746313765044E-08 1.94122584880676416 -5.04273512878419883
v -0.38401608514399752 2.04412268177325629 -5.04273511202017577
v -0.66513528698136784 2.32524188361062256 -5.04273506622004408
v -0.76803207221114176 2.70925785615906592 -5.04273500365589822
v -0.66513538245480672 3.0932738338765411 -5.04273494109175235
v -0.38401629995923512 3.37439315505570648 -5.04273489529160112
v -3.570875806825711E-07 3.47729008349563752 -5.04273487852756208
v 0.38401567417505336 3.37439344147602328 -5.04273489529155494
v 0.6651350908276612 3.09327447832225388 -5.04273494109164755
v 0.6933203298388264 2.709257989379664 -5.46031138434608912
v 0.60043302768345088 2.36259789183027416 -5.46031144082418952
v 0.34666011588098656 2.10882490842260984 -5.46031071838154688
v -1.8021308421851503E-08 2.01593774947751836 -5.46031149730229704
v -0.34666012108781528 2.10882495615945364 -5.46031148216904952
v -0.60043284194340176 2.36259789183027416 -5.46031144082418952
v -0.69332004862533832 2.70925788469124784 -5.46031138434610688
v -0.6004328896801212 3.05591798558890826 -5.4603113278680064
v -0.34666031203469316 3.30969073031285132 -5.46031128652317664
v -3.100483313192074E-07 3.40257817567838392 -5.46031127138989
v 0.34665980559231004 3.30969101673316812 -5.46031128652313048
v 0.60043288447329248 3.05591853456118212 -5.46031132786791584
v 0.4998703770886976 2.70925800123525832 -5.79087709173081232
v 0.43290043787608568 2.45932282658788944 -5.79087713245042128
v 0.24993518724264164 2.27635745661264944 -5.7908771622592648
v -1.0516286213312693E-08 2.20938766061019676 -5.7908771731700304
v -0.24993516858111064 2.27635750434936888 -5.7908771622592576
v -0.43290039534619496 2.45932282658788944 -5.79087713245042128
v -0.499870239085368 2.70925792575693336 -5.7908770917308248
v -0.43290039534619496 2.95919308693819616 -5.7908770510112176
v -0.24993531179126904 3.14215828983491852 -5.7908770212024008
v -2.210620631564974E-07 3.20912827678424904 -5.79087701029160496
v 0.24993497242740404 3.14215848078179638 -5.79087702120237056
v 0.43290029466592728 2.95919346883195184 -5.79087705101115536
v 0.4998703770886976 2.7092580012352232 -5.79087785551832384
v 0.43290043787608568 2.45932282658801384 -5.7908778962379328
v 0.24993518724264164 2.27635745661277376 -5.79087792604677616
v -1.0516223616048149E-08 2.20938766061032112 -5.79087793695754176
v -0.24993516858111064 2.27635750434949324 -5.79087792604676912
v -0.43290039534619496 2.45932282658801384 -5.7908778962379328
v -0.499870239085368 2.709257925756944 -5.79087785551833616
v -0.43290039534619496 2.95919308693832048 -5.79087781479872896
v -0.24993528792290932 3.14215828983504286 -5.79087778498991216
v -2.2106202901253492E-07 3.20912822904765392 -5.79087777407912528
v 0.24993494855904432 3.14215848078192072 -5.79087778498988208
v 0.43290029466592728 2.95919346883207616 -5.79087781479866688
v 0.23446345391167968 2.70925800582296272 -5.97724429967701904
v 0.20305128426967656 2.59202623500021056 -5.97724431877650016
v 0.11723172565413264 2.50620659284540896 -5.97724433275829536
v -3.734430152065265E-08 2.47479449480848544 -5.97724433787597584
v -0.11723177859768086 2.50620661671376864 -5.97724433275829184
v -0.20305138494994424 2.59202623500021056 -5.97724431877650016
v -0.2344635307235876 2.70925797041997592 -5.97724429967702608
v -0.20305138494994424 2.82648971538366128 -5.97724428057755024
v -0.1172318382685802 2.91230930980174384 -5.97724426659576208
v -1.3610052026158033E-07 2.94372147944374656 -5.97724426147807104
v 0.11723161824651384 2.91230940527518272 -5.97724426659574608
v 0.20305123653295708 2.8264898943963592 -5.97724428057752016
v -6.808307097169802E-08 2.70925794422270272 -6.00767894064616481
v 0.59234437472693456 2.36726891656496456 6.19484156438608656
v 0.68397896989007736 2.70925874233507976 6.19484162496540504
v 0.59234294262535056 3.05124619440490452 6.19484168649843524
v 0.34198912561793548 3.30159965338692008 6.19484172941495892
v -2.846163779986297E-06 3.3932352987578884 6.19484175063695732
v -0.341991923422853 3.30159812581189584 6.19484173605662568
v -0.59234332972593504 3.05124564543263022 6.1948416886909934
v -0.68397907057034504 2.70925617246390752 6.19484162852463704
v -0.59234452314392168 2.36726886882824504 6.19484156657863584
v -0.34199390449671084 2.11691552918802862 6.19484152057944292
v -2.5556911666714272E-06 2.02527725829748828 6.19484150641213916
v 0.341989435906612 2.1169129991418969 6.19484152099251696
v 0.68397892215335784 2.70925374096160576 7.32212860107527596
v 0.59234189241752232 2.36726457981202064 7.32212844988472968
v 0.34198938816989256 2.116912958693689 7.32212850457071072
v -1.2410681039644206E-07 2.02527721784927994 7.32212848964135344
v -0.34198748390794264 2.11691181301242182 7.32212850457052424
v -0.59234204083450944 2.36726455594364536 7.32212854535816416
v -0.68397907057034504 2.7092561231886192 7.32212860107566412
v -0.59234332972593504 3.05124558111604971 7.32212875226625924
v -0.34198767485482052 3.30160056767310372 7.3221286975808262
v 2.0508703941213833E-06 3.39323525830968456 7.32212871251001296
v 0.341989077881216 3.30159956520199492 7.32212869758066276
v 0.59234289488863112 3.05124615395669885 7.32212865679291448
v 4.02839068075898E-07 2.70925556560974056 7.32212850560213456
v 0.66513518630110016 2.325241737655936 -3.41435689511328544
v 0.7680320192675936 2.70925778608261456 -3.4529899686662704
v 0.38401603220044936 2.04412240507139309 -3.34435123276309108
v -6.577570876998412E-08 1.94122565999628224 -3.29781291266634912
v -0.38401608514399752 2.04412245280811255 -3.344351232763084
v -0.66513528698136784 2.325241737655936 -3.41435689511328544
v -0.76803211994786128 2.7092576667408728 -3.45298996866628992
v -0.66513538245480672 3.09327363763306096 -3.39869225191247624
v -0.38401629995923512 3.37439287835384328 -3.34435101603451644
v -3.9033801842547984E-07 3.4772897952363344 -3.27341194278112636
v 0.38401567417505336 3.37439326024759904 -3.34435101603445428
v 0.66513499535422224 3.09327428207877376 -3.39869225191237144
v 0.66513528177453904 2.32524132770459912 -0.45858476996567976
v 0.768032162477752 2.70925741103192808 -0.45858470740151704
v 0.38401596059537016 2.04412202406008569 -0.4197087952200436
v -1.0458828905117858E-07 1.94122513894123472 -0.39260581213992744
v -0.38401615674907672 2.04412207179680516 -0.4197087952200356
v -0.66513533471808728 2.3252413038362394 -0.45858476996568424
v -0.76803221542130016 2.70925729506231768 -0.45858470740153568
v -0.66513543019152624 3.09327327797051766 -0.45858464483738984
v -0.38401634769595464 3.37439249734266024 -0.41970934227897952
v -4.280840096067764E-07 3.47728942136695184 -0.39260632567079504
v 0.38401562643833384 3.37439287923641592 -0.41970934227891728
v 0.66513504309094176 3.09327392241623044 -0.45858464483728408
# 182 vertices

vn 0.75716239213943488 -2.354989468317614E-08 0.65322673320770752
vn 0.65572184324264528 -0.37858124288921376 0.65322667152899624
vn 0.86602538824081424 -0.49999999999999432 -7.58696185321204E-08
vn 1 9.821016379449888E-08 9.446403672552348E-09
vn 0.65572184324264528 -0.37858124288921376 0.65322667152899624
vn 0.37858107686042784 -0.65572189006213784 0.65322662637705256
vn 0.5 -0.86602544784544848 -1.3540634260838503E-07
vn 0.86602538824081424 -0.49999999999999432 -7.58696185321204E-08
vn 0.37858107686042784 -0.65572189006213784 0.65322662637705256
vn -3.713917706704706E-08 -0.7571623793543008 0.65322672905958808
vn -3.928406755449032E-08 -0.99999999999998784 -1.5626965044201976E-07
vn 0.5 -0.86602544784544848 -1.3540634260838503E-07
vn -3.713917706704706E-08 -0.7571623793543008 0.65322672905958808
vn -0.37858110666275024 -0.65572189006213784 0.65322662637705256
vn -0.5 -0.86602544784544832 -1.3588830108151584E-07
vn -3.928406755449032E-08 -0.99999999999998784 -1.5626965044201976E-07
vn -0.37858110666275024 -0.65572189006213784 0.65322662637705256
vn -0.65572184324264528 -0.37858124288921376 0.65322667152899624
vn -0.86602538824081424 -0.49999999999999424 -7.606240121082998E-08
vn -0.5 -0.86602544784544832 -1.3588830108151584E-07
vn -0.65572184324264528 -0.37858124288921376 0.65322667152899624
vn -0.75716227293014528 -2.0201649440382404E-07 0.6532267332076784
vn -0.9999999403953552 -1.1785219665733726E-07 6.747406528698399E-09
vn -0.86602538824081424 -0.49999999999999424 -7.606240121082998E-08
vn -0.75716227293014528 -2.0201649440382404E-07 0.6532267332076784
vn -0.6557219624519348 0.37858091083163192 0.65322679488637224
vn -0.86602550745010368 0.49999979138373544 8.878608530207056E-08
vn -0.9999999403953552 -1.1785219665733726E-07 6.747406528698399E-09
vn -0.6557219624519348 0.37858091083163192 0.65322679488637224
vn -0.37858143448829648 0.65572155800456576 0.6532267804336712
vn -0.50000029802322384 0.86602520942686672 1.515037347088402E-07
vn -0.86602550745010368 0.49999979138373544 8.878608530207056E-08
vn -0.37858143448829648 0.65572155800456576 0.6532267804336712
vn -3.278581175436557E-07 0.75716222611064352 0.65322679696045424
vn -4.32124693361402E-07 0.99999994039533984 1.7545160874517155E-07
vn -0.50000029802322384 0.86602520942686672 1.515037347088402E-07
vn -3.278581175436557E-07 0.75716222611064352 0.65322679696045424
vn 0.3785807490348816 0.65572185602777024 0.65322689964300936
vn 0.49999946355819704 0.86602568626402448 1.5362443163124424E-07
vn -4.32124693361402E-07 0.99999994039533984 1.7545160874517155E-07
vn 0.3785807490348816 0.65572185602777024 0.65322689964300936
vn 0.65572166442871096 0.37858138766879984 0.6532267352818052
vn 0.86602514982223504 0.50000035762786 9.399132764367801E-08
vn 0.49999946355819704 0.86602568626402448 1.5362443163124424E-07
vn 0.65572166442871096 0.37858138766879984 0.6532267352818052
vn 0.75716239213943488 -2.354989468317614E-08 0.65322673320770752
vn 1 9.821016379449888E-08 9.446403672552348E-09
vn 0.86602514982223504 0.50000035762786 9.399132764367801E-08
vn 1 9.821016379449888E-08 9.446403672552348E-09
vn 0.86602538824081424 -0.49999999999999432 -7.58696185321204E-08
vn 0.86602538824081424 -0.49999999999999336 -8.146034197187263E-08
vn 1 7.365762400013311E-08 1.2000350479773074E-14
vn 0.86602538824081424 -0.49999999999999432 -7.58696185321204E-08
vn 0.5 -0.86602544784544848 -1.3540634260838503E-07
vn 0.5 -0.86602544784544736 -1.4109345827567047E-07
vn 0.86602538824081424 -0.49999999999999336 -8.146034197187263E-08
vn 0.5 -0.86602544784544848 -1.3540634260838503E-07
vn -3.928406755449032E-08 -0.99999999999998784 -1.5626965044201976E-07
vn -3.928406755449032E-08 -0.99999999999998672 -1.6292068394374526E-07
vn 0.5 -0.86602544784544736 -1.4109345827567047E-07
vn -3.928406755449032E-08 -0.99999999999998784 -1.5626965044201976E-07
vn -0.5 -0.86602544784544832 -1.3588830108151584E-07
vn -0.4999999701976776 -0.86602538824080272 -1.4109344856484097E-07
vn -3.928406755449032E-08 -0.99999999999998672 -1.6292068394374526E-07
vn -0.5 -0.86602544784544832 -1.3588830108151584E-07
vn -0.86602538824081424 -0.49999999999999424 -7.606240121082998E-08
vn -0.86602538824081424 -0.50000011920928288 -8.146036139353162E-08
vn -0.4999999701976776 -0.86602538824080272 -1.4109344856484097E-07
vn -0.86602538824081424 -0.49999999999999424 -7.606240121082998E-08
vn -0.9999999403953552 -1.1785219665733726E-07 6.747406528698399E-09
vn -1 -1.2276271377231587E-07 -2.0000585290576206E-14
vn -0.86602538824081424 -0.50000011920928288 -8.146036139353162E-08
vn -0.9999999403953552 -1.1785219665733726E-07 6.747406528698399E-09
vn -0.86602550745010368 0.49999979138373544 8.878608530207056E-08
vn -0.86602550745010368 0.49999982118605904 8.146031283938416E-08
vn -1 -1.2276271377231587E-07 -2.0000585290576206E-14
vn -0.86602550745010368 0.49999979138373544 8.878608530207056E-08
vn -0.50000029802322384 0.86602520942686672 1.515037347088402E-07
vn -0.50000035762786864 0.86602520942686832 1.410934194323525E-07
vn -0.86602550745010368 0.49999982118605904 8.146031283938416E-08
vn -0.50000029802322384 0.86602520942686672 1.515037347088402E-07
vn -4.32124693361402E-07 0.99999994039533984 1.7545160874517155E-07
vn -4.4194572978994984E-07 0.99999994039534192 1.6292067423291576E-07
vn -0.50000035762786864 0.86602520942686832 1.410934194323525E-07
vn -4.32124693361402E-07 0.99999994039533984 1.7545160874517155E-07
vn 0.49999946355819704 0.86602568626402448 1.5362443163124424E-07
vn 0.49999946355819704 0.86602568626402656 1.4109349711898844E-07
vn -4.4194572978994984E-07 0.99999994039534192 1.6292067423291576E-07
vn 0.49999946355819704 0.86602568626402448 1.5362443163124424E-07
vn 0.86602514982223504 0.50000035762786 9.399132764367801E-08
vn 0.86602514982223504 0.500000357627862 8.146040023684959E-08
vn 0.49999946355819704 0.86602568626402656 1.4109349711898844E-07
vn 0.86602514982223504 0.50000035762786 9.399132764367801E-08
vn 1 9.821016379449888E-08 9.446403672552348E-09
vn 1 7.365762400013311E-08 1.2000350479773074E-14
vn 0.86602514982223504 0.500000357627862 8.146040023684959E-08
vn 1 7.365762400013311E-08 1.2000350479773074E-14
vn 0.86602538824081424 -0.49999999999999336 -8.146034197187263E-08
vn 0.86602538824081424 -0.5000000596046352 -9.964827218571188E-08
vn 1 6.87471256276701E-08 9.050250869124103E-09
vn 0.86602538824081424 -0.49999999999999336 -8.146034197187263E-08
vn 0.5 -0.86602544784544736 -1.4109345827567047E-07
vn 0.5000000596046448 -0.8660253882407984 -1.6805545452603585E-07
vn 0.86602538824081424 -0.5000000596046352 -9.964827218571188E-08
vn 0.5 -0.86602544784544736 -1.4109345827567047E-07
vn -3.928406755449032E-08 -0.99999999999998672 -1.6292068394374526E-07
vn -5.892610133173548E-08 -0.99999999999998608 -1.6681556747055676E-07
vn 0.5000000596046448 -0.8660253882407984 -1.6805545452603585E-07
vn -3.928406755449032E-08 -0.99999999999998672 -1.6292068394374526E-07
vn -0.4999999701976776 -0.86602538824080272 -1.4109344856484097E-07
vn -0.5000000596046448 -0.86602538824079792 -1.701327279903873E-07
vn -5.892610133173548E-08 -0.99999999999998608 -1.6681556747055676E-07
vn -0.4999999701976776 -0.86602538824080272 -1.4109344856484097E-07
vn -0.86602538824081424 -0.50000011920928288 -8.146036139353162E-08
vn -0.86602538824081424 -0.50000005960463064 -1.2733808884750265E-07
vn -0.5000000596046448 -0.86602538824079792 -1.701327279903873E-07
vn -0.86602538824081424 -0.50000011920928288 -8.146036139353162E-08
vn -1 -1.2276271377231587E-07 -2.0000585290576206E-14
vn -1 -1.5713628063731285E-07 -2.3272092540944858E-08
vn -0.86602538824081424 -0.50000005960463064 -1.2733808884750265E-07
vn -1 -1.2276271377231587E-07 -2.0000585290576206E-14
vn -0.86602550745010368 0.49999982118605904 8.146031283938416E-08
vn -0.86602550745010368 0.4999998211860644 4.8619436154625825E-08
vn -1 -1.5713628063731285E-07 -2.3272092540944858E-08
vn -0.86602550745010368 0.49999982118605904 8.146031283938416E-08
vn -0.50000035762786864 0.86602520942686832 1.410934194323525E-07
vn -0.50000029802322384 0.86602520942687968 7.184248200342047E-08
vn -0.86602550745010368 0.4999998211860644 4.8619436154625825E-08
vn -0.50000035762786864 0.86602520942686832 1.410934194323525E-07
vn -4.4194572978994984E-07 0.99999994039534192 1.6292067423291576E-07
vn -4.517667093750788E-07 0.99999994039535472 8.466902906929841E-08
vn -0.50000029802322384 0.86602520942687968 7.184248200342047E-08
vn -4.4194572978994984E-07 0.99999994039534192 1.6292067423291576E-07
vn 0.49999946355819704 0.86602568626402656 1.4109349711898844E-07
vn 0.49999943375587464 0.86602574586867936 9.134293161476128E-08
vn -4.517667093750788E-07 0.99999994039535472 8.466902906929841E-08
vn 0.49999946355819704 0.86602568626402656 1.4109349711898844E-07
vn 0.86602514982223504 0.500000357627862 8.146040023684959E-08
vn 0.86602514982223504 0.5000004768371532 7.128886805751834E-08
vn 0.49999943375587464 0.86602574586867936 9.134293161476128E-08
vn 0.86602514982223504 0.500000357627862 8.146040023684959E-08
vn 1 7.365762400013311E-08 1.2000350479773074E-14
vn 1 6.87471256276701E-08 9.050250869124103E-09
vn 0.86602514982223504 0.5000004768371532 7.128886805751834E-08
vn 0.86602538824081424 -0.5000000596046352 -9.964827218571188E-08
vn 0.86602538824081424 -0.50000005960463536 -9.850012571892238E-08
vn 1 1.2767324754256397E-07 -8.256263744314738E-09
vn 1 6.87471256276701E-08 9.050250869124103E-09
vn 0.5000000596046448 -0.8660253882407984 -1.6805545452603585E-07
vn 0.4999999701976776 -0.86602538824079856 -1.667291838771755E-07
vn 0.86602538824081424 -0.50000005960463536 -9.850012571892238E-08
vn 0.86602538824081424 -0.5000000596046352 -9.964827218571188E-08
vn -5.892610133173548E-08 -0.99999999999998608 -1.6681556747055676E-07
vn -7.365762400013409E-08 -0.99999999999998496 -1.7433346843898007E-07
vn 0.4999999701976776 -0.86602538824079856 -1.667291838771755E-07
vn 0.5000000596046448 -0.8660253882407984 -1.6805545452603585E-07
vn -0.5000000596046448 -0.86602538824079792 -1.701327279903873E-07
vn -0.50000011920928952 -0.86602538824079824 -1.688133975676985E-07
vn -7.365762400013409E-08 -0.99999999999998496 -1.7433346843898007E-07
vn -5.892610133173548E-08 -0.99999999999998608 -1.6681556747055676E-07
vn -0.86602538824081424 -0.50000005960463064 -1.2733808884750265E-07
vn -0.86602538824081424 -0.5000000596046328 -1.1410674926796924E-07
vn -0.50000011920928952 -0.86602538824079824 -1.688133975676985E-07
vn -0.5000000596046448 -0.86602538824079792 -1.701327279903873E-07
vn -1 -1.5713628063731285E-07 -2.3272092540944858E-08
vn -1 -1.3749423629143824E-07 -2.272267282856409E-08
vn -0.86602538824081424 -0.5000000596046328 -1.1410674926796924E-07
vn -0.86602538824081424 -0.50000005960463064 -1.2733808884750265E-07
vn -0.86602550745010368 0.4999998211860644 4.8619436154625825E-08
vn -0.86602544784545904 0.49999988079070832 5.376834228579247E-08
vn -1 -1.3749423629143824E-07 -2.272267282856409E-08
vn -1 -1.5713628063731285E-07 -2.3272092540944858E-08
vn -0.50000029802322384 0.86602520942687968 7.184248200342047E-08
vn -0.50000023841857912 0.8660252094268776 8.441126890356702E-08
vn -0.86602544784545904 0.49999988079070832 5.376834228579247E-08
vn -0.86602550745010368 0.4999998211860644 4.8619436154625825E-08
vn -4.517667093750788E-07 0.99999994039535472 8.466902906929841E-08
vn -4.959612738275609E-07 0.99999994039535344 9.26819473981574E-08
vn -0.50000023841857912 0.8660252094268776 8.441126890356702E-08
vn -0.50000029802322384 0.86602520942687968 7.184248200342047E-08
vn 0.49999943375587464 0.86602574586867936 9.134293161476128E-08
vn 0.49999943375587464 0.86602574586867904 9.410661955992327E-08
vn -4.959612738275609E-07 0.99999994039535344 9.26819473981574E-08
vn -4.517667093750788E-07 0.99999994039535472 8.466902906929841E-08
vn 0.86602514982223504 0.5000004768371532 7.128886805751834E-08
vn 0.86602514982223504 0.50000047683715528 5.8609274682265246E-08
vn 0.49999943375587464 0.86602574586867904 9.410661955992327E-08
vn 0.49999943375587464 0.86602574586867936 9.134293161476128E-08
vn 1 6.87471256276701E-08 9.050250869124103E-09
vn 1 1.2767324754256397E-07 -8.256263744314738E-09
vn 0.86602514982223504 0.50000047683715528 5.8609274682265246E-08
vn 0.86602514982223504 0.5000004768371532 7.128886805751834E-08
vn 0.86602538824081424 -0.49999999999999232 -8.822732139313024E-08
vn 0.86602544784545904 -0.49999999999999536 -6.905272392776484E-08
vn 1 1.1294168314507355E-07 5.161746294138933E-08
vn 1 1.522257722119266E-07 -3.6811670224836154E-08
vn 0.4999999701976776 -0.86602538824080528 -1.2498908805303732E-07
vn 0.5 -0.86602538824079904 -1.629995592680255E-07
vn 0.86602544784545904 -0.49999999999999536 -6.905272392776484E-08
vn 0.86602538824081424 -0.49999999999999232 -8.822732139313024E-08
vn -7.365762400013409E-08 -0.99999999999998816 -1.544749287374354E-07
vn -6.87471199967149E-08 -0.99999999999998352 -1.831498924742539E-07
vn 0.5 -0.86602538824079904 -1.629995592680255E-07
vn 0.4999999701976776 -0.86602538824080528 -1.2498908805303732E-07
vn -0.5000000596046448 -0.86602538824080304 -1.387698079515856E-07
vn -0.5000000596046448 -0.86602538824080272 -1.4151920935257768E-07
vn -6.87471199967149E-08 -0.99999999999998352 -1.831498924742539E-07
vn -7.365762400013409E-08 -0.99999999999998816 -1.544749287374354E-07
vn -0.86602538824081424 -0.49999999999999224 -8.830934955517085E-08
vn -0.86602538824081424 -0.49999999999999968 -4.268249703676143E-08
vn -0.5000000596046448 -0.86602538824080272 -1.4151920935257768E-07
vn -0.5000000596046448 -0.86602538824080304 -1.387698079515856E-07
vn -1 -1.4240475418121814E-07 -2.4714403076625547E-08
vn -1 -1.5713628123436764E-07 6.761820541367181E-08
vn -0.86602538824081424 -0.49999999999999968 -4.268249703676143E-08
vn -0.86602538824081424 -0.49999999999999224 -8.830934955517085E-08
vn -0.86602550745010368 0.4999998211860648 4.601454385276519E-08
vn -0.86602550745010368 0.49999976158140112 1.6204992521534435E-07
vn -1 -1.5713628123436764E-07 6.761820541367181E-08
vn -1 -1.4240475418121814E-07 -2.4714403076625547E-08
vn -0.50000023841857912 0.86602520942687456 1.0318582947643186E-07
vn -0.50000029802322384 0.86602520942685456 2.2608156395430938E-07
vn -0.86602550745010368 0.49999976158140112 1.6204992521534435E-07
vn -0.86602550745010368 0.4999998211860648 4.601454385276519E-08
vn -4.763192862355936E-07 0.99999994039534752 1.2929925569478393E-07
vn -4.615877458036266E-07 0.99999994039533408 2.117858705666512E-07
vn -0.50000029802322384 0.86602520942685456 2.2608156395430938E-07
vn -0.50000023841857912 0.86602520942687456 1.0318582947643186E-07
vn 0.49999943375587464 0.86602568626403104 1.1378124332705534E-07
vn 0.49999946355819704 0.86602568626401824 1.9254526085742927E-07
vn -4.615877458036266E-07 0.99999994039533408 2.117858705666512E-07
vn -4.763192862355936E-07 0.99999994039534752 1.2929925569478393E-07
vn 0.86602514982223504 0.50000041723251232 4.737990974797265E-08
vn 0.86602520942687984 0.50000035762785496 1.245500032336643E-07
vn 0.49999946355819704 0.86602568626401824 1.9254526085742927E-07
vn 0.49999943375587464 0.86602568626403104 1.1378124332705534E-07
vn 1 1.522257722119266E-07 -3.6811670224836154E-08
vn 1 1.1294168314507355E-07 5.161746294138933E-08
vn 0.86602520942687984 0.50000035762785496 1.245500032336643E-07
vn 0.86602514982223504 0.50000041723251232 4.737990974797265E-08
vn 1 1.5222575229750132E-07 8.542219724739454E-08
vn 0.86602544784545904 -0.49999991059303776 -1.0589025689504897E-08
vn 0.86273032426834112 -0.49809758435409648 -0.0871504686163541
vn 0.99619519710540768 1.2419537322234619E-07 -0.08715036511419295
vn 0.86602544784545904 -0.49999991059303776 -1.0589025689504897E-08
vn 0.5 -0.86602538824080768 -1.104830081601977E-07
vn 0.49809756875038144 -0.86273036967436752 -0.08715056527547986
vn 0.86273032426834112 -0.49809758435409648 -0.0871504686163541
vn 0.5 -0.86602538824080768 -1.104830081601977E-07
vn -7.365762400013409E-08 -0.99999999999998928 -1.477424661500134E-07
vn -4.9998533313555527E-08 -0.99619518290679376 -0.08715054976675553
vn 0.49809756875038144 -0.86273036967436752 -0.08715056527547986
vn -7.365762400013409E-08 -0.99999999999998928 -1.477424661500134E-07
vn -0.5000000596046448 -0.86602544784545248 -1.0983559975191205E-07
vn -0.49809762835502624 -0.86273031006972272 -0.08715056527547015
vn -4.9998533313555527E-08 -0.99619518290679376 -0.08715054976675553
vn -0.5000000596046448 -0.86602544784545248 -1.0983559975191205E-07
vn -0.86602538824081424 -0.49999994039535608 -3.517352143241079E-08
vn -0.86273038387298576 -0.49809755455174744 -0.08715063252912238
vn -0.49809762835502624 -0.86273031006972272 -0.08715056527547015
vn -0.86602538824081424 -0.49999994039535608 -3.517352143241079E-08
vn -1 -1.0803119438492409E-07 4.194505736839213E-08
vn -0.99619519710540768 -1.057978363508105E-07 -0.08715068548919609
vn -0.86273038387298576 -0.49809755455174744 -0.08715063252912238
vn -1 -1.0803119438492409E-07 4.194505736839213E-08
vn -0.86602550745010368 0.49999979138372832 1.3257809532032093E-07
vn -0.86273056268692016 0.49809734453044992 -0.0871506341411412
vn -0.99619519710540768 -1.057978363508105E-07 -0.08715068548919609
vn -0.86602550745010368 0.49999979138372832 1.3257809532032093E-07
vn -0.50000029802322384 0.86602520942685824 2.0354248757125506E-07
vn -0.49809792637825016 0.86273010004840352 -0.08715056728434269
vn -0.86273056268692016 0.49809734453044992 -0.0871506341411412
vn -0.50000029802322384 0.86602520942685824 2.0354248757125506E-07
vn -4.4685626221507846E-07 0.99999999999997952 2.0748749818277787E-07
vn -4.09987990224181E-07 0.99619521130404736 -0.08715054554011549
vn -0.49809792637825016 0.86273010004840352 -0.08715056728434269
vn -4.4685626221507846E-07 0.99999999999997952 2.0748749818277787E-07
vn 0.49999943375587464 0.86602574586866736 1.6502843731184562E-07
vn 0.49809700250625608 0.86273063649018816 -0.08715045552554634
vn -4.09987990224181E-07 0.99619521130404736 -0.08715054554011549
vn 0.49999943375587464 0.86602574586866736 1.6502843731184562E-07
vn 0.86602520942687984 0.50000047683714376 1.2905903093318752E-07
vn 0.86272996664047248 0.49809808958846712 -0.08715037337069893
vn 0.49809700250625608 0.86273063649018816 -0.08715045552554634
vn 0.86602520942687984 0.50000047683714376 1.2905903093318752E-07
vn 1 1.5222575229750132E-07 8.542219724739454E-08
vn 0.99619519710540768 1.2419537322234619E-07 -0.08715036511419295
vn 0.86272996664047248 0.49809808958846712 -0.08715037337069893
vn 0.99619519710540768 1.2419537322234619E-07 -0.08715036511419295
vn 0.86273032426834112 -0.49809758435409648 -0.0871504686163541
vn 0.81539392471313472 -0.470767979568074 -0.33691297690727256
vn 0.94153583049774176 1.263381316363432E-07 -0.3369128704070884
vn 0.86273032426834112 -0.49809758435409648 -0.0871504686163541
vn 0.49809756875038144 -0.86273036967436752 -0.08715056527547986
vn 0.47076791524887088 -0.81539404863705584 -0.33691255621682924
vn 0.81539392471313472 -0.470767979568074 -0.33691297690727256
vn 0.49809756875038144 -0.86273036967436752 -0.08715056527547986
vn -4.9998533313555527E-08 -0.99619518290679376 -0.08715054976675553
vn 1.0206865397321963E-07 -0.94153583521230352 -0.33691299400044884
vn 0.47076791524887088 -0.81539404863705584 -0.33691255621682924
vn -4.9998533313555527E-08 -0.99619518290679376 -0.08715054976675553
vn -0.49809762835502624 -0.86273031006972272 -0.08715056527547015
vn -0.4707679450511932 -0.8153939294277032 -0.33691294364700088
vn 1.0206865397321963E-07 -0.94153583521230352 -0.33691299400044884
vn -0.49809762835502624 -0.86273031006972272 -0.08715056527547015
vn -0.86273038387298576 -0.49809755455174744 -0.08715063252912238
vn -0.81539398431777952 -0.47076768154485496 -0.3369129471049016
vn -0.4707679450511932 -0.8153939294277032 -0.33691294364700088
vn -0.86273038387298576 -0.49809755455174744 -0.08715063252912238
vn -0.99619519710540768 -1.057978363508105E-07 -0.08715068548919609
vn -0.94153583049774176 -4.207511449749599E-08 -0.33691298961640536
vn -0.81539398431777952 -0.47076768154485496 -0.3369129471049016
vn -0.99619519710540768 -1.057978363508105E-07 -0.08715068548919609
vn -0.86273056268692016 0.49809734453044992 -0.0871506341411412
vn -0.81539410352706912 0.47076767211574512 -0.3369129725232522
vn -0.94153583049774176 -4.207511449749599E-08 -0.33691298961640536
vn -0.86273056268692016 0.49809734453044992 -0.0871506341411412
vn -0.49809792637825016 0.86273010004840352 -0.08715056728434269
vn -0.47076821327209472 0.81539374118465904 -0.33691297598118208
vn -0.81539410352706912 0.47076767211574512 -0.3369129725232522
vn -0.49809792637825016 0.86273010004840352 -0.08715056728434269
vn -4.09987990224181E-07 0.99619521130404736 -0.08715054554011549
vn -3.827574346360052E-07 0.94153582578319376 -0.33691292562770496
vn -0.47076821327209472 0.81539374118465904 -0.33691297598118208
vn -4.09987990224181E-07 0.99619521130404736 -0.08715054554011549
vn 0.49809700250625608 0.86273063649018816 -0.08715045552554634
vn 0.47076728940010072 0.81539421802180256 -0.3369128865741372
vn -3.827574346360052E-07 0.94153582578319376 -0.33691292562770496
vn 0.49809700250625608 0.86273063649018816 -0.08715045552554634
vn 0.86272996664047248 0.49809808958846712 -0.08715037337069893
vn 0.81539368629455568 0.47076844697611752 -0.33691291291848112
vn 0.47076728940010072 0.81539421802180256 -0.3369128865741372
vn 0.86272996664047248 0.49809808958846712 -0.08715037337069893
vn 0.99619519710540768 1.2419537322234619E-07 -0.08715036511419295
vn 0.94153583049774176 1.263381316363432E-07 -0.3369128704070884
vn 0.81539368629455568 0.47076844697611752 -0.33691291291848112
vn 0.94153583049774176 1.263381316363432E-07 -0.3369128704070884
vn 0.81539392471313472 -0.470767979568074 -0.33691297690727256
vn 0.83306908607482912 -0.48097275216179288 -0.27324189631161576
vn 0.96194529533386224 1.4661277350823577E-07 -0.27324202656743884
vn 0.81539392471313472 -0.470767979568074 -0.33691297690727256
vn 0.47076791524887088 -0.81539404863705584 -0.33691255621682924
vn 0.4809726178646088 -0.8330692203720424 -0.27324174505915644
vn 0.83306908607482912 -0.48097275216179288 -0.27324189631161576
vn 0.47076791524887088 -0.81539404863705584 -0.33691255621682924
vn 1.0206865397321963E-07 -0.94153583521230352 -0.33691299400044884
vn 7.292570813888233E-08 -0.96194531042176992 -0.27324185546270436
vn 0.4809726178646088 -0.8330692203720424 -0.27324174505915644
vn 1.0206865397321963E-07 -0.94153583521230352 -0.33691299400044884
vn -0.4707679450511932 -0.8153939294277032 -0.33691294364700088
vn -0.48097264766693112 -0.83306898195342464 -0.27324198347769672
vn 7.292570813888233E-08 -0.96194531042176992 -0.27324185546270436
vn -0.4707679450511932 -0.8153939294277032 -0.33691294364700088
vn -0.81539398431777952 -0.47076768154485496 -0.3369129471049016
vn -0.83306926488876336 -0.48097245413856896 -0.2732418963115672
vn -0.48097264766693112 -0.83306898195342464 -0.27324198347769672
vn -0.81539398431777952 -0.47076768154485496 -0.3369129471049016
vn -0.94153583049774176 -4.207511449749599E-08 -0.33691298961640536
vn -0.96194535493850704 7.613161371424733E-10 -0.27324181795120588
vn -0.83306926488876336 -0.48097245413856896 -0.2732418963115672
vn -0.94153583049774176 -4.207511449749599E-08 -0.33691298961640536
vn -0.81539410352706912 0.47076767211574512 -0.3369129725232522
vn -0.83236223459243776 0.48055858938132336 -0.27610958733931752
vn -0.96194535493850704 7.613161371424733E-10 -0.27324181795120588
vn -0.81539410352706912 0.47076767211574512 -0.3369129725232522
vn -0.47076821327209472 0.81539374118465904 -0.33691297598118208
vn -0.48126438260078432 0.8291005955824992 -0.28456453882297196
vn -0.83236223459243776 0.48055858938132336 -0.27610958733931752
vn -0.47076821327209472 0.81539374118465904 -0.33691297598118208
vn -3.827574346360052E-07 0.94153582578319376 -0.33691292562770496
vn -3.8901279708625225E-07 0.95674757928764784 -0.2909192672293664
vn -0.48126438260078432 0.8291005955824992 -0.28456453882297196
vn -3.827574346360052E-07 0.94153582578319376 -0.33691292562770496
vn 0.47076728940010072 0.81539421802180256 -0.3369128865741372
vn 0.48137289285659792 0.82928519104961984 -0.28384180267267352
vn -3.8901279708625225E-07 0.95674757928764784 -0.2909192672293664
vn 0.47076728940010072 0.81539421802180256 -0.3369128865741372
vn 0.81539368629455568 0.47076844697611752 -0.33691291291848112
vn 0.8325388431549072 0.480664029881134 -0.27539269245710308
vn 0.48137289285659792 0.82928519104961984 -0.28384180267267352
vn 0.81539368629455568 0.47076844697611752 -0.33691291291848112
vn 0.94153583049774176 1.263381316363432E-07 -0.3369128704070884
vn 0.96194529533386224 1.4661277350823577E-07 -0.27324202656743884
vn 0.8325388431549072 0.480664029881134 -0.27539269245710308
vn 0.96194529533386224 1.4661277350823577E-07 -0.27324202656743884
vn 0.83306908607482912 -0.48097275216179288 -0.27324189631161576
vn 0.78079944849014288 -0.4507945369225864 -0.43259279323707976
vn 0.90158945322036736 1.614828981105571E-07 -0.43259268999097672
vn 0.83306908607482912 -0.48097275216179288 -0.27324189631161576
vn 0.4809726178646088 -0.8330692203720424 -0.27324174505915644
vn 0.45079460740089416 -0.78079931840719568 -0.43259278739703968
vn 0.78079944849014288 -0.4507945369225864 -0.43259279323707976
vn 0.4809726178646088 -0.8330692203720424 -0.27324174505915644
vn 7.292570813888233E-08 -0.96194531042176992 -0.27324185546270436
vn -9.100457987187838E-08 -0.90158938274205856 -0.43259283687856192
vn 0.45079460740089416 -0.78079931840719568 -0.43259278739703968
vn 7.292570813888233E-08 -0.96194531042176992 -0.27324185546270436
vn -0.48097264766693112 -0.83306898195342464 -0.27324198347769672
vn -0.45079472661018368 -0.78079937801184048 -0.43259278739704936
vn -9.100457987187838E-08 -0.90158938274205856 -0.43259283687856192
vn -0.48097264766693112 -0.83306898195342464 -0.27324198347769672
vn -0.83306926488876336 -0.48097245413856896 -0.2732418963115672
vn -0.78079944849014288 -0.45079450712028832 -0.43259264422546288
vn -0.45079472661018368 -0.78079937801184048 -0.43259278739704936
vn -0.83306926488876336 -0.48097245413856896 -0.2732418963115672
vn -0.96194535493850704 7.613161371424733E-10 -0.27324181795120588
vn -0.90158945322036736 3.2315071098329594E-08 -0.43259260058403064
vn -0.78079944849014288 -0.45079450712028832 -0.43259264422546288
vn -0.96194535493850704 7.613161371424733E-10 -0.27324181795120588
vn -0.83236223459243776 0.48055858938132336 -0.27610958733931752
vn -0.77953284978866576 0.45005653445393712 -0.43563489734146536
vn -0.90158945322036736 3.2315071098329594E-08 -0.43259260058403064
vn -0.83236223459243776 0.48055858938132336 -0.27610958733931752
vn -0.48126438260078432 0.8291005955824992 -0.28456453882297196
vn -0.44579443335533144 0.77734125931357792 -0.44385581465066008
vn -0.77953284978866576 0.45005653445393712 -0.43563489734146536
vn -0.48126438260078432 0.8291005955824992 -0.28456453882297196
vn -3.8901279708625225E-07 0.95674757928764784 -0.2909192672293664
vn -3.558334924491646E-07 0.89417882107200704 -0.44770986174890376
vn -0.44579443335533144 0.77734125931357792 -0.44385581465066008
vn -3.8901279708625225E-07 0.95674757928764784 -0.2909192672293664
vn 0.48137289285659792 0.82928519104961984 -0.28384180267267352
vn 0.44597771763801576 0.77765758104301088 -0.44311686601552184
vn -3.558334924491646E-07 0.89417882107200704 -0.44770986174890376
vn 0.48137289285659792 0.82928519104961984 -0.28384180267267352
vn 0.8325388431549072 0.480664029881134 -0.27539269245710308
vn 0.77984964847564704 0.4502433054844112 -0.43487422283441304
vn 0.44597771763801576 0.77765758104301088 -0.44311686601552184
vn 0.8325388431549072 0.480664029881134 -0.27539269245710308
vn 0.96194529533386224 1.4661277350823577E-07 -0.27324202656743884
vn 0.90158945322036736 1.614828981105571E-07 -0.43259268999097672
vn 0.77984964847564704 0.4502433054844112 -0.43487422283441304
vn 0.90158945322036736 1.614828981105571E-07 -0.43259268999097672
vn 0.78079944849014288 -0.4507945369225864 -0.43259279323707976
vn 0.342766135931015 -0.1978959137111916 -0.91834011917830048
vn 0.39579224586486816 1.9576778814609797E-07 -0.91834008693693088
vn 0.78079944849014288 -0.4507945369225864 -0.43259279323707976
vn 0.45079460740089416 -0.78079931840719568 -0.43259278739703968
vn 0.19789607822895052 -0.3427660161167378 -0.91834014278063664
vn 0.342766135931015 -0.1978959137111916 -0.91834011917830048
vn 0.45079460740089416 -0.78079931840719568 -0.43259278739703968
vn -9.100457987187838E-08 -0.90158938274205856 -0.43259283687856192
vn -4.9269516466665664E-08 -0.39579212605059024 -0.91834015141968672
vn 0.19789607822895052 -0.3427660161167378 -0.91834014278063664
vn -9.100457987187838E-08 -0.90158938274205856 -0.43259283687856192
vn -0.45079472661018368 -0.78079937801184048 -0.43259278739704936
vn -0.19789613783359528 -0.3427661055237244 -0.91834002357136176
vn -4.9269516466665664E-08 -0.39579212605059024 -0.91834015141968672
vn -0.45079472661018368 -0.78079937801184048 -0.43259278739704936
vn -0.78079944849014288 -0.45079450712028832 -0.43259264422546288
vn -0.34276628494262696 -0.1978959733158558 -0.91833999996902064
vn -0.19789613783359528 -0.3427661055237244 -0.91834002357136176
vn -0.78079944849014288 -0.45079450712028832 -0.43259264422546288
vn -0.90158945322036736 3.2315071098329594E-08 -0.43259260058403064
vn -0.39579239487648008 1.5148757010553283E-07 -0.91833996772764864
vn -0.34276628494262696 -0.1978959733158558 -0.91833999996902064
vn -0.90158945322036736 3.2315071098329594E-08 -0.43259260058403064
vn -0.77953284978866576 0.45005653445393712 -0.43563489734146536
vn -0.34276625514030456 0.19789622784552352 -0.91833993548628464
vn -0.39579239487648008 1.5148757010553283E-07 -0.91833996772764864
vn -0.77953284978866576 0.45005653445393712 -0.43563489734146536
vn -0.44579443335533144 0.77734125931357792 -0.44385581465066008
vn -0.19789624214172364 0.34276634515223088 -0.91833991188394592
vn -0.34276625514030456 0.19789622784552352 -0.91833993548628464
vn -0.44579443335533144 0.77734125931357792 -0.44385581465066008
vn -3.558334924491646E-07 0.89417882107200704 -0.44770986174890376
vn -1.677658190146758E-07 0.39579242528378032 -0.91834002245419024
vn -0.19789624214172364 0.34276634515223088 -0.91833991188394592
vn -3.558334924491646E-07 0.89417882107200704 -0.44770986174890376
vn 0.44597771763801576 0.77765758104301088 -0.44311686601552184
vn 0.197895884513855 0.34276646436153984 -0.918340031093216
vn -1.677658190146758E-07 0.39579242528378032 -0.91834002245419024
vn 0.44597771763801576 0.77765758104301088 -0.44311686601552184
vn 0.77984964847564704 0.4502433054844112 -0.43487422283441304
vn 0.34276601672172548 0.19789645136296084 -0.91834005469553776
vn 0.197895884513855 0.34276646436153984 -0.918340031093216
vn 0.77984964847564704 0.4502433054844112 -0.43487422283441304
vn 0.90158945322036736 1.614828981105571E-07 -0.43259268999097672
vn 0.39579224586486816 1.9576778814609797E-07 -0.91834008693693088
vn 0.34276601672172548 0.19789645136296084 -0.91834005469553776
vn 0.39579224586486816 1.9576778814609797E-07 -0.91834008693693088
vn 0.342766135931015 -0.1978959137111916 -0.91834011917830048
vn -2.8961489206835722E-08 1.421046132987766E-07 -0.99999999999999008
vn 0.342766135931015 -0.1978959137111916 -0.91834011917830048
vn 0.19789607822895052 -0.3427660161167378 -0.91834014278063664
vn -2.8961489206835722E-08 1.421046132987766E-07 -0.99999999999999008
vn 0.19789607822895052 -0.3427660161167378 -0.91834014278063664
vn -4.9269516466665664E-08 -0.39579212605059024 -0.91834015141968672
vn -2.8961489206835722E-08 1.421046132987766E-07 -0.99999999999999008
vn -4.9269516466665664E-08 -0.39579212605059024 -0.91834015141968672
vn -0.19789613783359528 -0.3427661055237244 -0.91834002357136176
vn -2.8961489206835722E-08 1.421046132987766E-07 -0.99999999999999008
vn -0.19789613783359528 -0.3427661055237244 -0.91834002357136176
vn -0.34276628494262696 -0.1978959733158558 -0.91833999996902064
vn -2.8961489206835722E-08 1.421046132987766E-07 -0.99999999999999008
vn -0.34276628494262696 -0.1978959733158558 -0.91833999996902064
vn -0.39579239487648008 1.5148757010553283E-07 -0.91833996772764864
vn -2.8961489206835722E-08 1.421046132987766E-07 -0.99999999999999008
vn -0.39579239487648008 1.5148757010553283E-07 -0.91833996772764864
vn -0.34276625514030456 0.19789622784552352 -0.91833993548628464
vn -2.8961489206835722E-08 1.421046132987766E-07 -0.99999999999999008
vn -0.34276625514030456 0.19789622784552352 -0.91833993548628464
vn -0.19789624214172364 0.34276634515223088 -0.91833991188394592
vn -2.8961489206835722E-08 1.421046132987766E-07 -0.99999999999999008
vn -0.19789624214172364 0.34276634515223088 -0.91833991188394592
vn -1.677658190146758E-07 0.39579242528378032 -0.91834002245419024
vn -2.8961489206835722E-08 1.421046132987766E-07 -0.99999999999999008
vn -1.677658190146758E-07 0.39579242528378032 -0.91834002245419024
vn 0.197895884513855 0.34276646436153984 -0.918340031093216
vn -2.8961489206835722E-08 1.421046132987766E-07 -0.99999999999999008
vn 0.197895884513855 0.34276646436153984 -0.918340031093216
vn 0.34276601672172548 0.19789645136296084 -0.91834005469553776
vn -2.8961489206835722E-08 1.421046132987766E-07 -0.99999999999999008
vn 0.34276601672172548 0.19789645136296084 -0.91834005469553776
vn 0.39579224586486816 1.9576778814609797E-07 -0.91834008693693088
vn -2.8961489206835722E-08 1.421046132987766E-07 -0.99999999999999008
vn 0.55228853225708008 -0.31886351736781908 0.77026189139084944
vn 0.63772779703140256 4.2067102254554334E-07 0.77026176452644592
vn 0.75716245174407952 -5.991545440200517E-07 0.65322667360296896
vn 0.65572148561477664 -0.37858163031941448 0.653226731133578
vn 0.31886339187622072 -0.55228835972549032 0.77026209177969344
vn 0.55228853225708008 -0.31886351736781908 0.77026189139084944
vn 0.65572148561477664 -0.37858163031941448 0.653226731133578
vn 0.378580778837204 -0.65572189006216704 0.65322680519098688
vn -1.1586298569454812E-06 -0.63772768410445648 0.77026207785986032
vn 0.31886339187622072 -0.55228835972549032 0.77026209177969344
vn 0.378580778837204 -0.65572189006216704 0.65322680519098688
vn -8.402797675444162E-07 -0.75716226014503056 0.65322684826889712
vn -0.31886523962020876 -0.55228782328362912 0.77026173415191216
vn -1.1586298569454812E-06 -0.63772768410445648 0.77026207785986032
vn -8.402797675444162E-07 -0.75716226014503056 0.65322684826889712
vn -0.37858119606971744 -0.65572159203895288 0.65322686479568016
vn -0.55228900909423832 -0.3188634875654384 0.7702615337629856
vn -0.31886523962020876 -0.55228782328362912 0.77026173415191216
vn -0.37858119606971744 -0.65572159203895288 0.65322686479568016
vn -0.65572166442871096 -0.37858139190082568 0.65322667152897192
vn -0.63772797584533688 -1.8685299965477167E-07 0.77026176452634704
vn -0.55228900909423832 -0.3188634875654384 0.7702615337629856
vn -0.65572166442871096 -0.37858139190082568 0.65322667152897192
vn -0.75716239213943488 -2.1991333669337068E-07 0.65322667360303064
vn -0.5522887706756592 0.31886371341948848 0.77026175687122688
vn -0.63772797584533688 -1.8685299965477167E-07 0.77026176452634704
vn -0.75716239213943488 -2.1991333669337068E-07 0.65322667360303064
vn -0.65572184324264528 0.37858085122697744 0.65322685449100728
vn -0.318864643573761 0.5522881683469396 0.77026173529625392
vn -0.5522887706756592 0.31886371341948848 0.77026175687122688
vn -0.65572184324264528 0.37858085122697744 0.65322685449100728
vn -0.37858095765113832 0.65572191563245384 0.65322666122443992
vn -7.022616159702011E-07 0.63772767153982072 0.77026186842540576
vn -0.318864643573761 0.5522881683469396 0.77026173529625392
vn -0.37858095765113832 0.65572191563245384 0.65322666122443992
vn 2.528273341795284E-07 0.75716204729668016 0.65322697577435952
vn 0.31886354088783264 0.55228852597477904 0.77026191411024656
vn -7.022616159702011E-07 0.63772767153982072 0.77026186842540576
vn 2.528273341795284E-07 0.75716204729668016 0.65322697577435952
vn 0.3785807192325592 0.6557217368184516 0.65322707845692432
vn 0.55228835344314576 0.3188641008496698 0.77026181647593488
vn 0.31886354088783264 0.55228852597477904 0.77026191411024656
vn 0.3785807192325592 0.6557217368184516 0.65322707845692432
vn 0.65572166442871096 0.37858153668042152 0.65322667567718464
vn 0.63772779703140256 4.2067102254554334E-07 0.77026176452644592
vn 0.55228835344314576 0.3188641008496698 0.77026181647593488
vn 0.65572166442871096 0.37858153668042152 0.65322667567718464
vn 0.75716245174407952 -5.991545440200517E-07 0.65322667360296896
vn 0.65572184324264528 -0.37858124288921376 0.65322667152899624
vn 0.75716239213943488 -2.354989468317614E-08 0.65322673320770752
vn 0.63772779703140256 4.2067102254554334E-07 0.77026176452644592
vn 0.55228853225708008 -0.31886351736781908 0.77026189139084944
vn 0.75716239213943488 -2.354989468317614E-08 0.65322673320770752
vn 0.65572166442871096 0.37858138766879984 0.6532267352818052
vn 0.55228835344314576 0.3188641008496698 0.77026181647593488
vn 0.63772779703140256 4.2067102254554334E-07 0.77026176452644592
vn 0.65572166442871096 0.37858138766879984 0.6532267352818052
vn 0.3785807490348816 0.65572185602777024 0.65322689964300936
vn 0.31886354088783264 0.55228852597477904 0.77026191411024656
vn 0.55228835344314576 0.3188641008496698 0.77026181647593488
vn 0.3785807490348816 0.65572185602777024 0.65322689964300936
vn -3.278581175436557E-07 0.75716222611064352 0.65322679696045424
vn -7.022616159702011E-07 0.63772767153982072 0.77026186842540576
vn 0.31886354088783264 0.55228852597477904 0.77026191411024656
vn -3.278581175436557E-07 0.75716222611064352 0.65322679696045424
vn -0.37858143448829648 0.65572155800456576 0.6532267804336712
vn -0.318864643573761 0.5522881683469396 0.77026173529625392
vn -7.022616159702011E-07 0.63772767153982072 0.77026186842540576
vn -0.37858143448829648 0.65572155800456576 0.6532267804336712
vn -0.6557219624519348 0.37858091083163192 0.65322679488637224
vn -0.5522887706756592 0.31886371341948848 0.77026175687122688
vn -0.318864643573761 0.5522881683469396 0.77026173529625392
vn -0.6557219624519348 0.37858091083163192 0.65322679488637224
vn -0.75716227293014528 -2.0201649440382404E-07 0.6532267332076784
vn -0.63772797584533688 -1.8685299965477167E-07 0.77026176452634704
vn -0.5522887706756592 0.31886371341948848 0.77026175687122688
vn -0.75716227293014528 -2.0201649440382404E-07 0.6532267332076784
vn -0.65572184324264528 -0.37858124288921376 0.65322667152899624
vn -0.55228900909423832 -0.3188634875654384 0.7702615337629856
vn -0.63772797584533688 -1.8685299965477167E-07 0.77026176452634704
vn -0.65572184324264528 -0.37858124288921376 0.65322667152899624
vn -0.37858110666275024 -0.65572189006213784 0.65322662637705256
vn -0.31886523962020876 -0.55228782328362912 0.77026173415191216
vn -0.55228900909423832 -0.3188634875654384 0.7702615337629856
vn -0.37858110666275024 -0.65572189006213784 0.65322662637705256
vn -3.713917706704706E-08 -0.7571623793543008 0.65322672905958808
vn -1.1586298569454812E-06 -0.63772768410445648 0.77026207785986032
vn -0.31886523962020876 -0.55228782328362912 0.77026173415191216
vn -3.713917706704706E-08 -0.7571623793543008 0.65322672905958808
vn 0.37858107686042784 -0.65572189006213784 0.65322662637705256
vn 0.31886339187622072 -0.55228835972549032 0.77026209177969344
vn -1.1586298569454812E-06 -0.63772768410445648 0.77026207785986032
vn 0.37858107686042784 -0.65572189006213784 0.65322662637705256
vn 0.65572184324264528 -0.37858124288921376 0.65322667152899624
vn 0.55228853225708008 -0.31886351736781908 0.77026189139084944
vn 0.31886339187622072 -0.55228835972549032 0.77026209177969344
vn 0.65572148561477664 -0.37858163031941448 0.653226731133578
vn 0.75716245174407952 -5.991545440200517E-07 0.65322667360296896
vn 4.029467248756191E-08 -1.8618483993788802E-07 0.99999994039533808
vn 0.378580778837204 -0.65572189006216704 0.65322680519098688
vn 0.65572148561477664 -0.37858163031941448 0.653226731133578
vn 4.029467248756191E-08 -1.8618483993788802E-07 0.99999994039533808
vn -8.402797675444162E-07 -0.75716226014503056 0.65322684826889712
vn 0.378580778837204 -0.65572189006216704 0.65322680519098688
vn 4.029467248756191E-08 -1.8618483993788802E-07 0.99999994039533808
vn -0.37858119606971744 -0.65572159203895288 0.65322686479568016
vn -8.402797675444162E-07 -0.75716226014503056 0.65322684826889712
vn 4.029467248756191E-08 -1.8618483993788802E-07 0.99999994039533808
vn -0.65572166442871096 -0.37858139190082568 0.65322667152897192
vn -0.37858119606971744 -0.65572159203895288 0.65322686479568016
vn 4.029467248756191E-08 -1.8618483993788802E-07 0.99999994039533808
vn -0.75716239213943488 -2.1991333669337068E-07 0.65322667360303064
vn -0.65572166442871096 -0.37858139190082568 0.65322667152897192
vn 4.029467248756191E-08 -1.8618483993788802E-07 0.99999994039533808
vn -0.65572184324264528 0.37858085122697744 0.65322685449100728
vn -0.75716239213943488 -2.1991333669337068E-07 0.65322667360303064
vn 4.029467248756191E-08 -1.8618483993788802E-07 0.99999994039533808
vn -0.37858095765113832 0.65572191563245384 0.65322666122443992
vn -0.65572184324264528 0.37858085122697744 0.65322685449100728
vn 4.029467248756191E-08 -1.8618483993788802E-07 0.99999994039533808
vn 2.528273341795284E-07 0.75716204729668016 0.65322697577435952
vn -0.37858095765113832 0.65572191563245384 0.65322666122443992
vn 4.029467248756191E-08 -1.8618483993788802E-07 0.99999994039533808
vn 0.3785807192325592 0.6557217368184516 0.65322707845692432
vn 2.528273341795284E-07 0.75716204729668016 0.65322697577435952
vn 4.029467248756191E-08 -1.8618483993788802E-07 0.99999994039533808
vn 0.65572166442871096 0.37858153668042152 0.65322667567718464
vn 0.3785807192325592 0.6557217368184516 0.65322707845692432
vn 4.029467248756191E-08 -1.8618483993788802E-07 0.99999994039533808
vn 0.75716245174407952 -5.991545440200517E-07 0.65322667360296896
vn 0.65572166442871096 0.37858153668042152 0.65322667567718464
vn 4.029467248756191E-08 -1.8618483993788802E-07 0.99999994039533808
vn 0.86602544784545904 -0.49999991059303776 -1.0589025689504897E-08
vn 1 1.5222575229750132E-07 8.542219724739454E-08
vn 1 1.1294168314507355E-07 5.161746294138933E-08
vn 0.86602544784545904 -0.49999999999999536 -6.905272392776484E-08
vn 0.5 -0.86602538824080768 -1.104830081601977E-07
vn 0.86602544784545904 -0.49999991059303776 -1.0589025689504897E-08
vn 0.86602544784545904 -0.49999999999999536 -6.905272392776484E-08
vn 0.5 -0.86602538824079904 -1.629995592680255E-07
vn -7.365762400013409E-08 -0.99999999999998928 -1.477424661500134E-07
vn 0.5 -0.86602538824080768 -1.104830081601977E-07
vn 0.5 -0.86602538824079904 -1.629995592680255E-07
vn -6.87471199967149E-08 -0.99999999999998352 -1.831498924742539E-07
vn -0.5000000596046448 -0.86602544784545248 -1.0983559975191205E-07
vn -7.365762400013409E-08 -0.99999999999998928 -1.477424661500134E-07
vn -6.87471199967149E-08 -0.99999999999998352 -1.831498924742539E-07
vn -0.5000000596046448 -0.86602538824080272 -1.4151920935257768E-07
vn -0.86602538824081424 -0.49999994039535608 -3.517352143241079E-08
vn -0.5000000596046448 -0.86602544784545248 -1.0983559975191205E-07
vn -0.5000000596046448 -0.86602538824080272 -1.4151920935257768E-07
vn -0.86602538824081424 -0.49999999999999968 -4.268249703676143E-08
vn -1 -1.0803119438492409E-07 4.194505736839213E-08
vn -0.86602538824081424 -0.49999994039535608 -3.517352143241079E-08
vn -0.86602538824081424 -0.49999999999999968 -4.268249703676143E-08
vn -1 -1.5713628123436764E-07 6.761820541367181E-08
vn -0.86602550745010368 0.49999979138372832 1.3257809532032093E-07
vn -1 -1.0803119438492409E-07 4.194505736839213E-08
vn -1 -1.5713628123436764E-07 6.761820541367181E-08
vn -0.86602550745010368 0.49999976158140112 1.6204992521534435E-07
vn -0.50000029802322384 0.86602520942685824 2.0354248757125506E-07
vn -0.86602550745010368 0.49999979138372832 1.3257809532032093E-07
vn -0.86602550745010368 0.49999976158140112 1.6204992521534435E-07
vn -0.50000029802322384 0.86602520942685456 2.2608156395430938E-07
vn -4.4685626221507846E-07 0.99999999999997952 2.0748749818277787E-07
vn -0.50000029802322384 0.86602520942685824 2.0354248757125506E-07
vn -0.50000029802322384 0.86602520942685456 2.2608156395430938E-07
vn -4.615877458036266E-07 0.99999994039533408 2.117858705666512E-07
vn 0.49999943375587464 0.86602574586866736 1.6502843731184562E-07
vn -4.4685626221507846E-07 0.99999999999997952 2.0748749818277787E-07
vn -4.615877458036266E-07 0.99999994039533408 2.117858705666512E-07
vn 0.49999946355819704 0.86602568626401824 1.9254526085742927E-07
vn 0.86602520942687984 0.50000047683714376 1.2905903093318752E-07
vn 0.49999943375587464 0.86602574586866736 1.6502843731184562E-07
vn 0.49999946355819704 0.86602568626401824 1.9254526085742927E-07
vn 0.86602520942687984 0.50000035762785496 1.245500032336643E-07
vn 1 1.5222575229750132E-07 8.542219724739454E-08
vn 0.86602520942687984 0.50000047683714376 1.2905903093318752E-07
vn 0.86602520942687984 0.50000035762785496 1.245500032336643E-07
vn 1 1.1294168314507355E-07 5.161746294138933E-08
vn 0.86602538824081424 -0.49999999999999232 -8.822732139313024E-08
vn 1 1.522257722119266E-07 -3.6811670224836154E-08
vn 1 1.2767324754256397E-07 -8.256263744314738E-09
vn 0.86602538824081424 -0.50000005960463536 -9.850012571892238E-08
vn 0.4999999701976776 -0.86602538824080528 -1.2498908805303732E-07
vn 0.86602538824081424 -0.49999999999999232 -8.822732139313024E-08
vn 0.86602538824081424 -0.50000005960463536 -9.850012571892238E-08
vn 0.4999999701976776 -0.86602538824079856 -1.667291838771755E-07
vn -7.365762400013409E-08 -0.99999999999998816 -1.544749287374354E-07
vn 0.4999999701976776 -0.86602538824080528 -1.2498908805303732E-07
vn 0.4999999701976776 -0.86602538824079856 -1.667291838771755E-07
vn -7.365762400013409E-08 -0.99999999999998496 -1.7433346843898007E-07
vn -0.5000000596046448 -0.86602538824080304 -1.387698079515856E-07
vn -7.365762400013409E-08 -0.99999999999998816 -1.544749287374354E-07
vn -7.365762400013409E-08 -0.99999999999998496 -1.7433346843898007E-07
vn -0.50000011920928952 -0.86602538824079824 -1.688133975676985E-07
vn -0.86602538824081424 -0.49999999999999224 -8.830934955517085E-08
vn -0.5000000596046448 -0.86602538824080304 -1.387698079515856E-07
vn -0.50000011920928952 -0.86602538824079824 -1.688133975676985E-07
vn -0.86602538824081424 -0.5000000596046328 -1.1410674926796924E-07
vn -1 -1.4240475418121814E-07 -2.4714403076625547E-08
vn -0.86602538824081424 -0.49999999999999224 -8.830934955517085E-08
vn -0.86602538824081424 -0.5000000596046328 -1.1410674926796924E-07
vn -1 -1.3749423629143824E-07 -2.272267282856409E-08
vn -0.86602550745010368 0.4999998211860648 4.601454385276519E-08
vn -1 -1.4240475418121814E-07 -2.4714403076625547E-08
vn -1 -1.3749423629143824E-07 -2.272267282856409E-08
vn -0.86602544784545904 0.49999988079070832 5.376834228579247E-08
vn -0.50000023841857912 0.86602520942687456 1.0318582947643186E-07
vn -0.86602550745010368 0.4999998211860648 4.601454385276519E-08
vn -0.86602544784545904 0.49999988079070832 5.376834228579247E-08
vn -0.50000023841857912 0.8660252094268776 8.441126890356702E-08
vn -4.763192862355936E-07 0.99999994039534752 1.2929925569478393E-07
vn -0.50000023841857912 0.86602520942687456 1.0318582947643186E-07
vn -0.50000023841857912 0.8660252094268776 8.441126890356702E-08
vn -4.959612738275609E-07 0.99999994039535344 9.26819473981574E-08
vn 0.49999943375587464 0.86602568626403104 1.1378124332705534E-07
vn -4.763192862355936E-07 0.99999994039534752 1.2929925569478393E-07
vn -4.959612738275609E-07 0.99999994039535344 9.26819473981574E-08
vn 0.49999943375587464 0.86602574586867904 9.410661955992327E-08
vn 0.86602514982223504 0.50000041723251232 4.737990974797265E-08
vn 0.49999943375587464 0.86602568626403104 1.1378124332705534E-07
vn 0.49999943375587464 0.86602574586867904 9.410661955992327E-08
vn 0.86602514982223504 0.50000047683715528 5.8609274682265246E-08
vn 1 1.522257722119266E-07 -3.6811670224836154E-08
vn 0.86602514982223504 0.50000041723251232 4.737990974797265E-08
vn 0.86602514982223504 0.50000047683715528 5.8609274682265246E-08
vn 1 1.2767324754256397E-07 -8.256263744314738E-09
# 744 vertex normals

vt 0.10290215164422988 0.99799996614456176 0
vt 0.07072883099317551 0.99799996614456176 0
vt 0.07042632251977921 0.83599263429641728 0
vt 0.1025267168879509 0.83599263429641728 0
vt 0.03870722278952598 0.99799996614456176 0
vt 0.03840631619095802 0.83599263429641728 0
vt 0.00675940513610839 0.99799996614456176 0
vt 0.00644869264215231 0.83599263429641728 0
vt 0.36202520132064816 0.99799996614456176 0
vt 0.35995933413505556 0.83599263429641728 0
vt 0.33001708984375 0.99799996614456176 0
vt 0.32794663310050964 0.83599263429641728 0
vt 0.29786035418510436 0.99799996614456176 0
vt 0.29585659503936768 0.83599263429641728 0
vt 0.26551723480224608 0.99799996614456176 0
vt 0.26369044184684752 0.83599263429641728 0
vt 0.23300668597221376 0.99799996614456176 0
vt 0.23146352171897888 0.83599263429641728 0
vt 0.2003963589668274 0.99799996614456176 0
vt 0.19920170307159424 0.83599263429641728 0
vt 0.16778233647346496 0.99799996614456176 0
vt 0.16693709790706634 0.83599263429641728 0
vt 0.13526096940040588 0.99799996614456176 0
vt 0.13470281660556794 0.83599263429641728 0
vt 0.06877267360687256 0.67395865917205808 0
vt 0.10095217823982238 0.67395865917205808 0
vt 0.03670869395136833 0.67395865917205808 0
vt 0.00473860930651426 0.67395865917205808 0
vt 0.35934519767761232 0.67395865917205808 0
vt 0.3272908627986908 0.67395865917205808 0
vt 0.29512462019920348 0.67395865917205808 0
vt 0.26284578442573548 0.67395865917205808 0
vt 0.23047547042369844 0.67395865917205808 0
vt 0.1980513781309128 0.67395865917205808 0
vt 0.16562387347221374 0.67395865917205808 0
vt 0.13324415683746338 0.67395865917205808 0
vt 0.06598465889692307 0.5117846131324768 0
vt 0.0983085110783577 0.5117846131324768 0
vt 0.03393310308456421 0.5117846131324768 0
vt 0.0020000000949949 0.5117846131324768 0
vt 0.35973325371742248 0.5117846131324768 0
vt 0.32769900560379028 0.5117846131324768 0
vt 0.29539737105369568 0.5117846131324768 0
vt 0.26279518008232116 0.5117846131324768 0
vt 0.22992371022701264 0.5117846131324768 0
vt 0.196874663233757 0.5117846131324768 0
vt 0.16381973028182984 0.5117846131324768 0
vt 0.1309322565793991 0.5117846131324768 0
vt 0.06651110947132111 0.46762254834175112 0
vt 0.09886160492897034 0.46762254834175112 0
vt 0.0342867448925972 0.46762254834175112 0
vt 0.00225283065810799 0.46762254834175112 0
vt 0.35865053534507752 0.46762254834175112 0
vt 0.32640752196311952 0.46762254834175112 0
vt 0.29409390687942504 0.46762254834175112 0
vt 0.26163175702095032 0.46762254834175112 0
vt 0.22913455963134764 0.46762254834175112 0
vt 0.19655241072177888 0.46762254834175112 0
vt 0.16392716765403748 0.46762254834175112 0
vt 0.13135716319084168 0.46762254834175112 0
vt 0.06612791866064072 0.34895333647727968 0
vt 0.0692506805062294 0.22364385426044464 0
vt 0.10035929083824158 0.22609138488769532 0
vt 0.09828921407461166 0.34895333647727968 0
vt 0.03411414474248886 0.34895333647727968 0
vt 0.03789796307682991 0.22363682091236116 0
vt 0.0021808804012835 0.34895333647727968 0
vt 0.00624980498105287 0.22309541702270508 0
vt 0.35686174035072328 0.34895333647727968 0
vt 0.35101208090782164 0.22114557027816772 0
vt 0.32490533590316772 0.34895333647727968 0
vt 0.31964668631553648 0.22168225049972536 0
vt 0.29280489683151244 0.34895333647727968 0
vt 0.28855910897254944 0.22461837530136108 0
vt 0.26054713129997252 0.34895333647727968 0
vt 0.2578609585762024 0.233898788690567 0
vt 0.22813500463962556 0.34895333647727968 0
vt 0.22650596499443056 0.24149839580059052 0
vt 0.19559594988822936 0.34895333647727968 0
vt 0.19465550780296324 0.24850967526435852 0
vt 0.16304512321949006 0.34895333647727968 0
vt 0.16269035637378692 0.24199965596199036 0
vt 0.13059896230697632 0.34895333647727968 0
vt 0.13120821118354798 0.2348913550376892 0
vt 0.10494375973939896 0.19252662360668184 0
vt 0.07544337958097458 0.18457144498825072 0
vt 0.09587989002466202 0.09321990609169006 0
vt 0.11966441571712494 0.10300319641828536 0
vt 0.045846126973629 0.17562924325466156 0
vt 0.07176579535007477 0.08119067549705505 0
vt 0.01544713042676448 0.16740064322948456 0
vt 0.04552998766303062 0.06744275987148285 0
vt 0.34222105145454408 0.17329207062721252 0
vt 0.31495600938796996 0.07924122363328934 0
vt 0.31273505091667176 0.18273966014385224 0
vt 0.29109439253807068 0.0916452780365944 0
vt 0.28337353467941284 0.1911257952451706 0
vt 0.26748377084732056 0.10178317874670028 0
vt 0.25383388996124268 0.19764825701713564 0
vt 0.24340452253818512 0.10943389683961868 0
vt 0.22407740354537964 0.20177122950553896 0
vt 0.21873751282691956 0.11425898224115372 0
vt 0.1942889839410782 0.20334964990615844 0
vt 0.19366343319416048 0.11603526771068572 0
vt 0.16447266936302186 0.2022438496351242 0
vt 0.1685667634010315 0.11467018723487854 0
vt 0.13463227450847626 0.19858984649181364 0
vt 0.1438363492488861 0.11025071889162064 0
vt 0.1122129037976265 0.06177365034818649 0
vt 0.13140913844108582 0.07279191166162491 0
vt 0.09360119700431824 0.04749801009893417 0
vt 0.07506687194108963 0.02882649004459381 0
vt 0.29256173968315124 0.04589605331420898 0
vt 0.27420404553413392 0.06045567244291306 0
vt 0.25520142912864684 0.07177761942148209 0
vt 0.23532666265964508 0.08009031414985657 0
vt 0.21463389694690704 0.08529143780469894 0
vt 0.19342780113220216 0.08717633038759232 0
vt 0.17219333350658416 0.08564265817403793 0
vt 0.15141882002353668 0.08077971637248993 0
vt 0.13411471247673034 0.03725386783480644 0
vt 0.14737807214260102 0.04731491580605507 0
vt 0.12261445075273514 0.02393548563122749 0
vt 0.11375296115875244 0.00673938728868961 0
vt 0.26318359375 0.0227690078318119 0
vt 0.25189715623855592 0.03628189489245414 0
vt 0.23880280554294588 0.04656048491597176 0
vt 0.22444482147693636 0.05406231805682182 0
vt 0.20911698043346404 0.05878128856420517 0
vt 0.19320611655712128 0.06048304960131645 0
vt 0.1772669404745102 0.05905353277921677 0
vt 0.16186055541038514 0.05458261072635651 0
vt 0.13748873770236968 0.03597267344594002 0
vt 0.41333356499671936 0.28858125209808348 0
vt 0.41333356499671936 0.26006558537483216 0
vt 0.50227266550064088 0.26006558537483216 0
vt 0.50227266550064088 0.28858125209808348 0
vt 0.41333356499671936 0.31714186072349548 0
vt 0.50227266550064088 0.31714186072349548 0
vt 0.41333356499671936 0.34617561101913452 0
vt 0.50227266550064088 0.34617561101913452 0
vt 0.41333356499671936 0.03121553733944893 0
vt 0.50227266550064088 0.03121553733944893 0
vt 0.41333356499671936 0.05988330021500587 0
vt 0.50227266550064088 0.05988330021500587 0
vt 0.41333356499671936 0.08849813044071198 0
vt 0.50227266550064088 0.08849813044071198 0
vt 0.41333356499671936 0.11746475845575332 0
vt 0.50227266550064088 0.11670858412981034 0
vt 0.41333356499671936 0.1457301378250122 0
vt 0.50227266550064088 0.1457301378250122 0
vt 0.41333356499671936 0.17433862388134002 0
vt 0.50227266550064088 0.17433862388134002 0
vt 0.41333356499671936 0.202934131026268 0
vt 0.50227266550064088 0.202934131026268 0
vt 0.41333356499671936 0.23151147365570068 0
vt 0.50227266550064088 0.23151147365570068 0
vt 0.61716735363006592 0.0292512159794569 0
vt 0.14854168891906738 0.047386784106493 0
vt 0.12952566146850586 0.02149934694170951 0
vt 0.12610632181167602 0.00309886829927563 0
vt 0.25622400641441344 0.02045076340436935 0
vt 0.24849624931812288 0.03505199030041694 0
vt 0.23763324320316316 0.04664509743452072 0
vt 0.2244388610124588 0.05548656731843948 0
vt 0.20939259231090544 0.06124242395162582 0
vt 0.19323550164699556 0.06334071606397629 0
vt 0.17703433334827424 0.06152905896306038 0
vt 0.1618839055299759 0.0560145378112793 0
vt 0.16598626971244812 0.02443873509764671 0
vt 0.17099043726921082 0.03032868169248104 0
vt 0.162835031747818 0.01708823628723621 0
vt 0.16302686929702758 0.00826955586671829 0
vt 0.22283844649791716 0.01659142039716243 0
vt 0.2198050618171692 0.02399376779794693 0
vt 0.21489442884922028 0.0299666803330183 0
vt 0.20861029624938964 0.03461160883307457 0
vt 0.2011767625808716 0.03772106394171715 0
vt 0.19299903512001036 0.0388747975230217 0
vt 0.18481183052062988 0.03785712271928787 0
vt 0.1773427128791809 0.03486901894211769 0
vt 0.1928595155477524 0.02007630094885826 0
vt 0.62446945905685424 0.05650261417031288 0
vt 0.5699666738510132 0.05650275573134422 0
vt 0.59721803665161136 0.0093019800260663 0
vt 0.5699666142463684 0.0020000000949949 0
vt 0.54271531105041504 0.00930187944322824 0
vt 0.52276593446731568 0.0292512159794569 0
vt 0.51546382904052736 0.05650279670953751 0
vt 0.52276581525802616 0.08375421166419983 0
vt 0.54271531105041504 0.10370370745658874 0
vt 0.56996679306030272 0.11100561171770096 0
vt 0.59721797704696656 0.10370364785194396 0
vt 0.61716741323471072 0.08375422656536102 0
vt 0.40715757012367248 0.28858125209808348 0
vt 0.40715757012367248 0.26006558537483216 0
vt 0.40715757012367248 0.23151147365570068 0
vt 0.40715757012367248 0.202934131026268 0
vt 0.40715757012367248 0.17433862388134002 0
vt 0.40715757012367248 0.1457301378250122 0
vt 0.40715757012367248 0.11752067506313324 0
vt 0.40715757012367248 0.08849813044071198 0
vt 0.40715757012367248 0.05988330021500587 0
vt 0.40715757012367248 0.03121553733944893 0
vt 0.40715757012367248 0.0020000000949949 0
vt 0.40715757012367248 0.31714186072349548 0
vt 0.41333356499671936 0.0020000000949949 0
vt 0.50227266550064088 0.0020000000949949 0
vt 0.40715757012367248 0.34617561101913452 0
vt 0.3939663767814636 0.99799996614456176 0
vt 0.39191377162933352 0.83599263429641728 0
vt 0.39131325483322144 0.67395865917205808 0
vt 0.39165943861007688 0.5117846131324768 0
vt 0.39070385694503784 0.46762254834175112 0
vt 0.3887619376182556 0.34895333647727968 0
vt 0.3826439678668976 0.2200850248336792 0
vt 0.37250965833663944 0.16457761824131012 0
vt 0.34095793962478636 0.06509440392255783 0
vt 0.31081593036651612 0.02696257829666137 0
vt 0.27179941534996032 0.00544046564027667 0
vt 0.25935256481170656 0.0020000000949949 0
vt 0.22250375151634216 0.00777683686465025 0
# 222 texture coords

g Cylinder001
usemtl Material #26
s 1
f 1/1/1 2/2/2 14/3/3 13/4/4
f 2/2/5 3/5/6 15/6/7 14/3/8
f 3/5/9 4/7/10 16/8/11 15/6/12
f 4/210/13 5/9/14 17/10/15 16/211/16
f 5/9/17 6/11/18 18/12/19 17/10/20
f 6/11/21 7/13/22 19/14/23 18/12/24
f 7/13/25 8/15/26 20/16/27 19/14/28
f 8/15/29 9/17/30 21/18/31 20/16/32
f 9/17/33 10/19/34 22/20/35 21/18/36
f 10/19/37 11/21/38 23/22/39 22/20/40
f 11/21/41 12/23/42 24/24/43 23/22/44
f 12/23/45 1/1/46 13/4/47 24/24/48
f 13/4/49 14/3/50 26/25/51 25/26/52
f 14/3/53 15/6/54 27/27/55 26/25/56
f 15/6/57 16/8/58 28/28/59 27/27/60
f 16/211/61 17/10/62 29/29/63 28/212/64
f 17/10/65 18/12/66 30/30/67 29/29/68
f 18/12/69 19/14/70 31/31/71 30/30/72
f 19/14/73 20/16/74 32/32/75 31/31/76
f 20/16/77 21/18/78 33/33/79 32/32/80
f 21/18/81 22/20/82 34/34/83 33/33/84
f 22/20/85 23/22/86 35/35/87 34/34/88
f 23/22/89 24/24/90 36/36/91 35/35/92
f 24/24/93 13/4/94 25/26/95 36/36/96
f 25/26/97 26/25/98 38/37/99 37/38/100
f 26/25/101 27/27/102 39/39/103 38/37/104
f 27/27/105 28/28/106 40/40/107 39/39/108
f 28/212/109 29/29/110 41/41/111 40/213/112
f 29/29/113 30/30/114 42/42/115 41/41/116
f 30/30/117 31/31/118 43/43/119 42/42/120
f 31/31/121 32/32/122 44/44/123 43/43/124
f 32/32/125 33/33/126 45/45/127 44/44/128
f 33/33/129 34/34/130 46/46/131 45/45/132
f 34/34/133 35/35/134 47/47/135 46/46/136
f 35/35/137 36/36/138 48/48/139 47/47/140
f 36/36/141 25/26/142 37/38/143 48/48/144
f 38/37/145 171/49/146 172/50/147 37/38/148
f 39/39/149 173/51/150 171/49/151 38/37/152
f 40/40/153 174/52/154 173/51/155 39/39/156
f 41/41/157 175/53/158 174/214/159 40/213/160
f 42/42/161 176/54/162 175/53/163 41/41/164
f 43/43/165 177/55/166 176/54/167 42/42/168
f 44/44/169 178/56/170 177/55/171 43/43/172
f 45/45/173 179/57/174 178/56/175 44/44/176
f 46/46/177 180/58/178 179/57/179 45/45/180
f 47/47/181 181/59/182 180/58/183 46/46/184
f 48/48/185 182/60/186 181/59/187 47/47/188
f 37/38/189 172/50/190 182/60/191 48/48/192
f 50/61/193 159/62/194 160/63/195 49/64/196
f 51/65/197 161/66/198 159/62/199 50/61/200
f 52/67/201 162/68/202 161/66/203 51/65/204
f 53/69/205 163/70/206 162/216/207 52/215/208
f 54/71/209 164/72/210 163/70/211 53/69/212
f 55/73/213 165/74/214 164/72/215 54/71/216
f 56/75/217 166/76/218 165/74/219 55/73/220
f 57/77/221 167/78/222 166/76/223 56/75/224
f 58/79/225 168/80/226 167/78/227 57/77/228
f 59/81/229 169/82/230 168/80/231 58/79/232
f 60/83/233 170/84/234 169/82/235 59/81/236
f 49/64/237 160/63/238 170/84/239 60/83/240
f 61/85/241 62/86/242 74/87/243 73/88/244
f 62/86/245 63/89/246 75/90/247 74/87/248
f 63/89/249 64/91/250 76/92/251 75/90/252
f 64/217/253 65/93/254 77/94/255 76/218/256
f 65/93/257 66/95/258 78/96/259 77/94/260
f 66/95/261 67/97/262 79/98/263 78/96/264
f 67/97/265 68/99/266 80/100/267 79/98/268
f 68/99/269 69/101/270 81/102/271 80/100/272
f 69/101/273 70/103/274 82/104/275 81/102/276
f 70/103/277 71/105/278 83/106/279 82/104/280
f 71/105/281 72/107/282 84/108/283 83/106/284
f 72/107/285 61/85/286 73/88/287 84/108/288
f 73/88/289 74/87/290 86/109/291 85/110/292
f 74/87/293 75/90/294 87/111/295 86/109/296
f 75/90/297 76/92/298 88/112/299 87/111/300
f 76/218/301 77/94/302 89/113/303 88/219/304
f 77/94/305 78/96/306 90/114/307 89/113/308
f 78/96/309 79/98/310 91/115/311 90/114/312
f 79/98/313 80/100/314 92/116/315 91/115/316
f 80/100/317 81/102/318 93/117/319 92/116/320
f 81/102/321 82/104/322 94/118/323 93/117/324
f 82/104/325 83/106/326 95/119/327 94/118/328
f 83/106/329 84/108/330 96/120/331 95/119/332
f 84/108/333 73/88/334 85/110/335 96/120/336
f 85/110/337 86/109/338 98/121/339 97/122/340
f 86/109/341 87/111/342 99/123/343 98/121/344
f 87/111/345 88/112/346 100/124/347 99/123/348
f 88/219/349 89/113/350 101/125/351 100/220/352
f 89/113/353 90/114/354 102/126/355 101/125/356
f 90/114/357 91/115/358 103/127/359 102/126/360
f 91/115/361 92/116/362 104/128/363 103/127/364
f 92/116/365 93/117/366 105/129/367 104/128/368
f 93/117/369 94/118/370 106/130/371 105/129/372
f 94/118/373 95/119/374 107/131/375 106/130/376
f 95/119/377 96/120/378 108/132/379 107/131/380
f 96/120/381 85/110/382 97/122/383 108/132/384
f 97/122/385 98/121/386 110/133/387 109/159/388
f 98/121/389 99/123/390 111/160/391 110/133/392
f 99/123/393 100/124/394 112/161/395 111/160/396
f 100/220/397 101/125/398 113/162/399 112/221/400
f 101/125/401 102/126/402 114/163/403 113/162/404
f 102/126/405 103/127/406 115/164/407 114/163/408
f 103/127/409 104/128/410 116/165/411 115/164/412
f 104/128/413 105/129/414 117/166/415 116/165/416
f 105/129/417 106/130/418 118/167/419 117/166/420
f 106/130/421 107/131/422 119/168/423 118/167/424
f 107/131/425 108/132/426 120/169/427 119/168/428
f 108/132/429 97/122/430 109/159/431 120/169/432
f 109/159/433 110/133/434 122/170/435 121/171/436
f 110/133/437 111/160/438 123/172/439 122/170/440
f 111/160/441 112/161/442 124/173/443 123/172/444
f 112/221/445 113/162/446 125/174/447 124/222/448
f 113/162/449 114/163/450 126/175/451 125/174/452
f 114/163/453 115/164/454 127/176/455 126/175/456
f 115/164/457 116/165/458 128/177/459 127/176/460
f 116/165/461 117/166/462 129/178/463 128/177/464
f 117/166/465 118/167/466 130/179/467 129/178/468
f 118/167/469 119/168/470 131/180/471 130/179/472
f 119/168/473 120/169/474 132/181/475 131/180/476
f 120/169/477 109/159/478 121/171/479 132/181/480
f 121/171/481 122/170/482 133/182/483
f 122/170/484 123/172/485 133/182/486
f 123/172/487 124/173/488 133/182/489
f 124/222/490 125/174/491 133/182/492
f 125/174/493 126/175/494 133/182/495
f 126/175/496 127/176/497 133/182/498
f 127/176/499 128/177/500 133/182/501
f 128/177/502 129/178/503 133/182/504
f 129/178/505 130/179/506 133/182/507
f 130/179/508 131/180/509 133/182/510
f 131/180/511 132/181/512 133/182/513
f 132/181/514 121/171/515 133/182/516
f 134/134/517 135/135/518 146/136/519 147/137/520
f 145/138/521 134/134/522 147/137/523 148/139/524
f 144/140/525 145/138/526 148/139/527 149/141/528
f 143/142/529 144/207/530 149/208/531 150/143/532
f 142/144/533 143/142/534 150/143/535 151/145/536
f 141/146/537 142/144/538 151/145/539 152/147/540
f 140/148/541 141/146/542 152/147/543 153/149/544
f 139/150/545 140/148/546 153/149/547 154/151/548
f 138/152/549 139/150/550 154/151/551 155/153/552
f 137/154/553 138/152/554 155/153/555 156/155/556
f 136/156/557 137/154/558 156/155/559 157/157/560
f 135/135/561 136/156/562 157/157/563 146/136/564
f 2/195/565 1/196/566 135/135/567 134/134/568
f 1/196/569 12/197/570 136/156/571 135/135/572
f 12/197/573 11/198/574 137/154/575 136/156/576
f 11/198/577 10/199/578 138/152/579 137/154/580
f 10/199/581 9/200/582 139/150/583 138/152/584
f 9/200/585 8/201/586 140/148/587 139/150/588
f 8/201/589 7/202/590 141/146/591 140/148/592
f 7/202/593 6/203/594 142/144/595 141/146/596
f 6/203/597 5/204/598 143/142/599 142/144/600
f 5/204/601 4/205/602 144/207/603 143/142/604
f 4/209/605 3/206/606 145/138/607 144/140/608
f 3/206/609 2/195/610 134/134/611 145/138/612
f 147/158/613 146/183/614 158/184/615
f 148/185/616 147/158/617 158/184/618
f 149/186/619 148/185/620 158/184/621
f 150/187/622 149/186/623 158/184/624
f 151/188/625 150/187/626 158/184/627
f 152/189/628 151/188/629 158/184/630
f 153/190/631 152/189/632 158/184/633
f 154/191/634 153/190/635 158/184/636
f 155/192/637 154/191/638 158/184/639
f 156/193/640 155/192/641 158/184/642
f 157/194/643 156/193/644 158/184/645
f 146/183/646 157/194/647 158/184/648
f 62/86/649 61/85/650 160/63/651 159/62/652
f 63/89/653 62/86/654 159/62/655 161/66/656
f 64/91/657 63/89/658 161/66/659 162/68/660
f 65/93/661 64/217/662 162/216/663 163/70/664
f 66/95/665 65/93/666 163/70/667 164/72/668
f 67/97/669 66/95/670 164/72/671 165/74/672
f 68/99/673 67/97/674 165/74/675 166/76/676
f 69/101/677 68/99/678 166/76/679 167/78/680
f 70/103/681 69/101/682 167/78/683 168/80/684
f 71/105/685 70/103/686 168/80/687 169/82/688
f 72/107/689 71/105/690 169/82/691 170/84/692
f 61/85/693 72/107/694 170/84/695 160/63/696
f 50/61/697 49/64/698 172/50/699 171/49/700
f 51/65/701 50/61/702 171/49/703 173/51/704
f 52/67/705 51/65/706 173/51/707 174/52/708
f 53/69/709 52/215/710 174/214/711 175/53/712
f 54/71/713 53/69/714 175/53/715 176/54/716
f 55/73/717 54/71/718 176/54/719 177/55/720
f 56/75/721 55/73/722 177/55/723 178/56/724
f 57/77/725 56/75/726 178/56/727 179/57/728
f 58/79/729 57/77/730 179/57/731 180/58/732
f 59/81/733 58/79/734 180/58/735 181/59/736
f 60/83/737 59/81/738 181/59/739 182/60/740
f 49/64/741 60/83/742 182/60/743 172/50/744
#192 polygons

